G04 #@! TF.GenerationSoftware,KiCad,Pcbnew,(5.1.5)-3*
G04 #@! TF.CreationDate,2020-05-18T23:05:03-04:00*
G04 #@! TF.ProjectId,Union_Circle,556e696f-6e5f-4436-9972-636c652e6b69,rev?*
G04 #@! TF.SameCoordinates,Original*
G04 #@! TF.FileFunction,Soldermask,Top*
G04 #@! TF.FilePolarity,Negative*
%FSLAX46Y46*%
G04 Gerber Fmt 4.6, Leading zero omitted, Abs format (unit mm)*
G04 Created by KiCad (PCBNEW (5.1.5)-3) date 2020-05-18 23:05:03*
%MOMM*%
%LPD*%
G04 APERTURE LIST*
%ADD10C,0.100000*%
G04 APERTURE END LIST*
D10*
G36*
X97314458Y-111110887D02*
G01*
X97487529Y-111182575D01*
X97487530Y-111182576D01*
X97643290Y-111286651D01*
X97775753Y-111419114D01*
X97775754Y-111419116D01*
X97879829Y-111574875D01*
X97951517Y-111747946D01*
X97988063Y-111931674D01*
X97988063Y-112119008D01*
X97951517Y-112302736D01*
X97879829Y-112475807D01*
X97879828Y-112475808D01*
X97775753Y-112631568D01*
X97643290Y-112764031D01*
X97564881Y-112816422D01*
X97487529Y-112868107D01*
X97314458Y-112939795D01*
X97130730Y-112976341D01*
X96943396Y-112976341D01*
X96759668Y-112939795D01*
X96586597Y-112868107D01*
X96509245Y-112816422D01*
X96430836Y-112764031D01*
X96298373Y-112631568D01*
X96194298Y-112475808D01*
X96194297Y-112475807D01*
X96122609Y-112302736D01*
X96086063Y-112119008D01*
X96086063Y-111931674D01*
X96122609Y-111747946D01*
X96194297Y-111574875D01*
X96298372Y-111419116D01*
X96298373Y-111419114D01*
X96430836Y-111286651D01*
X96586596Y-111182576D01*
X96586597Y-111182575D01*
X96759668Y-111110887D01*
X96943396Y-111074341D01*
X97130730Y-111074341D01*
X97314458Y-111110887D01*
G37*
G36*
X103242485Y-111110356D02*
G01*
X103415556Y-111182044D01*
X103416352Y-111182576D01*
X103571317Y-111286120D01*
X103703780Y-111418583D01*
X103704136Y-111419116D01*
X103807856Y-111574344D01*
X103879544Y-111747415D01*
X103916090Y-111931143D01*
X103916090Y-112118477D01*
X103879544Y-112302205D01*
X103807856Y-112475276D01*
X103756171Y-112552628D01*
X103703780Y-112631037D01*
X103571317Y-112763500D01*
X103492908Y-112815891D01*
X103415556Y-112867576D01*
X103242485Y-112939264D01*
X103058757Y-112975810D01*
X102871423Y-112975810D01*
X102687695Y-112939264D01*
X102514624Y-112867576D01*
X102437272Y-112815891D01*
X102358863Y-112763500D01*
X102226400Y-112631037D01*
X102174009Y-112552628D01*
X102122324Y-112475276D01*
X102050636Y-112302205D01*
X102014090Y-112118477D01*
X102014090Y-111931143D01*
X102050636Y-111747415D01*
X102122324Y-111574344D01*
X102226044Y-111419116D01*
X102226400Y-111418583D01*
X102358863Y-111286120D01*
X102513828Y-111182576D01*
X102514624Y-111182044D01*
X102687695Y-111110356D01*
X102871423Y-111073810D01*
X103058757Y-111073810D01*
X103242485Y-111110356D01*
G37*
G36*
X116712694Y-109817269D02*
G01*
X116867566Y-109881419D01*
X117006947Y-109974551D01*
X117125481Y-110093085D01*
X117218613Y-110232466D01*
X117282763Y-110387338D01*
X117315466Y-110551750D01*
X117315466Y-110719382D01*
X117282763Y-110883794D01*
X117218613Y-111038666D01*
X117125481Y-111178047D01*
X117006947Y-111296581D01*
X116867566Y-111389713D01*
X116712694Y-111453863D01*
X116548282Y-111486566D01*
X116380650Y-111486566D01*
X116216238Y-111453863D01*
X116061366Y-111389713D01*
X115921985Y-111296581D01*
X115803451Y-111178047D01*
X115710319Y-111038666D01*
X115646169Y-110883794D01*
X115613466Y-110719382D01*
X115613466Y-110551750D01*
X115646169Y-110387338D01*
X115710319Y-110232466D01*
X115803451Y-110093085D01*
X115921985Y-109974551D01*
X116061366Y-109881419D01*
X116216238Y-109817269D01*
X116380650Y-109784566D01*
X116548282Y-109784566D01*
X116712694Y-109817269D01*
G37*
G36*
X103374727Y-109721340D02*
G01*
X103501218Y-110232466D01*
X103506518Y-110253885D01*
X102026486Y-110620155D01*
X101660216Y-110710798D01*
X101660215Y-110710798D01*
X101293945Y-109230766D01*
X101203302Y-108864496D01*
X101203302Y-108864495D01*
X102683334Y-108498225D01*
X103049604Y-108407582D01*
X103049605Y-108407582D01*
X103374727Y-109721340D01*
G37*
G36*
X97310461Y-108497728D02*
G01*
X98793331Y-108861955D01*
X98793331Y-108861956D01*
X98737985Y-109087284D01*
X98339641Y-110709053D01*
X98339640Y-110709053D01*
X97975413Y-110619590D01*
X96492543Y-110255363D01*
X96500769Y-110221874D01*
X96623711Y-109721341D01*
X96946233Y-108408265D01*
X96946234Y-108408265D01*
X97310461Y-108497728D01*
G37*
G36*
X92065268Y-108366420D02*
G01*
X92238339Y-108438108D01*
X92238340Y-108438109D01*
X92394100Y-108542184D01*
X92526563Y-108674647D01*
X92578954Y-108753056D01*
X92630639Y-108830408D01*
X92702327Y-109003479D01*
X92738873Y-109187207D01*
X92738873Y-109374541D01*
X92702327Y-109558269D01*
X92630639Y-109731340D01*
X92630638Y-109731341D01*
X92526563Y-109887101D01*
X92394100Y-110019564D01*
X92315691Y-110071955D01*
X92238339Y-110123640D01*
X92065268Y-110195328D01*
X91881540Y-110231874D01*
X91694206Y-110231874D01*
X91510478Y-110195328D01*
X91337407Y-110123640D01*
X91260055Y-110071955D01*
X91181646Y-110019564D01*
X91049183Y-109887101D01*
X90945108Y-109731341D01*
X90945107Y-109731340D01*
X90873419Y-109558269D01*
X90836873Y-109374541D01*
X90836873Y-109187207D01*
X90873419Y-109003479D01*
X90945107Y-108830408D01*
X90996792Y-108753056D01*
X91049183Y-108674647D01*
X91181646Y-108542184D01*
X91337406Y-108438109D01*
X91337407Y-108438108D01*
X91510478Y-108366420D01*
X91694206Y-108329874D01*
X91881540Y-108329874D01*
X92065268Y-108366420D01*
G37*
G36*
X108489522Y-108356420D02*
G01*
X108662593Y-108428108D01*
X108739945Y-108479793D01*
X108818354Y-108532184D01*
X108950817Y-108664647D01*
X108988427Y-108720935D01*
X109054893Y-108820408D01*
X109126581Y-108993479D01*
X109163127Y-109177207D01*
X109163127Y-109364541D01*
X109126581Y-109548269D01*
X109054893Y-109721340D01*
X109012647Y-109784566D01*
X108950817Y-109877101D01*
X108818354Y-110009564D01*
X108803386Y-110019565D01*
X108662593Y-110113640D01*
X108489522Y-110185328D01*
X108305794Y-110221874D01*
X108118460Y-110221874D01*
X107934732Y-110185328D01*
X107761661Y-110113640D01*
X107620868Y-110019565D01*
X107605900Y-110009564D01*
X107473437Y-109877101D01*
X107411607Y-109784566D01*
X107369361Y-109721340D01*
X107297673Y-109548269D01*
X107261127Y-109364541D01*
X107261127Y-109177207D01*
X107297673Y-108993479D01*
X107369361Y-108820408D01*
X107435827Y-108720935D01*
X107473437Y-108664647D01*
X107605900Y-108532184D01*
X107684309Y-108479793D01*
X107761661Y-108428108D01*
X107934732Y-108356420D01*
X108118460Y-108319874D01*
X108305794Y-108319874D01*
X108489522Y-108356420D01*
G37*
G36*
X83248228Y-108352803D02*
G01*
X83403100Y-108416953D01*
X83542481Y-108510085D01*
X83661015Y-108628619D01*
X83754147Y-108768000D01*
X83818297Y-108922872D01*
X83851000Y-109087284D01*
X83851000Y-109254916D01*
X83818297Y-109419328D01*
X83754147Y-109574200D01*
X83661015Y-109713581D01*
X83542481Y-109832115D01*
X83403100Y-109925247D01*
X83248228Y-109989397D01*
X83083816Y-110022100D01*
X82916184Y-110022100D01*
X82751772Y-109989397D01*
X82596900Y-109925247D01*
X82457519Y-109832115D01*
X82338985Y-109713581D01*
X82245853Y-109574200D01*
X82181703Y-109419328D01*
X82149000Y-109254916D01*
X82149000Y-109087284D01*
X82181703Y-108922872D01*
X82245853Y-108768000D01*
X82338985Y-108628619D01*
X82457519Y-108510085D01*
X82596900Y-108416953D01*
X82751772Y-108352803D01*
X82916184Y-108320100D01*
X83083816Y-108320100D01*
X83248228Y-108352803D01*
G37*
G36*
X94813336Y-107296421D02*
G01*
X93553032Y-108720935D01*
X92128518Y-107460631D01*
X93388822Y-106036117D01*
X94813336Y-107296421D01*
G37*
G36*
X107871482Y-107450631D02*
G01*
X106446968Y-108710935D01*
X105186664Y-107286421D01*
X106611178Y-106026117D01*
X107871482Y-107450631D01*
G37*
G36*
X88697466Y-103477932D02*
G01*
X88870537Y-103549620D01*
X88870538Y-103549621D01*
X89026298Y-103653696D01*
X89158761Y-103786159D01*
X89158762Y-103786161D01*
X89262837Y-103941920D01*
X89334525Y-104114991D01*
X89371071Y-104298719D01*
X89371071Y-104486053D01*
X89334525Y-104669781D01*
X89262837Y-104842852D01*
X89262836Y-104842853D01*
X89158761Y-104998613D01*
X89026298Y-105131076D01*
X88947889Y-105183467D01*
X88870537Y-105235152D01*
X88697466Y-105306840D01*
X88513738Y-105343386D01*
X88326404Y-105343386D01*
X88142676Y-105306840D01*
X87969605Y-105235152D01*
X87892253Y-105183467D01*
X87813844Y-105131076D01*
X87681381Y-104998613D01*
X87577306Y-104842853D01*
X87577305Y-104842852D01*
X87505617Y-104669781D01*
X87469071Y-104486053D01*
X87469071Y-104298719D01*
X87505617Y-104114991D01*
X87577305Y-103941920D01*
X87681380Y-103786161D01*
X87681381Y-103786159D01*
X87813844Y-103653696D01*
X87969604Y-103549621D01*
X87969605Y-103549620D01*
X88142676Y-103477932D01*
X88326404Y-103441386D01*
X88513738Y-103441386D01*
X88697466Y-103477932D01*
G37*
G36*
X111857324Y-103477932D02*
G01*
X112030395Y-103549620D01*
X112030396Y-103549621D01*
X112186156Y-103653696D01*
X112318619Y-103786159D01*
X112318620Y-103786161D01*
X112422695Y-103941920D01*
X112494383Y-104114991D01*
X112530929Y-104298719D01*
X112530929Y-104486053D01*
X112494383Y-104669781D01*
X112422695Y-104842852D01*
X112422694Y-104842853D01*
X112318619Y-104998613D01*
X112186156Y-105131076D01*
X112107747Y-105183467D01*
X112030395Y-105235152D01*
X111857324Y-105306840D01*
X111673596Y-105343386D01*
X111486262Y-105343386D01*
X111302534Y-105306840D01*
X111129463Y-105235152D01*
X111052111Y-105183467D01*
X110973702Y-105131076D01*
X110841239Y-104998613D01*
X110737164Y-104842853D01*
X110737163Y-104842852D01*
X110665475Y-104669781D01*
X110628929Y-104486053D01*
X110628929Y-104298719D01*
X110665475Y-104114991D01*
X110737163Y-103941920D01*
X110841238Y-103786161D01*
X110841239Y-103786159D01*
X110973702Y-103653696D01*
X111129462Y-103549621D01*
X111129463Y-103549620D01*
X111302534Y-103477932D01*
X111486262Y-103441386D01*
X111673596Y-103441386D01*
X111857324Y-103477932D01*
G37*
G36*
X109143637Y-102449623D02*
G01*
X110432197Y-102939101D01*
X109756784Y-104717140D01*
X109756783Y-104717140D01*
X109148443Y-104486053D01*
X107978745Y-104041727D01*
X108654158Y-102263688D01*
X108654159Y-102263688D01*
X109143637Y-102449623D01*
G37*
G36*
X92021255Y-104041727D02*
G01*
X90851557Y-104486053D01*
X90243217Y-104717140D01*
X90243216Y-104717140D01*
X89567803Y-102939101D01*
X90856363Y-102449623D01*
X91345841Y-102263688D01*
X91345842Y-102263688D01*
X92021255Y-104041727D01*
G37*
G36*
X91317433Y-98105216D02*
G01*
X90990423Y-99978894D01*
X89116745Y-99651884D01*
X89443755Y-97778206D01*
X91317433Y-98105216D01*
G37*
G36*
X110831560Y-99642636D02*
G01*
X108943336Y-99871136D01*
X108714836Y-97982912D01*
X110603060Y-97754412D01*
X110831560Y-99642636D01*
G37*
G36*
X112572197Y-97593172D02*
G01*
X112745268Y-97664860D01*
X112745269Y-97664861D01*
X112901029Y-97768936D01*
X113033492Y-97901399D01*
X113033493Y-97901401D01*
X113137568Y-98057160D01*
X113209256Y-98230231D01*
X113245802Y-98413959D01*
X113245802Y-98601293D01*
X113209256Y-98785021D01*
X113137568Y-98958092D01*
X113137567Y-98958093D01*
X113033492Y-99113853D01*
X112901029Y-99246316D01*
X112843710Y-99284615D01*
X112745268Y-99350392D01*
X112572197Y-99422080D01*
X112388469Y-99458626D01*
X112201135Y-99458626D01*
X112017407Y-99422080D01*
X111844336Y-99350392D01*
X111745894Y-99284615D01*
X111688575Y-99246316D01*
X111556112Y-99113853D01*
X111452037Y-98958093D01*
X111452036Y-98958092D01*
X111380348Y-98785021D01*
X111343802Y-98601293D01*
X111343802Y-98413959D01*
X111380348Y-98230231D01*
X111452036Y-98057160D01*
X111556111Y-97901401D01*
X111556112Y-97901399D01*
X111688575Y-97768936D01*
X111844335Y-97664861D01*
X111844336Y-97664860D01*
X112017407Y-97593172D01*
X112201135Y-97556626D01*
X112388469Y-97556626D01*
X112572197Y-97593172D01*
G37*
G36*
X87992306Y-97527396D02*
G01*
X88165377Y-97599084D01*
X88165378Y-97599085D01*
X88321138Y-97703160D01*
X88453601Y-97835623D01*
X88453602Y-97835625D01*
X88557677Y-97991384D01*
X88629365Y-98164455D01*
X88665911Y-98348183D01*
X88665911Y-98535517D01*
X88629365Y-98719245D01*
X88557677Y-98892316D01*
X88557676Y-98892317D01*
X88453601Y-99048077D01*
X88321138Y-99180540D01*
X88242729Y-99232931D01*
X88165377Y-99284616D01*
X87992306Y-99356304D01*
X87808578Y-99392850D01*
X87621244Y-99392850D01*
X87437516Y-99356304D01*
X87264445Y-99284616D01*
X87187093Y-99232931D01*
X87108684Y-99180540D01*
X86976221Y-99048077D01*
X86872146Y-98892317D01*
X86872145Y-98892316D01*
X86800457Y-98719245D01*
X86763911Y-98535517D01*
X86763911Y-98348183D01*
X86800457Y-98164455D01*
X86872145Y-97991384D01*
X86976220Y-97835625D01*
X86976221Y-97835623D01*
X87108684Y-97703160D01*
X87264444Y-97599085D01*
X87264445Y-97599084D01*
X87437516Y-97527396D01*
X87621244Y-97490850D01*
X87808578Y-97490850D01*
X87992306Y-97527396D01*
G37*
G36*
X91883980Y-93242234D02*
G01*
X93220705Y-94164378D01*
X93220705Y-94164379D01*
X92779798Y-94803510D01*
X92140667Y-95729984D01*
X92140666Y-95729984D01*
X91501535Y-95289077D01*
X90575061Y-94649946D01*
X90575061Y-94649945D01*
X91227950Y-93703529D01*
X91655099Y-93084340D01*
X91655100Y-93084340D01*
X91883980Y-93242234D01*
G37*
G36*
X108772050Y-93703529D02*
G01*
X109424939Y-94649945D01*
X109424939Y-94649946D01*
X108498465Y-95289077D01*
X107859334Y-95729984D01*
X107859333Y-95729984D01*
X107220202Y-94803510D01*
X106779295Y-94164379D01*
X106779295Y-94164378D01*
X108116020Y-93242234D01*
X108344900Y-93084340D01*
X108344901Y-93084340D01*
X108772050Y-93703529D01*
G37*
G36*
X90084512Y-92050384D02*
G01*
X90257583Y-92122072D01*
X90257584Y-92122073D01*
X90413344Y-92226148D01*
X90545807Y-92358611D01*
X90545808Y-92358613D01*
X90649883Y-92514372D01*
X90721571Y-92687443D01*
X90758117Y-92871171D01*
X90758117Y-93058505D01*
X90721571Y-93242233D01*
X90649883Y-93415304D01*
X90649882Y-93415305D01*
X90545807Y-93571065D01*
X90413344Y-93703528D01*
X90334935Y-93755919D01*
X90257583Y-93807604D01*
X90084512Y-93879292D01*
X89900784Y-93915838D01*
X89713450Y-93915838D01*
X89529722Y-93879292D01*
X89356651Y-93807604D01*
X89279299Y-93755919D01*
X89200890Y-93703528D01*
X89068427Y-93571065D01*
X88964352Y-93415305D01*
X88964351Y-93415304D01*
X88892663Y-93242233D01*
X88856117Y-93058505D01*
X88856117Y-92871171D01*
X88892663Y-92687443D01*
X88964351Y-92514372D01*
X89068426Y-92358613D01*
X89068427Y-92358611D01*
X89200890Y-92226148D01*
X89356650Y-92122073D01*
X89356651Y-92122072D01*
X89529722Y-92050384D01*
X89713450Y-92013838D01*
X89900784Y-92013838D01*
X90084512Y-92050384D01*
G37*
G36*
X110470278Y-92050384D02*
G01*
X110643349Y-92122072D01*
X110643350Y-92122073D01*
X110799110Y-92226148D01*
X110931573Y-92358611D01*
X110931574Y-92358613D01*
X111035649Y-92514372D01*
X111107337Y-92687443D01*
X111143883Y-92871171D01*
X111143883Y-93058505D01*
X111107337Y-93242233D01*
X111035649Y-93415304D01*
X111035648Y-93415305D01*
X110931573Y-93571065D01*
X110799110Y-93703528D01*
X110720701Y-93755919D01*
X110643349Y-93807604D01*
X110470278Y-93879292D01*
X110286550Y-93915838D01*
X110099216Y-93915838D01*
X109915488Y-93879292D01*
X109742417Y-93807604D01*
X109665065Y-93755919D01*
X109586656Y-93703528D01*
X109454193Y-93571065D01*
X109350118Y-93415305D01*
X109350117Y-93415304D01*
X109278429Y-93242233D01*
X109241883Y-93058505D01*
X109241883Y-92871171D01*
X109278429Y-92687443D01*
X109350117Y-92514372D01*
X109454192Y-92358613D01*
X109454193Y-92358611D01*
X109586656Y-92226148D01*
X109742416Y-92122073D01*
X109742417Y-92122072D01*
X109915488Y-92050384D01*
X110099216Y-92013838D01*
X110286550Y-92013838D01*
X110470278Y-92050384D01*
G37*
G36*
X96709023Y-91682595D02*
G01*
X95025004Y-92566724D01*
X94140875Y-90882705D01*
X95824894Y-89998576D01*
X96709023Y-91682595D01*
G37*
G36*
X105859125Y-90882705D02*
G01*
X104974996Y-92566724D01*
X103290977Y-91682595D01*
X104175106Y-89998576D01*
X105859125Y-90882705D01*
G37*
G36*
X100951000Y-91106000D02*
G01*
X99049000Y-91106000D01*
X99049000Y-89204000D01*
X100951000Y-89204000D01*
X100951000Y-91106000D01*
G37*
G36*
X106033144Y-88119296D02*
G01*
X106206215Y-88190984D01*
X106206216Y-88190985D01*
X106361976Y-88295060D01*
X106494439Y-88427523D01*
X106546830Y-88505932D01*
X106598515Y-88583284D01*
X106670203Y-88756355D01*
X106706749Y-88940083D01*
X106706749Y-89127417D01*
X106670203Y-89311145D01*
X106598515Y-89484216D01*
X106546830Y-89561568D01*
X106494439Y-89639977D01*
X106361976Y-89772440D01*
X106283567Y-89824831D01*
X106206215Y-89876516D01*
X106033144Y-89948204D01*
X105849416Y-89984750D01*
X105662082Y-89984750D01*
X105478354Y-89948204D01*
X105305283Y-89876516D01*
X105227931Y-89824831D01*
X105149522Y-89772440D01*
X105017059Y-89639977D01*
X104964668Y-89561568D01*
X104912983Y-89484216D01*
X104841295Y-89311145D01*
X104804749Y-89127417D01*
X104804749Y-88940083D01*
X104841295Y-88756355D01*
X104912983Y-88583284D01*
X104964668Y-88505932D01*
X105017059Y-88427523D01*
X105149522Y-88295060D01*
X105305282Y-88190985D01*
X105305283Y-88190984D01*
X105478354Y-88119296D01*
X105662082Y-88082750D01*
X105849416Y-88082750D01*
X106033144Y-88119296D01*
G37*
G36*
X94521646Y-88119296D02*
G01*
X94694717Y-88190984D01*
X94694718Y-88190985D01*
X94850478Y-88295060D01*
X94982941Y-88427523D01*
X95035332Y-88505932D01*
X95087017Y-88583284D01*
X95158705Y-88756355D01*
X95195251Y-88940083D01*
X95195251Y-89127417D01*
X95158705Y-89311145D01*
X95087017Y-89484216D01*
X95035332Y-89561568D01*
X94982941Y-89639977D01*
X94850478Y-89772440D01*
X94772069Y-89824831D01*
X94694717Y-89876516D01*
X94521646Y-89948204D01*
X94337918Y-89984750D01*
X94150584Y-89984750D01*
X93966856Y-89948204D01*
X93793785Y-89876516D01*
X93716433Y-89824831D01*
X93638024Y-89772440D01*
X93505561Y-89639977D01*
X93453170Y-89561568D01*
X93401485Y-89484216D01*
X93329797Y-89311145D01*
X93293251Y-89127417D01*
X93293251Y-88940083D01*
X93329797Y-88756355D01*
X93401485Y-88583284D01*
X93453170Y-88505932D01*
X93505561Y-88427523D01*
X93638024Y-88295060D01*
X93793784Y-88190985D01*
X93793785Y-88190984D01*
X93966856Y-88119296D01*
X94150584Y-88082750D01*
X94337918Y-88082750D01*
X94521646Y-88119296D01*
G37*
G36*
X115248228Y-88010653D02*
G01*
X115403100Y-88074803D01*
X115542481Y-88167935D01*
X115661015Y-88286469D01*
X115754147Y-88425850D01*
X115818297Y-88580722D01*
X115851000Y-88745134D01*
X115851000Y-88912766D01*
X115818297Y-89077178D01*
X115754147Y-89232050D01*
X115661015Y-89371431D01*
X115542481Y-89489965D01*
X115403100Y-89583097D01*
X115248228Y-89647247D01*
X115083816Y-89679950D01*
X114916184Y-89679950D01*
X114751772Y-89647247D01*
X114596900Y-89583097D01*
X114457519Y-89489965D01*
X114338985Y-89371431D01*
X114245853Y-89232050D01*
X114181703Y-89077178D01*
X114149000Y-88912766D01*
X114149000Y-88745134D01*
X114181703Y-88580722D01*
X114245853Y-88425850D01*
X114338985Y-88286469D01*
X114457519Y-88167935D01*
X114596900Y-88074803D01*
X114751772Y-88010653D01*
X114916184Y-87977950D01*
X115083816Y-87977950D01*
X115248228Y-88010653D01*
G37*
G36*
X100277395Y-86700546D02*
G01*
X100450466Y-86772234D01*
X100450467Y-86772235D01*
X100606227Y-86876310D01*
X100738690Y-87008773D01*
X100738691Y-87008775D01*
X100842766Y-87164534D01*
X100914454Y-87337605D01*
X100951000Y-87521333D01*
X100951000Y-87708667D01*
X100914454Y-87892395D01*
X100842766Y-88065466D01*
X100842765Y-88065467D01*
X100738690Y-88221227D01*
X100606227Y-88353690D01*
X100527818Y-88406081D01*
X100450466Y-88457766D01*
X100277395Y-88529454D01*
X100093667Y-88566000D01*
X99906333Y-88566000D01*
X99722605Y-88529454D01*
X99549534Y-88457766D01*
X99472182Y-88406081D01*
X99393773Y-88353690D01*
X99261310Y-88221227D01*
X99157235Y-88065467D01*
X99157234Y-88065466D01*
X99085546Y-87892395D01*
X99049000Y-87708667D01*
X99049000Y-87521333D01*
X99085546Y-87337605D01*
X99157234Y-87164534D01*
X99261309Y-87008775D01*
X99261310Y-87008773D01*
X99393773Y-86876310D01*
X99549533Y-86772235D01*
X99549534Y-86772234D01*
X99722605Y-86700546D01*
X99906333Y-86664000D01*
X100093667Y-86664000D01*
X100277395Y-86700546D01*
G37*
M02*
