G04 #@! TF.GenerationSoftware,KiCad,Pcbnew,(5.1.5)-3*
G04 #@! TF.CreationDate,2020-05-18T23:05:03-04:00*
G04 #@! TF.ProjectId,Union_Circle,556e696f-6e5f-4436-9972-636c652e6b69,rev?*
G04 #@! TF.SameCoordinates,Original*
G04 #@! TF.FileFunction,Legend,Top*
G04 #@! TF.FilePolarity,Positive*
%FSLAX46Y46*%
G04 Gerber Fmt 4.6, Leading zero omitted, Abs format (unit mm)*
G04 Created by KiCad (PCBNEW (5.1.5)-3) date 2020-05-18 23:05:03*
%MOMM*%
%LPD*%
G04 APERTURE LIST*
%ADD10C,0.120000*%
%ADD11C,0.150000*%
%ADD12C,1.702000*%
%ADD13C,1.902000*%
%ADD14R,1.902000X1.902000*%
%ADD15C,0.100000*%
G04 APERTURE END LIST*
D10*
X101079837Y-87843870D02*
G75*
G02X101080000Y-89925961I-1079837J-1041130D01*
G01*
X98920163Y-87843870D02*
G75*
G03X98920000Y-89925961I1079837J-1041130D01*
G01*
X101078608Y-87212665D02*
G75*
G02X101235516Y-90445000I-1078608J-1672335D01*
G01*
X98921392Y-87212665D02*
G75*
G03X98764484Y-90445000I1078608J-1672335D01*
G01*
X101080000Y-90445000D02*
X101236000Y-90445000D01*
X98764000Y-90445000D02*
X98920000Y-90445000D01*
X106605442Y-89738344D02*
G75*
G02X105637743Y-91581890I-1440042J-419856D01*
G01*
X104693280Y-88734436D02*
G75*
G03X103725292Y-90577831I472120J-1423764D01*
G01*
X106897765Y-89178908D02*
G75*
G02X105534164Y-92113734I-1732365J-979292D01*
G01*
X104987779Y-88176143D02*
G75*
G03X103346328Y-90965094I177621J-1982057D01*
G01*
X105396472Y-92041443D02*
X105534593Y-92113959D01*
X103345900Y-90964869D02*
X103484021Y-91037385D01*
X107161552Y-93554440D02*
X107250136Y-93682849D01*
X108476679Y-95460824D02*
X108565262Y-95589233D01*
X109911579Y-91848533D02*
G75*
G03X107161827Y-93554838I-764079J-1837467D01*
G01*
X111136541Y-93624217D02*
G75*
G02X108564987Y-95588834I-1989041J-61783D01*
G01*
X109391313Y-92205948D02*
G75*
G03X107677376Y-93388116I-243813J-1480052D01*
G01*
X110617671Y-93983654D02*
G75*
G02X108903918Y-95166090I-1470171J297654D01*
G01*
X109336809Y-97620565D02*
X109355551Y-97775436D01*
X109615046Y-99919791D02*
X109633788Y-100074662D01*
X112564642Y-97388495D02*
G75*
G03X109336868Y-97621046I-1530642J-1271705D01*
G01*
X112823803Y-99530087D02*
G75*
G02X109633730Y-100074181I-1789803J869887D01*
G01*
X111937861Y-97463107D02*
G75*
G03X109870831Y-97713080I-903861J-1197093D01*
G01*
X112197318Y-99607138D02*
G75*
G02X110130326Y-99857436I-1163318J946938D01*
G01*
X109373284Y-102231989D02*
X109317887Y-102377821D01*
X108550856Y-104397045D02*
X108495460Y-104542878D01*
X112339063Y-103526947D02*
G75*
G03X109373112Y-102232441I-1946363J-414453D01*
G01*
X111573020Y-105543569D02*
G75*
G02X108495632Y-104542425I-1180320J1602169D01*
G01*
X111749433Y-103301653D02*
G75*
G03X109803098Y-102562136I-1356733J-639747D01*
G01*
X110982517Y-105320572D02*
G75*
G02X109036067Y-104581359I-589817J1379172D01*
G01*
X107251723Y-109814982D02*
G75*
G02X105871966Y-108255696I118877J1495282D01*
G01*
X108869224Y-108383939D02*
G75*
G03X107489711Y-106824437I-1498624J64239D01*
G01*
X107670893Y-110286912D02*
G75*
G02X105411566Y-107970007I-300293J1967212D01*
G01*
X109286552Y-108857498D02*
G75*
G03X107262260Y-106332651I-1915952J537798D01*
G01*
X105528041Y-107866959D02*
X105411203Y-107970327D01*
X107262622Y-106332331D02*
X107145785Y-106435699D01*
X101861893Y-112062049D02*
G75*
G02X101361558Y-110040968I798107J1270049D01*
G01*
X103958324Y-111543235D02*
G75*
G03X103458306Y-109522076I-1298324J751235D01*
G01*
X102014719Y-112674474D02*
G75*
G02X101085909Y-109574488I645281J1882474D01*
G01*
X104108765Y-112156251D02*
G75*
G03X103484580Y-108980877I-1448765J1364251D01*
G01*
X101236870Y-109537129D02*
X101085439Y-109574604D01*
X103485050Y-108980760D02*
X103333618Y-109018236D01*
X96042989Y-111545500D02*
G75*
G02X96539479Y-109523471I1297011J753500D01*
G01*
X98140323Y-112060654D02*
G75*
G03X98637129Y-110038703I-800323J1268654D01*
G01*
X95893619Y-112158778D02*
G75*
G02X96512260Y-108982319I1446381J1366778D01*
G01*
X97988566Y-112673346D02*
G75*
G03X98911964Y-109571742I-648566J1881346D01*
G01*
X96663287Y-109019414D02*
X96511790Y-108982203D01*
X98912434Y-109571858D02*
X98760937Y-109534647D01*
X94588797Y-107980327D02*
X94471959Y-107876959D01*
X92854215Y-106445699D02*
X92737378Y-106342331D01*
X92329107Y-110296912D02*
G75*
G03X94588434Y-107980007I300293J1967212D01*
G01*
X90713448Y-108867498D02*
G75*
G02X92737740Y-106342651I1915952J537798D01*
G01*
X92748277Y-109824982D02*
G75*
G03X94128034Y-108265696I-118877J1495282D01*
G01*
X91130776Y-108393939D02*
G75*
G02X92510289Y-106834437I1498624J64239D01*
G01*
X91504540Y-104542878D02*
X91449144Y-104397045D01*
X90682113Y-102377821D02*
X90626716Y-102231989D01*
X88426980Y-105543569D02*
G75*
G03X91504368Y-104542425I1180320J1602169D01*
G01*
X87660937Y-103526947D02*
G75*
G02X90626888Y-102232441I1946363J-414453D01*
G01*
X89017483Y-105320572D02*
G75*
G03X90963933Y-104581359I589817J1379172D01*
G01*
X88250567Y-103301653D02*
G75*
G02X90196902Y-102562136I1356733J-639747D01*
G01*
X90290266Y-100146005D02*
X90317087Y-99992327D01*
X90688454Y-97864491D02*
X90715275Y-97710814D01*
X87133123Y-99435224D02*
G75*
G03X90290349Y-100145528I1832877J775024D01*
G01*
X87504012Y-97310130D02*
G75*
G02X90715192Y-97711291I1461988J-1350070D01*
G01*
X87754718Y-99544957D02*
G75*
G03X89805777Y-99903090I1211282J884757D01*
G01*
X88126028Y-97417442D02*
G75*
G02X90177144Y-97775253I839972J-1242758D01*
G01*
X90608687Y-92205948D02*
G75*
G02X92322624Y-93388116I243813J-1480052D01*
G01*
X89382329Y-93983654D02*
G75*
G03X91096082Y-95166090I1470171J297654D01*
G01*
X90088421Y-91848533D02*
G75*
G02X92838173Y-93554838I764079J-1837467D01*
G01*
X88863459Y-93624217D02*
G75*
G03X91435013Y-95588834I1989041J-61783D01*
G01*
X92749864Y-93682849D02*
X92838448Y-93554440D01*
X91434738Y-95589233D02*
X91523321Y-95460824D01*
X95306720Y-88734436D02*
G75*
G02X96274708Y-90577831I-472120J-1423764D01*
G01*
X93394558Y-89738344D02*
G75*
G03X94362257Y-91581890I1440042J-419856D01*
G01*
X95012221Y-88176143D02*
G75*
G02X96653672Y-90965094I-177621J-1982057D01*
G01*
X93102235Y-89178908D02*
G75*
G03X94465836Y-92113734I1732365J-979292D01*
G01*
X96515979Y-91037385D02*
X96654100Y-90964869D01*
X94465407Y-92113959D02*
X94603528Y-92041443D01*
D11*
X99261904Y-92385380D02*
X99261904Y-91385380D01*
X99500000Y-91385380D01*
X99642857Y-91433000D01*
X99738095Y-91528238D01*
X99785714Y-91623476D01*
X99833333Y-91813952D01*
X99833333Y-91956809D01*
X99785714Y-92147285D01*
X99738095Y-92242523D01*
X99642857Y-92337761D01*
X99500000Y-92385380D01*
X99261904Y-92385380D01*
X100785714Y-92385380D02*
X100214285Y-92385380D01*
X100500000Y-92385380D02*
X100500000Y-91385380D01*
X100404761Y-91528238D01*
X100309523Y-91623476D01*
X100214285Y-91671095D01*
X102884770Y-92914317D02*
X103349612Y-92028923D01*
X103560420Y-92139600D01*
X103664770Y-92248168D01*
X103704822Y-92376762D01*
X103702713Y-92483220D01*
X103656333Y-92674002D01*
X103589927Y-92800487D01*
X103459224Y-92946998D01*
X103372792Y-93009186D01*
X103244198Y-93049238D01*
X103095578Y-93024994D01*
X102884770Y-92914317D01*
X104148573Y-92555953D02*
X104212870Y-92535927D01*
X104319329Y-92538036D01*
X104530137Y-92648713D01*
X104592325Y-92735145D01*
X104612351Y-92799442D01*
X104610242Y-92905901D01*
X104565971Y-92990224D01*
X104457404Y-93094573D01*
X103685840Y-93334888D01*
X104233941Y-93622648D01*
X105847086Y-95066116D02*
X106670222Y-94498272D01*
X106805423Y-94694257D01*
X106847346Y-94838888D01*
X106823033Y-94971363D01*
X106771679Y-95064640D01*
X106641931Y-95211998D01*
X106524340Y-95293118D01*
X106340512Y-95362082D01*
X106235078Y-95376965D01*
X106102604Y-95352652D01*
X105982286Y-95262101D01*
X105847086Y-95066116D01*
X107183985Y-95243015D02*
X107535508Y-95752575D01*
X107032651Y-95694518D01*
X107113771Y-95812109D01*
X107128655Y-95917543D01*
X107116498Y-95983780D01*
X107065144Y-96077058D01*
X106869159Y-96212258D01*
X106763725Y-96227142D01*
X106697488Y-96214985D01*
X106604211Y-96163631D01*
X106441969Y-95928449D01*
X106427086Y-95823015D01*
X106439243Y-95756778D01*
X107470299Y-98347975D02*
X108463056Y-98227838D01*
X108491660Y-98464209D01*
X108461548Y-98611752D01*
X108378441Y-98717742D01*
X108289614Y-98776458D01*
X108106238Y-98846615D01*
X107964416Y-98863777D01*
X107769598Y-98839386D01*
X107669329Y-98803554D01*
X107563339Y-98720447D01*
X107498903Y-98584345D01*
X107470299Y-98347975D01*
X108303761Y-99686108D02*
X107641923Y-99766199D01*
X108653350Y-99403971D02*
X107915634Y-99253412D01*
X107990004Y-99867976D01*
X107704145Y-103709668D02*
X106769319Y-103354561D01*
X106853869Y-103131983D01*
X106949114Y-103015346D01*
X107071964Y-102960135D01*
X107177905Y-102949439D01*
X107372877Y-102972563D01*
X107506424Y-103023293D01*
X107667576Y-103135448D01*
X107739697Y-103213783D01*
X107794908Y-103336634D01*
X107788694Y-103487090D01*
X107704145Y-103709668D01*
X107293525Y-101974580D02*
X107124426Y-102419735D01*
X107552672Y-102633349D01*
X107525066Y-102571924D01*
X107514370Y-102465983D01*
X107598919Y-102243405D01*
X107677255Y-102171284D01*
X107738680Y-102143678D01*
X107844621Y-102132983D01*
X108067198Y-102217532D01*
X108139320Y-102295867D01*
X108166925Y-102357292D01*
X108177621Y-102463233D01*
X108093072Y-102685811D01*
X108014737Y-102757932D01*
X107953311Y-102785538D01*
X105097890Y-106864773D02*
X104435269Y-106115817D01*
X104613592Y-105958050D01*
X104752139Y-105899055D01*
X104886575Y-105907277D01*
X104985346Y-105947053D01*
X105147224Y-106058158D01*
X105241884Y-106165151D01*
X105332433Y-106339363D01*
X105359875Y-106442245D01*
X105351653Y-106576681D01*
X105276212Y-106707006D01*
X105097890Y-106864773D01*
X105505206Y-105169217D02*
X105362548Y-105295430D01*
X105322772Y-105394201D01*
X105318661Y-105461419D01*
X105341992Y-105631520D01*
X105432541Y-105805731D01*
X105684967Y-106091048D01*
X105783739Y-106130823D01*
X105850956Y-106134935D01*
X105953839Y-106107492D01*
X106096497Y-105981279D01*
X106136273Y-105882508D01*
X106140384Y-105815290D01*
X106112942Y-105712408D01*
X105955175Y-105534085D01*
X105856404Y-105494309D01*
X105789186Y-105490198D01*
X105686304Y-105517640D01*
X105543646Y-105643853D01*
X105503870Y-105742624D01*
X105499759Y-105809842D01*
X105527201Y-105912725D01*
X101319978Y-108449700D02*
X101079750Y-107478984D01*
X101310873Y-107421787D01*
X101460986Y-107433693D01*
X101576314Y-107503263D01*
X101645418Y-107584273D01*
X101737400Y-107757732D01*
X101771718Y-107896406D01*
X101771251Y-108092744D01*
X101747906Y-108196632D01*
X101678335Y-108311960D01*
X101551101Y-108392503D01*
X101319978Y-108449700D01*
X101958017Y-107261635D02*
X102605161Y-107101483D01*
X102429368Y-108175154D01*
X97242352Y-108095245D02*
X97480885Y-107124110D01*
X97712108Y-107180904D01*
X97839483Y-107261225D01*
X97909254Y-107376431D01*
X97932781Y-107480279D01*
X97933591Y-107676616D01*
X97899514Y-107815349D01*
X97807835Y-107988968D01*
X97738873Y-108070099D01*
X97623667Y-108139870D01*
X97473574Y-108152038D01*
X97242352Y-108095245D01*
X98488525Y-107812921D02*
X98407394Y-107743959D01*
X98372509Y-107686355D01*
X98348981Y-107582508D01*
X98360340Y-107536263D01*
X98429302Y-107455133D01*
X98486905Y-107420247D01*
X98590753Y-107396720D01*
X98775731Y-107442155D01*
X98856861Y-107511117D01*
X98891747Y-107568720D01*
X98915274Y-107672568D01*
X98903915Y-107718812D01*
X98834953Y-107799943D01*
X98777350Y-107834828D01*
X98673502Y-107858355D01*
X98488525Y-107812921D01*
X98384677Y-107836448D01*
X98327074Y-107871333D01*
X98258112Y-107952464D01*
X98212677Y-108137442D01*
X98236204Y-108241289D01*
X98271089Y-108298892D01*
X98352220Y-108367854D01*
X98537198Y-108413289D01*
X98641045Y-108389762D01*
X98698649Y-108354877D01*
X98767611Y-108273746D01*
X98813045Y-108088768D01*
X98789518Y-107984921D01*
X98754633Y-107927317D01*
X98673502Y-107858355D01*
X93796508Y-105896619D02*
X94459128Y-105147663D01*
X94637451Y-105305430D01*
X94712891Y-105435755D01*
X94721114Y-105570190D01*
X94693672Y-105673073D01*
X94603123Y-105847284D01*
X94508463Y-105954278D01*
X94346585Y-106065383D01*
X94247814Y-106105159D01*
X94113378Y-106113381D01*
X93974831Y-106054386D01*
X93796508Y-105896619D01*
X94581128Y-106590792D02*
X94723787Y-106717006D01*
X94826669Y-106744448D01*
X94893887Y-106740337D01*
X95059876Y-106696450D01*
X95221754Y-106585345D01*
X95474181Y-106300028D01*
X95501623Y-106197146D01*
X95497512Y-106129928D01*
X95457736Y-106031157D01*
X95315078Y-105904943D01*
X95212195Y-105877501D01*
X95144977Y-105881613D01*
X95046206Y-105921388D01*
X94888439Y-106099711D01*
X94860997Y-106202594D01*
X94865108Y-106269811D01*
X94904884Y-106368583D01*
X95047542Y-106494796D01*
X95150425Y-106522238D01*
X95217643Y-106518127D01*
X95316414Y-106478351D01*
X91602550Y-101884532D02*
X92537376Y-101529425D01*
X92621925Y-101752002D01*
X92628139Y-101902459D01*
X92572928Y-102025309D01*
X92500806Y-102103645D01*
X92339654Y-102215799D01*
X92206108Y-102266529D01*
X92011136Y-102289653D01*
X91905195Y-102278957D01*
X91782344Y-102223746D01*
X91687099Y-102107109D01*
X91602550Y-101884532D01*
X92143665Y-103309028D02*
X91940747Y-102774842D01*
X92042206Y-103041935D02*
X92977032Y-102686828D01*
X92809666Y-102648526D01*
X92686815Y-102593315D01*
X92608480Y-102521194D01*
X93298319Y-103532623D02*
X93332139Y-103621654D01*
X93321443Y-103727594D01*
X93293837Y-103789020D01*
X93221716Y-103867355D01*
X93060564Y-103979510D01*
X92837986Y-104064059D01*
X92643015Y-104087183D01*
X92537074Y-104076487D01*
X92475648Y-104048882D01*
X92397313Y-103976761D01*
X92363493Y-103887730D01*
X92374189Y-103781789D01*
X92401795Y-103720363D01*
X92473916Y-103642028D01*
X92635068Y-103529873D01*
X92857646Y-103445324D01*
X93052618Y-103422200D01*
X93158558Y-103432896D01*
X93219984Y-103460501D01*
X93298319Y-103532623D01*
X92205486Y-100458221D02*
X91220377Y-100286292D01*
X91261312Y-100051742D01*
X91332784Y-99919199D01*
X91442978Y-99841754D01*
X91544985Y-99811218D01*
X91740812Y-99797056D01*
X91881542Y-99821618D01*
X92060994Y-99901276D01*
X92146627Y-99964560D01*
X92224073Y-100074754D01*
X92246422Y-100223671D01*
X92205486Y-100458221D01*
X92467473Y-98957102D02*
X92369228Y-99520022D01*
X92418351Y-99238562D02*
X91433241Y-99066633D01*
X91557597Y-99185014D01*
X91635043Y-99295208D01*
X91665579Y-99397215D01*
X92631215Y-98018903D02*
X92532970Y-98581822D01*
X92582093Y-98300363D02*
X91596983Y-98128434D01*
X91721339Y-98246815D01*
X91798785Y-98357009D01*
X91829321Y-98459016D01*
X93044266Y-96673192D02*
X92221130Y-96105348D01*
X92356331Y-95909363D01*
X92476648Y-95818813D01*
X92609122Y-95794499D01*
X92714557Y-95809382D01*
X92898385Y-95878346D01*
X93015976Y-95959467D01*
X93145723Y-96106824D01*
X93197077Y-96200102D01*
X93221391Y-96332576D01*
X93179467Y-96477207D01*
X93044266Y-96673192D01*
X93909552Y-95418889D02*
X93585070Y-95889253D01*
X93747311Y-95654071D02*
X92924174Y-95086227D01*
X92987685Y-95245741D01*
X93011999Y-95378216D01*
X92997115Y-95483650D01*
X93381131Y-94591550D02*
X93368974Y-94525313D01*
X93383857Y-94419878D01*
X93519058Y-94223894D01*
X93612336Y-94172540D01*
X93678573Y-94160383D01*
X93784007Y-94175266D01*
X93862401Y-94229347D01*
X93952952Y-94349664D01*
X94098833Y-95144510D01*
X94450355Y-94634949D01*
X95386603Y-93821866D02*
X94921761Y-92936472D01*
X95132569Y-92825795D01*
X95281189Y-92801551D01*
X95409783Y-92841604D01*
X95496216Y-92903791D01*
X95626919Y-93050303D01*
X95693325Y-93176787D01*
X95739704Y-93367569D01*
X95741813Y-93474028D01*
X95701761Y-93602621D01*
X95597411Y-93711189D01*
X95386603Y-93821866D01*
X96735775Y-93113535D02*
X96229835Y-93379159D01*
X96482805Y-93246347D02*
X96017963Y-92360953D01*
X96000046Y-92531709D01*
X95959993Y-92660303D01*
X95897805Y-92746735D01*
X96566064Y-92073194D02*
X97114165Y-91785435D01*
X96996116Y-92277675D01*
X97122601Y-92211269D01*
X97229059Y-92209160D01*
X97293356Y-92229186D01*
X97379789Y-92291374D01*
X97490465Y-92502182D01*
X97492574Y-92608640D01*
X97472548Y-92672937D01*
X97410360Y-92759370D01*
X97157391Y-92892182D01*
X97050932Y-92894291D01*
X96986635Y-92874264D01*
%LPC*%
D12*
X115000000Y-88828950D03*
X116464466Y-110635566D03*
X83000000Y-109171100D03*
D13*
X100000000Y-87615000D03*
D14*
X100000000Y-90155000D03*
D13*
X105755749Y-89033750D03*
D15*
G36*
X104974996Y-92566724D02*
G01*
X103290977Y-91682595D01*
X104175106Y-89998576D01*
X105859125Y-90882705D01*
X104974996Y-92566724D01*
G37*
G36*
X107859334Y-95729984D02*
G01*
X106779295Y-94164379D01*
X108344900Y-93084340D01*
X109424939Y-94649945D01*
X107859334Y-95729984D01*
G37*
D13*
X110192883Y-92964838D03*
D15*
G36*
X108943336Y-99871136D02*
G01*
X108714836Y-97982912D01*
X110603060Y-97754412D01*
X110831560Y-99642636D01*
X108943336Y-99871136D01*
G37*
D13*
X112294802Y-98507626D03*
D15*
G36*
X107978745Y-104041726D02*
G01*
X108654159Y-102263688D01*
X110432197Y-102939102D01*
X109756783Y-104717140D01*
X107978745Y-104041726D01*
G37*
D13*
X111579929Y-104392386D03*
X108212127Y-109270874D03*
D15*
G36*
X105186664Y-107286421D02*
G01*
X106611178Y-106026117D01*
X107871482Y-107450631D01*
X106446968Y-108710935D01*
X105186664Y-107286421D01*
G37*
D13*
X102965090Y-112024810D03*
D15*
G36*
X101203302Y-108864495D02*
G01*
X103049605Y-108407582D01*
X103506518Y-110253885D01*
X101660215Y-110710798D01*
X101203302Y-108864495D01*
G37*
D13*
X97037063Y-112025341D03*
D15*
G36*
X96946234Y-108408265D02*
G01*
X98793331Y-108861956D01*
X98339640Y-110709053D01*
X96492543Y-110255362D01*
X96946234Y-108408265D01*
G37*
G36*
X93388822Y-106036117D02*
G01*
X94813336Y-107296421D01*
X93553032Y-108720935D01*
X92128518Y-107460631D01*
X93388822Y-106036117D01*
G37*
D13*
X91787873Y-109280874D03*
D15*
G36*
X91345841Y-102263688D02*
G01*
X92021255Y-104041726D01*
X90243217Y-104717140D01*
X89567803Y-102939102D01*
X91345841Y-102263688D01*
G37*
D13*
X88420071Y-104392386D03*
D15*
G36*
X91317433Y-98105216D02*
G01*
X90990423Y-99978894D01*
X89116745Y-99651884D01*
X89443755Y-97778206D01*
X91317433Y-98105216D01*
G37*
D13*
X87714911Y-98441850D03*
X89807117Y-92964838D03*
D15*
G36*
X93220705Y-94164379D02*
G01*
X92140666Y-95729984D01*
X90575061Y-94649945D01*
X91655100Y-93084340D01*
X93220705Y-94164379D01*
G37*
D13*
X94244251Y-89033750D03*
D15*
G36*
X96709023Y-91682595D02*
G01*
X95025004Y-92566724D01*
X94140875Y-90882705D01*
X95824894Y-89998576D01*
X96709023Y-91682595D01*
G37*
M02*
