%FSLAX45Y45*%
G04 Gerber Fmt 4.5, Leading zero omitted, Abs format (unit mm)*
G04 Created by KiCad (PCBNEW (5.1.5)-3) date 2020-05-18 23:05:06*
%MOMM*%
%LPD*%
G04 APERTURE LIST*
%TA.AperFunction,Profile*%
%ADD10C,0.050000*%
%TD*%
%ADD11C,0.200000*%
%ADD12C,0.300000*%
G04 APERTURE END LIST*
D10*
X12000000Y-8582895D02*
X8000000Y-8582895D01*
X12000000Y-8582895D02*
X12000000Y-11417110D01*
X8000000Y-11417110D02*
X12000000Y-11417110D01*
X8000000Y-8582895D02*
X8000000Y-11417110D01*
D11*
D12*
X8283928Y-11885324D02*
X8283928Y-11585324D01*
X8355357Y-11585324D01*
X8398214Y-11599610D01*
X8426786Y-11628181D01*
X8441071Y-11656753D01*
X8455357Y-11713896D01*
X8455357Y-11756753D01*
X8441071Y-11813896D01*
X8426786Y-11842467D01*
X8398214Y-11871039D01*
X8355357Y-11885324D01*
X8283928Y-11885324D01*
X8583928Y-11885324D02*
X8583928Y-11685324D01*
X8583928Y-11742467D02*
X8598214Y-11713896D01*
X8612500Y-11699610D01*
X8641071Y-11685324D01*
X8669643Y-11685324D01*
X8769643Y-11885324D02*
X8769643Y-11685324D01*
X8769643Y-11585324D02*
X8755357Y-11599610D01*
X8769643Y-11613896D01*
X8783928Y-11599610D01*
X8769643Y-11585324D01*
X8769643Y-11613896D01*
X8955357Y-11885324D02*
X8926786Y-11871039D01*
X8912500Y-11842467D01*
X8912500Y-11585324D01*
X9112500Y-11885324D02*
X9083928Y-11871039D01*
X9069643Y-11842467D01*
X9069643Y-11585324D01*
X9455357Y-11885324D02*
X9455357Y-11585324D01*
X9555357Y-11799610D01*
X9655357Y-11585324D01*
X9655357Y-11885324D01*
X9926786Y-11885324D02*
X9926786Y-11728181D01*
X9912500Y-11699610D01*
X9883928Y-11685324D01*
X9826786Y-11685324D01*
X9798214Y-11699610D01*
X9926786Y-11871039D02*
X9898214Y-11885324D01*
X9826786Y-11885324D01*
X9798214Y-11871039D01*
X9783928Y-11842467D01*
X9783928Y-11813896D01*
X9798214Y-11785324D01*
X9826786Y-11771039D01*
X9898214Y-11771039D01*
X9926786Y-11756753D01*
X10069643Y-11685324D02*
X10069643Y-11985324D01*
X10069643Y-11699610D02*
X10098214Y-11685324D01*
X10155357Y-11685324D01*
X10183928Y-11699610D01*
X10198214Y-11713896D01*
X10212500Y-11742467D01*
X10212500Y-11828181D01*
X10198214Y-11856753D01*
X10183928Y-11871039D01*
X10155357Y-11885324D01*
X10098214Y-11885324D01*
X10069643Y-11871039D01*
X10341071Y-11856753D02*
X10355357Y-11871039D01*
X10341071Y-11885324D01*
X10326786Y-11871039D01*
X10341071Y-11856753D01*
X10341071Y-11885324D01*
X10341071Y-11699610D02*
X10355357Y-11713896D01*
X10341071Y-11728181D01*
X10326786Y-11713896D01*
X10341071Y-11699610D01*
X10341071Y-11728181D01*
M02*
