G04 #@! TF.GenerationSoftware,KiCad,Pcbnew,(5.1.5)-3*
G04 #@! TF.CreationDate,2020-05-18T23:05:03-04:00*
G04 #@! TF.ProjectId,Union_Circle,556e696f-6e5f-4436-9972-636c652e6b69,rev?*
G04 #@! TF.SameCoordinates,Original*
G04 #@! TF.FileFunction,Legend,Bot*
G04 #@! TF.FilePolarity,Positive*
%FSLAX46Y46*%
G04 Gerber Fmt 4.6, Leading zero omitted, Abs format (unit mm)*
G04 Created by KiCad (PCBNEW (5.1.5)-3) date 2020-05-18 23:05:03*
%MOMM*%
%LPD*%
G04 APERTURE LIST*
%ADD10C,0.150000*%
%ADD11C,0.010000*%
%ADD12C,1.702000*%
%ADD13C,1.902000*%
%ADD14R,1.902000X1.902000*%
%ADD15C,0.100000*%
G04 APERTURE END LIST*
D10*
X119070380Y-90023809D02*
X119070380Y-90214285D01*
X119022761Y-90309523D01*
X118975142Y-90357142D01*
X118832285Y-90452380D01*
X118641809Y-90500000D01*
X118260857Y-90500000D01*
X118165619Y-90452380D01*
X118118000Y-90404761D01*
X118070380Y-90309523D01*
X118070380Y-90119047D01*
X118118000Y-90023809D01*
X118165619Y-89976190D01*
X118260857Y-89928571D01*
X118498952Y-89928571D01*
X118594190Y-89976190D01*
X118641809Y-90023809D01*
X118689428Y-90119047D01*
X118689428Y-90309523D01*
X118641809Y-90404761D01*
X118594190Y-90452380D01*
X118498952Y-90500000D01*
X118070380Y-91119047D02*
X118070380Y-91214285D01*
X118118000Y-91309523D01*
X118165619Y-91357142D01*
X118260857Y-91404761D01*
X118451333Y-91452380D01*
X118689428Y-91452380D01*
X118879904Y-91404761D01*
X118975142Y-91357142D01*
X119022761Y-91309523D01*
X119070380Y-91214285D01*
X119070380Y-91119047D01*
X119022761Y-91023809D01*
X118975142Y-90976190D01*
X118879904Y-90928571D01*
X118689428Y-90880952D01*
X118451333Y-90880952D01*
X118260857Y-90928571D01*
X118165619Y-90976190D01*
X118118000Y-91023809D01*
X118070380Y-91119047D01*
X118070380Y-91785714D02*
X118070380Y-92404761D01*
X118451333Y-92071428D01*
X118451333Y-92214285D01*
X118498952Y-92309523D01*
X118546571Y-92357142D01*
X118641809Y-92404761D01*
X118879904Y-92404761D01*
X118975142Y-92357142D01*
X119022761Y-92309523D01*
X119070380Y-92214285D01*
X119070380Y-91928571D01*
X119022761Y-91833333D01*
X118975142Y-91785714D01*
X118070380Y-92738095D02*
X118070380Y-93357142D01*
X118451333Y-93023809D01*
X118451333Y-93166666D01*
X118498952Y-93261904D01*
X118546571Y-93309523D01*
X118641809Y-93357142D01*
X118879904Y-93357142D01*
X118975142Y-93309523D01*
X119022761Y-93261904D01*
X119070380Y-93166666D01*
X119070380Y-92880952D01*
X119022761Y-92785714D01*
X118975142Y-92738095D01*
X118975142Y-93785714D02*
X119022761Y-93833333D01*
X119070380Y-93785714D01*
X119022761Y-93738095D01*
X118975142Y-93785714D01*
X119070380Y-93785714D01*
X118975142Y-94833333D02*
X119022761Y-94785714D01*
X119070380Y-94642857D01*
X119070380Y-94547619D01*
X119022761Y-94404761D01*
X118927523Y-94309523D01*
X118832285Y-94261904D01*
X118641809Y-94214285D01*
X118498952Y-94214285D01*
X118308476Y-94261904D01*
X118213238Y-94309523D01*
X118118000Y-94404761D01*
X118070380Y-94547619D01*
X118070380Y-94642857D01*
X118118000Y-94785714D01*
X118165619Y-94833333D01*
X118403714Y-95166666D02*
X119070380Y-95404761D01*
X118403714Y-95642857D02*
X119070380Y-95404761D01*
X119308476Y-95309523D01*
X119356095Y-95261904D01*
X119403714Y-95166666D01*
X119070380Y-96023809D02*
X118070380Y-96023809D01*
X118451333Y-96023809D02*
X118403714Y-96119047D01*
X118403714Y-96309523D01*
X118451333Y-96404761D01*
X118498952Y-96452380D01*
X118594190Y-96500000D01*
X118879904Y-96500000D01*
X118975142Y-96452380D01*
X119022761Y-96404761D01*
X119070380Y-96309523D01*
X119070380Y-96119047D01*
X119022761Y-96023809D01*
X119022761Y-97309523D02*
X119070380Y-97214285D01*
X119070380Y-97023809D01*
X119022761Y-96928571D01*
X118927523Y-96880952D01*
X118546571Y-96880952D01*
X118451333Y-96928571D01*
X118403714Y-97023809D01*
X118403714Y-97214285D01*
X118451333Y-97309523D01*
X118546571Y-97357142D01*
X118641809Y-97357142D01*
X118737047Y-96880952D01*
X119070380Y-97785714D02*
X118403714Y-97785714D01*
X118594190Y-97785714D02*
X118498952Y-97833333D01*
X118451333Y-97880952D01*
X118403714Y-97976190D01*
X118403714Y-98071428D01*
X118975142Y-98976190D02*
X119022761Y-98928571D01*
X119070380Y-98785714D01*
X119070380Y-98690476D01*
X119022761Y-98547619D01*
X118927523Y-98452380D01*
X118832285Y-98404761D01*
X118641809Y-98357142D01*
X118498952Y-98357142D01*
X118308476Y-98404761D01*
X118213238Y-98452380D01*
X118118000Y-98547619D01*
X118070380Y-98690476D01*
X118070380Y-98785714D01*
X118118000Y-98928571D01*
X118165619Y-98976190D01*
X119070380Y-99404761D02*
X118403714Y-99404761D01*
X118070380Y-99404761D02*
X118118000Y-99357142D01*
X118165619Y-99404761D01*
X118118000Y-99452380D01*
X118070380Y-99404761D01*
X118165619Y-99404761D01*
X118403714Y-99738095D02*
X118403714Y-100119047D01*
X118070380Y-99880952D02*
X118927523Y-99880952D01*
X119022761Y-99928571D01*
X119070380Y-100023809D01*
X119070380Y-100119047D01*
X118403714Y-100357142D02*
X119070380Y-100595238D01*
X118403714Y-100833333D02*
X119070380Y-100595238D01*
X119308476Y-100500000D01*
X119356095Y-100452380D01*
X119403714Y-100357142D01*
X118975142Y-101785714D02*
X119022761Y-101738095D01*
X119070380Y-101595238D01*
X119070380Y-101500000D01*
X119022761Y-101357142D01*
X118927523Y-101261904D01*
X118832285Y-101214285D01*
X118641809Y-101166666D01*
X118498952Y-101166666D01*
X118308476Y-101214285D01*
X118213238Y-101261904D01*
X118118000Y-101357142D01*
X118070380Y-101500000D01*
X118070380Y-101595238D01*
X118118000Y-101738095D01*
X118165619Y-101785714D01*
X119070380Y-102214285D02*
X118403714Y-102214285D01*
X118070380Y-102214285D02*
X118118000Y-102166666D01*
X118165619Y-102214285D01*
X118118000Y-102261904D01*
X118070380Y-102214285D01*
X118165619Y-102214285D01*
X119070380Y-102690476D02*
X118403714Y-102690476D01*
X118594190Y-102690476D02*
X118498952Y-102738095D01*
X118451333Y-102785714D01*
X118403714Y-102880952D01*
X118403714Y-102976190D01*
X119022761Y-103738095D02*
X119070380Y-103642857D01*
X119070380Y-103452380D01*
X119022761Y-103357142D01*
X118975142Y-103309523D01*
X118879904Y-103261904D01*
X118594190Y-103261904D01*
X118498952Y-103309523D01*
X118451333Y-103357142D01*
X118403714Y-103452380D01*
X118403714Y-103642857D01*
X118451333Y-103738095D01*
X118403714Y-104595238D02*
X119070380Y-104595238D01*
X118403714Y-104166666D02*
X118927523Y-104166666D01*
X119022761Y-104214285D01*
X119070380Y-104309523D01*
X119070380Y-104452380D01*
X119022761Y-104547619D01*
X118975142Y-104595238D01*
X119070380Y-105071428D02*
X118403714Y-105071428D01*
X118070380Y-105071428D02*
X118118000Y-105023809D01*
X118165619Y-105071428D01*
X118118000Y-105119047D01*
X118070380Y-105071428D01*
X118165619Y-105071428D01*
X118403714Y-105404761D02*
X118403714Y-105785714D01*
X118070380Y-105547619D02*
X118927523Y-105547619D01*
X119022761Y-105595238D01*
X119070380Y-105690476D01*
X119070380Y-105785714D01*
X119022761Y-106071428D02*
X119070380Y-106166666D01*
X119070380Y-106357142D01*
X119022761Y-106452380D01*
X118927523Y-106500000D01*
X118879904Y-106500000D01*
X118784666Y-106452380D01*
X118737047Y-106357142D01*
X118737047Y-106214285D01*
X118689428Y-106119047D01*
X118594190Y-106071428D01*
X118546571Y-106071428D01*
X118451333Y-106119047D01*
X118403714Y-106214285D01*
X118403714Y-106357142D01*
X118451333Y-106452380D01*
X118975142Y-106928571D02*
X119022761Y-106976190D01*
X119070380Y-106928571D01*
X119022761Y-106880952D01*
X118975142Y-106928571D01*
X119070380Y-106928571D01*
X119022761Y-107833333D02*
X119070380Y-107738095D01*
X119070380Y-107547619D01*
X119022761Y-107452380D01*
X118975142Y-107404761D01*
X118879904Y-107357142D01*
X118594190Y-107357142D01*
X118498952Y-107404761D01*
X118451333Y-107452380D01*
X118403714Y-107547619D01*
X118403714Y-107738095D01*
X118451333Y-107833333D01*
X119070380Y-108404761D02*
X119022761Y-108309523D01*
X118975142Y-108261904D01*
X118879904Y-108214285D01*
X118594190Y-108214285D01*
X118498952Y-108261904D01*
X118451333Y-108309523D01*
X118403714Y-108404761D01*
X118403714Y-108547619D01*
X118451333Y-108642857D01*
X118498952Y-108690476D01*
X118594190Y-108738095D01*
X118879904Y-108738095D01*
X118975142Y-108690476D01*
X119022761Y-108642857D01*
X119070380Y-108547619D01*
X119070380Y-108404761D01*
X119070380Y-109166666D02*
X118403714Y-109166666D01*
X118498952Y-109166666D02*
X118451333Y-109214285D01*
X118403714Y-109309523D01*
X118403714Y-109452380D01*
X118451333Y-109547619D01*
X118546571Y-109595238D01*
X119070380Y-109595238D01*
X118546571Y-109595238D02*
X118451333Y-109642857D01*
X118403714Y-109738095D01*
X118403714Y-109880952D01*
X118451333Y-109976190D01*
X118546571Y-110023809D01*
X119070380Y-110023809D01*
X87756857Y-113482380D02*
X88328285Y-113482380D01*
X88042571Y-113482380D02*
X88042571Y-112482380D01*
X88137809Y-112625238D01*
X88233047Y-112720476D01*
X88328285Y-112768095D01*
X87137809Y-112482380D02*
X87042571Y-112482380D01*
X86947333Y-112530000D01*
X86899714Y-112577619D01*
X86852095Y-112672857D01*
X86804476Y-112863333D01*
X86804476Y-113101428D01*
X86852095Y-113291904D01*
X86899714Y-113387142D01*
X86947333Y-113434761D01*
X87042571Y-113482380D01*
X87137809Y-113482380D01*
X87233047Y-113434761D01*
X87280666Y-113387142D01*
X87328285Y-113291904D01*
X87375904Y-113101428D01*
X87375904Y-112863333D01*
X87328285Y-112672857D01*
X87280666Y-112577619D01*
X87233047Y-112530000D01*
X87137809Y-112482380D01*
X86471142Y-112482380D02*
X85852095Y-112482380D01*
X86185428Y-112863333D01*
X86042571Y-112863333D01*
X85947333Y-112910952D01*
X85899714Y-112958571D01*
X85852095Y-113053809D01*
X85852095Y-113291904D01*
X85899714Y-113387142D01*
X85947333Y-113434761D01*
X86042571Y-113482380D01*
X86328285Y-113482380D01*
X86423523Y-113434761D01*
X86471142Y-113387142D01*
X84947333Y-112482380D02*
X85423523Y-112482380D01*
X85471142Y-112958571D01*
X85423523Y-112910952D01*
X85328285Y-112863333D01*
X85090190Y-112863333D01*
X84994952Y-112910952D01*
X84947333Y-112958571D01*
X84899714Y-113053809D01*
X84899714Y-113291904D01*
X84947333Y-113387142D01*
X84994952Y-113434761D01*
X85090190Y-113482380D01*
X85328285Y-113482380D01*
X85423523Y-113434761D01*
X85471142Y-113387142D01*
D11*
G36*
X97140973Y-97208866D02*
G01*
X96996158Y-97237951D01*
X96855737Y-97285041D01*
X96722095Y-97349142D01*
X96597616Y-97429259D01*
X96484687Y-97524400D01*
X96385693Y-97633570D01*
X96372218Y-97651062D01*
X96296729Y-97765019D01*
X96232805Y-97889511D01*
X96183481Y-98018014D01*
X96158276Y-98111333D01*
X96153362Y-98133918D01*
X96150953Y-98151853D01*
X96153120Y-98165674D01*
X96161936Y-98175915D01*
X96179473Y-98183112D01*
X96207801Y-98187800D01*
X96248994Y-98190514D01*
X96305123Y-98191790D01*
X96378260Y-98192162D01*
X96470476Y-98192167D01*
X96770930Y-98192167D01*
X96810660Y-98116560D01*
X96864210Y-98034171D01*
X96931838Y-97961207D01*
X97009700Y-97900751D01*
X97093950Y-97855891D01*
X97163667Y-97833236D01*
X97252109Y-97821716D01*
X97346568Y-97824793D01*
X97439880Y-97841543D01*
X97524884Y-97871043D01*
X97549027Y-97882952D01*
X97601948Y-97918469D01*
X97657355Y-97967670D01*
X97709573Y-98024707D01*
X97752928Y-98083735D01*
X97767101Y-98107661D01*
X97789099Y-98143764D01*
X97809350Y-98169337D01*
X97823984Y-98179858D01*
X97835906Y-98175607D01*
X97857975Y-98159584D01*
X97891058Y-98131012D01*
X97936023Y-98089111D01*
X97993735Y-98033104D01*
X98053989Y-97973299D01*
X98108583Y-97918132D01*
X98157906Y-97867193D01*
X98200045Y-97822546D01*
X98233084Y-97786260D01*
X98255107Y-97760399D01*
X98264201Y-97747031D01*
X98264334Y-97746305D01*
X98257496Y-97728028D01*
X98238880Y-97698120D01*
X98211329Y-97660253D01*
X98177691Y-97618097D01*
X98140809Y-97575325D01*
X98103528Y-97535608D01*
X98092779Y-97524923D01*
X97983327Y-97432265D01*
X97859519Y-97352677D01*
X97724834Y-97287829D01*
X97582753Y-97239391D01*
X97436755Y-97209036D01*
X97434237Y-97208683D01*
X97287794Y-97198779D01*
X97140973Y-97208866D01*
G37*
X97140973Y-97208866D02*
X96996158Y-97237951D01*
X96855737Y-97285041D01*
X96722095Y-97349142D01*
X96597616Y-97429259D01*
X96484687Y-97524400D01*
X96385693Y-97633570D01*
X96372218Y-97651062D01*
X96296729Y-97765019D01*
X96232805Y-97889511D01*
X96183481Y-98018014D01*
X96158276Y-98111333D01*
X96153362Y-98133918D01*
X96150953Y-98151853D01*
X96153120Y-98165674D01*
X96161936Y-98175915D01*
X96179473Y-98183112D01*
X96207801Y-98187800D01*
X96248994Y-98190514D01*
X96305123Y-98191790D01*
X96378260Y-98192162D01*
X96470476Y-98192167D01*
X96770930Y-98192167D01*
X96810660Y-98116560D01*
X96864210Y-98034171D01*
X96931838Y-97961207D01*
X97009700Y-97900751D01*
X97093950Y-97855891D01*
X97163667Y-97833236D01*
X97252109Y-97821716D01*
X97346568Y-97824793D01*
X97439880Y-97841543D01*
X97524884Y-97871043D01*
X97549027Y-97882952D01*
X97601948Y-97918469D01*
X97657355Y-97967670D01*
X97709573Y-98024707D01*
X97752928Y-98083735D01*
X97767101Y-98107661D01*
X97789099Y-98143764D01*
X97809350Y-98169337D01*
X97823984Y-98179858D01*
X97835906Y-98175607D01*
X97857975Y-98159584D01*
X97891058Y-98131012D01*
X97936023Y-98089111D01*
X97993735Y-98033104D01*
X98053989Y-97973299D01*
X98108583Y-97918132D01*
X98157906Y-97867193D01*
X98200045Y-97822546D01*
X98233084Y-97786260D01*
X98255107Y-97760399D01*
X98264201Y-97747031D01*
X98264334Y-97746305D01*
X98257496Y-97728028D01*
X98238880Y-97698120D01*
X98211329Y-97660253D01*
X98177691Y-97618097D01*
X98140809Y-97575325D01*
X98103528Y-97535608D01*
X98092779Y-97524923D01*
X97983327Y-97432265D01*
X97859519Y-97352677D01*
X97724834Y-97287829D01*
X97582753Y-97239391D01*
X97436755Y-97209036D01*
X97434237Y-97208683D01*
X97287794Y-97198779D01*
X97140973Y-97208866D01*
G36*
X107057556Y-97208866D02*
G01*
X106912742Y-97237951D01*
X106772321Y-97285041D01*
X106638678Y-97349142D01*
X106514199Y-97429259D01*
X106401270Y-97524400D01*
X106302276Y-97633570D01*
X106288801Y-97651062D01*
X106213312Y-97765019D01*
X106149389Y-97889511D01*
X106100064Y-98018014D01*
X106074859Y-98111333D01*
X106069946Y-98133918D01*
X106067536Y-98151853D01*
X106069704Y-98165674D01*
X106078520Y-98175915D01*
X106096056Y-98183112D01*
X106124384Y-98187800D01*
X106165577Y-98190514D01*
X106221706Y-98191790D01*
X106294843Y-98192162D01*
X106387060Y-98192167D01*
X106687513Y-98192167D01*
X106727243Y-98116560D01*
X106780793Y-98034171D01*
X106848421Y-97961207D01*
X106926283Y-97900751D01*
X107010534Y-97855891D01*
X107080250Y-97833236D01*
X107168693Y-97821716D01*
X107263151Y-97824793D01*
X107356463Y-97841543D01*
X107441467Y-97871043D01*
X107465610Y-97882952D01*
X107518531Y-97918469D01*
X107573938Y-97967670D01*
X107626156Y-98024707D01*
X107669511Y-98083735D01*
X107683684Y-98107661D01*
X107705683Y-98143764D01*
X107725934Y-98169337D01*
X107740568Y-98179858D01*
X107752489Y-98175607D01*
X107774558Y-98159584D01*
X107807641Y-98131012D01*
X107852606Y-98089111D01*
X107910319Y-98033104D01*
X107970572Y-97973299D01*
X108025166Y-97918132D01*
X108074490Y-97867193D01*
X108116628Y-97822546D01*
X108149667Y-97786260D01*
X108171691Y-97760399D01*
X108180784Y-97747031D01*
X108180917Y-97746305D01*
X108174079Y-97728028D01*
X108155463Y-97698120D01*
X108127913Y-97660253D01*
X108094274Y-97618097D01*
X108057392Y-97575325D01*
X108020112Y-97535608D01*
X108009363Y-97524923D01*
X107899911Y-97432265D01*
X107776102Y-97352677D01*
X107641418Y-97287829D01*
X107499336Y-97239391D01*
X107353338Y-97209036D01*
X107350820Y-97208683D01*
X107204377Y-97198779D01*
X107057556Y-97208866D01*
G37*
X107057556Y-97208866D02*
X106912742Y-97237951D01*
X106772321Y-97285041D01*
X106638678Y-97349142D01*
X106514199Y-97429259D01*
X106401270Y-97524400D01*
X106302276Y-97633570D01*
X106288801Y-97651062D01*
X106213312Y-97765019D01*
X106149389Y-97889511D01*
X106100064Y-98018014D01*
X106074859Y-98111333D01*
X106069946Y-98133918D01*
X106067536Y-98151853D01*
X106069704Y-98165674D01*
X106078520Y-98175915D01*
X106096056Y-98183112D01*
X106124384Y-98187800D01*
X106165577Y-98190514D01*
X106221706Y-98191790D01*
X106294843Y-98192162D01*
X106387060Y-98192167D01*
X106687513Y-98192167D01*
X106727243Y-98116560D01*
X106780793Y-98034171D01*
X106848421Y-97961207D01*
X106926283Y-97900751D01*
X107010534Y-97855891D01*
X107080250Y-97833236D01*
X107168693Y-97821716D01*
X107263151Y-97824793D01*
X107356463Y-97841543D01*
X107441467Y-97871043D01*
X107465610Y-97882952D01*
X107518531Y-97918469D01*
X107573938Y-97967670D01*
X107626156Y-98024707D01*
X107669511Y-98083735D01*
X107683684Y-98107661D01*
X107705683Y-98143764D01*
X107725934Y-98169337D01*
X107740568Y-98179858D01*
X107752489Y-98175607D01*
X107774558Y-98159584D01*
X107807641Y-98131012D01*
X107852606Y-98089111D01*
X107910319Y-98033104D01*
X107970572Y-97973299D01*
X108025166Y-97918132D01*
X108074490Y-97867193D01*
X108116628Y-97822546D01*
X108149667Y-97786260D01*
X108171691Y-97760399D01*
X108180784Y-97747031D01*
X108180917Y-97746305D01*
X108174079Y-97728028D01*
X108155463Y-97698120D01*
X108127913Y-97660253D01*
X108094274Y-97618097D01*
X108057392Y-97575325D01*
X108020112Y-97535608D01*
X108009363Y-97524923D01*
X107899911Y-97432265D01*
X107776102Y-97352677D01*
X107641418Y-97287829D01*
X107499336Y-97239391D01*
X107353338Y-97209036D01*
X107350820Y-97208683D01*
X107204377Y-97198779D01*
X107057556Y-97208866D01*
G36*
X95787080Y-97906051D02*
G01*
X95732324Y-97907846D01*
X95685443Y-97910729D01*
X95650554Y-97914681D01*
X95631777Y-97919685D01*
X95630213Y-97920931D01*
X95626347Y-97933524D01*
X95623468Y-97961555D01*
X95621542Y-98006198D01*
X95620534Y-98068632D01*
X95620409Y-98150032D01*
X95620979Y-98235786D01*
X95621850Y-98323302D01*
X95622753Y-98391965D01*
X95623873Y-98444091D01*
X95625391Y-98481992D01*
X95627491Y-98507983D01*
X95630355Y-98524377D01*
X95634167Y-98533488D01*
X95639110Y-98537631D01*
X95644959Y-98539064D01*
X95656976Y-98535033D01*
X95678099Y-98520124D01*
X95709409Y-98493374D01*
X95751986Y-98453819D01*
X95806909Y-98400495D01*
X95864563Y-98343171D01*
X96063000Y-98144338D01*
X96063000Y-98038077D01*
X96061634Y-97980467D01*
X96057645Y-97940651D01*
X96051196Y-97920167D01*
X96050300Y-97919116D01*
X96034800Y-97914013D01*
X96002460Y-97910103D01*
X95957399Y-97907370D01*
X95903736Y-97905795D01*
X95845590Y-97905362D01*
X95787080Y-97906051D01*
G37*
X95787080Y-97906051D02*
X95732324Y-97907846D01*
X95685443Y-97910729D01*
X95650554Y-97914681D01*
X95631777Y-97919685D01*
X95630213Y-97920931D01*
X95626347Y-97933524D01*
X95623468Y-97961555D01*
X95621542Y-98006198D01*
X95620534Y-98068632D01*
X95620409Y-98150032D01*
X95620979Y-98235786D01*
X95621850Y-98323302D01*
X95622753Y-98391965D01*
X95623873Y-98444091D01*
X95625391Y-98481992D01*
X95627491Y-98507983D01*
X95630355Y-98524377D01*
X95634167Y-98533488D01*
X95639110Y-98537631D01*
X95644959Y-98539064D01*
X95656976Y-98535033D01*
X95678099Y-98520124D01*
X95709409Y-98493374D01*
X95751986Y-98453819D01*
X95806909Y-98400495D01*
X95864563Y-98343171D01*
X96063000Y-98144338D01*
X96063000Y-98038077D01*
X96061634Y-97980467D01*
X96057645Y-97940651D01*
X96051196Y-97920167D01*
X96050300Y-97919116D01*
X96034800Y-97914013D01*
X96002460Y-97910103D01*
X95957399Y-97907370D01*
X95903736Y-97905795D01*
X95845590Y-97905362D01*
X95787080Y-97906051D01*
G36*
X100595080Y-98116718D02*
G01*
X100594468Y-98198775D01*
X100595261Y-98260805D01*
X100597503Y-98303901D01*
X100601240Y-98329159D01*
X100604313Y-98336322D01*
X100610928Y-98340214D01*
X100624920Y-98343379D01*
X100648163Y-98345886D01*
X100682528Y-98347801D01*
X100729889Y-98349193D01*
X100792118Y-98350128D01*
X100871088Y-98350675D01*
X100968670Y-98350901D01*
X101009053Y-98350917D01*
X101401681Y-98350917D01*
X101333500Y-98419708D01*
X101265320Y-98488500D01*
X100934658Y-98488500D01*
X100842211Y-98488554D01*
X100768675Y-98488807D01*
X100711793Y-98489394D01*
X100669307Y-98490450D01*
X100638962Y-98492110D01*
X100618502Y-98494510D01*
X100605669Y-98497784D01*
X100598208Y-98502069D01*
X100593861Y-98507499D01*
X100593040Y-98508971D01*
X100589170Y-98526751D01*
X100585974Y-98562388D01*
X100583629Y-98612577D01*
X100582309Y-98674013D01*
X100582084Y-98714590D01*
X100582369Y-98783663D01*
X100583392Y-98834599D01*
X100585402Y-98870420D01*
X100588647Y-98894150D01*
X100593377Y-98908813D01*
X100598715Y-98916369D01*
X100605023Y-98920596D01*
X100615981Y-98924053D01*
X100633551Y-98926816D01*
X100659695Y-98928958D01*
X100696372Y-98930555D01*
X100745546Y-98931682D01*
X100809176Y-98932413D01*
X100889225Y-98932823D01*
X100987654Y-98932987D01*
X101035021Y-98933000D01*
X101454697Y-98933000D01*
X101695910Y-98691787D01*
X101937123Y-98450573D01*
X101934291Y-98181141D01*
X101931459Y-97911708D01*
X100597959Y-97911708D01*
X100595080Y-98116718D01*
G37*
X100595080Y-98116718D02*
X100594468Y-98198775D01*
X100595261Y-98260805D01*
X100597503Y-98303901D01*
X100601240Y-98329159D01*
X100604313Y-98336322D01*
X100610928Y-98340214D01*
X100624920Y-98343379D01*
X100648163Y-98345886D01*
X100682528Y-98347801D01*
X100729889Y-98349193D01*
X100792118Y-98350128D01*
X100871088Y-98350675D01*
X100968670Y-98350901D01*
X101009053Y-98350917D01*
X101401681Y-98350917D01*
X101333500Y-98419708D01*
X101265320Y-98488500D01*
X100934658Y-98488500D01*
X100842211Y-98488554D01*
X100768675Y-98488807D01*
X100711793Y-98489394D01*
X100669307Y-98490450D01*
X100638962Y-98492110D01*
X100618502Y-98494510D01*
X100605669Y-98497784D01*
X100598208Y-98502069D01*
X100593861Y-98507499D01*
X100593040Y-98508971D01*
X100589170Y-98526751D01*
X100585974Y-98562388D01*
X100583629Y-98612577D01*
X100582309Y-98674013D01*
X100582084Y-98714590D01*
X100582369Y-98783663D01*
X100583392Y-98834599D01*
X100585402Y-98870420D01*
X100588647Y-98894150D01*
X100593377Y-98908813D01*
X100598715Y-98916369D01*
X100605023Y-98920596D01*
X100615981Y-98924053D01*
X100633551Y-98926816D01*
X100659695Y-98928958D01*
X100696372Y-98930555D01*
X100745546Y-98931682D01*
X100809176Y-98932413D01*
X100889225Y-98932823D01*
X100987654Y-98932987D01*
X101035021Y-98933000D01*
X101454697Y-98933000D01*
X101695910Y-98691787D01*
X101937123Y-98450573D01*
X101934291Y-98181141D01*
X101931459Y-97911708D01*
X100597959Y-97911708D01*
X100595080Y-98116718D01*
G36*
X91951256Y-97908885D02*
G01*
X91866078Y-97909798D01*
X91799689Y-97910777D01*
X91749715Y-97912009D01*
X91713778Y-97913682D01*
X91689502Y-97915985D01*
X91674511Y-97919104D01*
X91666428Y-97923228D01*
X91662877Y-97928544D01*
X91662050Y-97931756D01*
X91665661Y-97940893D01*
X91678886Y-97958837D01*
X91702441Y-97986346D01*
X91737040Y-98024174D01*
X91783397Y-98073077D01*
X91842226Y-98133809D01*
X91914242Y-98207127D01*
X92000160Y-98293786D01*
X92082411Y-98376256D01*
X92506628Y-98800708D01*
X92512292Y-99181708D01*
X92538750Y-99184655D01*
X92545517Y-99183347D01*
X92555970Y-99177653D01*
X92571060Y-99166666D01*
X92591735Y-99149483D01*
X92618946Y-99125199D01*
X92653642Y-99092907D01*
X92696772Y-99051705D01*
X92749286Y-99000685D01*
X92812132Y-98938945D01*
X92886262Y-98865577D01*
X92972623Y-98779679D01*
X93072166Y-98680343D01*
X93160521Y-98592001D01*
X93755834Y-97996398D01*
X93755834Y-98153187D01*
X93756558Y-98211618D01*
X93758559Y-98262752D01*
X93761581Y-98302440D01*
X93765367Y-98326532D01*
X93766790Y-98330446D01*
X93771073Y-98336609D01*
X93778170Y-98341395D01*
X93790547Y-98344977D01*
X93810668Y-98347530D01*
X93841001Y-98349225D01*
X93884009Y-98350237D01*
X93942158Y-98350740D01*
X94017914Y-98350905D01*
X94057831Y-98350917D01*
X94337917Y-98350917D01*
X94337917Y-98620036D01*
X94338075Y-98704223D01*
X94338644Y-98769724D01*
X94339768Y-98819018D01*
X94341592Y-98854583D01*
X94344259Y-98878899D01*
X94347915Y-98894444D01*
X94352702Y-98903697D01*
X94354527Y-98905765D01*
X94375001Y-98916485D01*
X94388923Y-98912600D01*
X94401042Y-98902623D01*
X94425767Y-98879709D01*
X94460867Y-98846016D01*
X94504111Y-98803704D01*
X94553271Y-98754933D01*
X94594563Y-98713516D01*
X94782417Y-98524207D01*
X94782417Y-98350917D01*
X95060759Y-98350917D01*
X95153259Y-98350607D01*
X95226138Y-98349634D01*
X95280933Y-98347930D01*
X95319183Y-98345429D01*
X95342424Y-98342063D01*
X95351801Y-98338216D01*
X95356868Y-98322761D01*
X95360759Y-98290463D01*
X95363488Y-98245441D01*
X95365071Y-98191811D01*
X95365526Y-98133692D01*
X95364867Y-98075201D01*
X95363111Y-98020455D01*
X95360274Y-97973573D01*
X95356372Y-97938671D01*
X95351420Y-97919868D01*
X95350164Y-97918277D01*
X95341024Y-97916166D01*
X95318488Y-97914287D01*
X95281825Y-97912633D01*
X95230304Y-97911196D01*
X95163192Y-97909968D01*
X95079757Y-97908940D01*
X94979268Y-97908105D01*
X94860992Y-97907454D01*
X94724197Y-97906981D01*
X94568153Y-97906676D01*
X94392126Y-97906531D01*
X94273103Y-97906519D01*
X93210377Y-97906659D01*
X92967252Y-98149956D01*
X92724128Y-98393253D01*
X92480366Y-98149658D01*
X92236605Y-97906062D01*
X91951256Y-97908885D01*
G37*
X91951256Y-97908885D02*
X91866078Y-97909798D01*
X91799689Y-97910777D01*
X91749715Y-97912009D01*
X91713778Y-97913682D01*
X91689502Y-97915985D01*
X91674511Y-97919104D01*
X91666428Y-97923228D01*
X91662877Y-97928544D01*
X91662050Y-97931756D01*
X91665661Y-97940893D01*
X91678886Y-97958837D01*
X91702441Y-97986346D01*
X91737040Y-98024174D01*
X91783397Y-98073077D01*
X91842226Y-98133809D01*
X91914242Y-98207127D01*
X92000160Y-98293786D01*
X92082411Y-98376256D01*
X92506628Y-98800708D01*
X92512292Y-99181708D01*
X92538750Y-99184655D01*
X92545517Y-99183347D01*
X92555970Y-99177653D01*
X92571060Y-99166666D01*
X92591735Y-99149483D01*
X92618946Y-99125199D01*
X92653642Y-99092907D01*
X92696772Y-99051705D01*
X92749286Y-99000685D01*
X92812132Y-98938945D01*
X92886262Y-98865577D01*
X92972623Y-98779679D01*
X93072166Y-98680343D01*
X93160521Y-98592001D01*
X93755834Y-97996398D01*
X93755834Y-98153187D01*
X93756558Y-98211618D01*
X93758559Y-98262752D01*
X93761581Y-98302440D01*
X93765367Y-98326532D01*
X93766790Y-98330446D01*
X93771073Y-98336609D01*
X93778170Y-98341395D01*
X93790547Y-98344977D01*
X93810668Y-98347530D01*
X93841001Y-98349225D01*
X93884009Y-98350237D01*
X93942158Y-98350740D01*
X94017914Y-98350905D01*
X94057831Y-98350917D01*
X94337917Y-98350917D01*
X94337917Y-98620036D01*
X94338075Y-98704223D01*
X94338644Y-98769724D01*
X94339768Y-98819018D01*
X94341592Y-98854583D01*
X94344259Y-98878899D01*
X94347915Y-98894444D01*
X94352702Y-98903697D01*
X94354527Y-98905765D01*
X94375001Y-98916485D01*
X94388923Y-98912600D01*
X94401042Y-98902623D01*
X94425767Y-98879709D01*
X94460867Y-98846016D01*
X94504111Y-98803704D01*
X94553271Y-98754933D01*
X94594563Y-98713516D01*
X94782417Y-98524207D01*
X94782417Y-98350917D01*
X95060759Y-98350917D01*
X95153259Y-98350607D01*
X95226138Y-98349634D01*
X95280933Y-98347930D01*
X95319183Y-98345429D01*
X95342424Y-98342063D01*
X95351801Y-98338216D01*
X95356868Y-98322761D01*
X95360759Y-98290463D01*
X95363488Y-98245441D01*
X95365071Y-98191811D01*
X95365526Y-98133692D01*
X95364867Y-98075201D01*
X95363111Y-98020455D01*
X95360274Y-97973573D01*
X95356372Y-97938671D01*
X95351420Y-97919868D01*
X95350164Y-97918277D01*
X95341024Y-97916166D01*
X95318488Y-97914287D01*
X95281825Y-97912633D01*
X95230304Y-97911196D01*
X95163192Y-97909968D01*
X95079757Y-97908940D01*
X94979268Y-97908105D01*
X94860992Y-97907454D01*
X94724197Y-97906981D01*
X94568153Y-97906676D01*
X94392126Y-97906531D01*
X94273103Y-97906519D01*
X93210377Y-97906659D01*
X92967252Y-98149956D01*
X92724128Y-98393253D01*
X92480366Y-98149658D01*
X92236605Y-97906062D01*
X91951256Y-97908885D01*
G36*
X105152139Y-98146709D02*
G01*
X104910667Y-98387349D01*
X104669369Y-98146883D01*
X104428071Y-97906416D01*
X104145867Y-97906416D01*
X104061322Y-97906465D01*
X103995475Y-97906736D01*
X103945857Y-97907417D01*
X103909999Y-97908697D01*
X103885431Y-97910765D01*
X103869684Y-97913809D01*
X103860290Y-97918017D01*
X103854780Y-97923577D01*
X103851648Y-97928865D01*
X103849994Y-97934581D01*
X103851319Y-97942152D01*
X103856722Y-97952774D01*
X103867305Y-97967642D01*
X103884169Y-97987950D01*
X103908416Y-98014892D01*
X103941146Y-98049663D01*
X103983461Y-98093458D01*
X104036463Y-98147471D01*
X104101252Y-98212896D01*
X104178929Y-98290928D01*
X104264025Y-98376184D01*
X104688417Y-98801055D01*
X104688417Y-98982688D01*
X104688712Y-99051076D01*
X104689768Y-99101357D01*
X104691841Y-99136585D01*
X104695187Y-99159814D01*
X104700062Y-99174098D01*
X104705048Y-99180952D01*
X104721103Y-99194224D01*
X104728651Y-99197583D01*
X104737029Y-99190277D01*
X104759248Y-99169091D01*
X104794194Y-99135127D01*
X104840753Y-99089485D01*
X104897812Y-99033266D01*
X104964256Y-98967570D01*
X105038972Y-98893497D01*
X105120846Y-98812149D01*
X105208764Y-98724625D01*
X105301613Y-98632027D01*
X105357902Y-98575812D01*
X105477242Y-98456407D01*
X105582082Y-98351148D01*
X105673051Y-98259382D01*
X105750781Y-98180454D01*
X105815901Y-98113709D01*
X105869041Y-98058493D01*
X105910833Y-98014153D01*
X105941907Y-97980032D01*
X105962893Y-97955477D01*
X105974421Y-97939834D01*
X105977237Y-97932875D01*
X105975623Y-97926607D01*
X105971159Y-97921683D01*
X105961493Y-97917911D01*
X105944270Y-97915097D01*
X105917135Y-97913051D01*
X105877735Y-97911579D01*
X105823716Y-97910488D01*
X105752723Y-97909586D01*
X105683952Y-97908889D01*
X105393612Y-97906069D01*
X105152139Y-98146709D01*
G37*
X105152139Y-98146709D02*
X104910667Y-98387349D01*
X104669369Y-98146883D01*
X104428071Y-97906416D01*
X104145867Y-97906416D01*
X104061322Y-97906465D01*
X103995475Y-97906736D01*
X103945857Y-97907417D01*
X103909999Y-97908697D01*
X103885431Y-97910765D01*
X103869684Y-97913809D01*
X103860290Y-97918017D01*
X103854780Y-97923577D01*
X103851648Y-97928865D01*
X103849994Y-97934581D01*
X103851319Y-97942152D01*
X103856722Y-97952774D01*
X103867305Y-97967642D01*
X103884169Y-97987950D01*
X103908416Y-98014892D01*
X103941146Y-98049663D01*
X103983461Y-98093458D01*
X104036463Y-98147471D01*
X104101252Y-98212896D01*
X104178929Y-98290928D01*
X104264025Y-98376184D01*
X104688417Y-98801055D01*
X104688417Y-98982688D01*
X104688712Y-99051076D01*
X104689768Y-99101357D01*
X104691841Y-99136585D01*
X104695187Y-99159814D01*
X104700062Y-99174098D01*
X104705048Y-99180952D01*
X104721103Y-99194224D01*
X104728651Y-99197583D01*
X104737029Y-99190277D01*
X104759248Y-99169091D01*
X104794194Y-99135127D01*
X104840753Y-99089485D01*
X104897812Y-99033266D01*
X104964256Y-98967570D01*
X105038972Y-98893497D01*
X105120846Y-98812149D01*
X105208764Y-98724625D01*
X105301613Y-98632027D01*
X105357902Y-98575812D01*
X105477242Y-98456407D01*
X105582082Y-98351148D01*
X105673051Y-98259382D01*
X105750781Y-98180454D01*
X105815901Y-98113709D01*
X105869041Y-98058493D01*
X105910833Y-98014153D01*
X105941907Y-97980032D01*
X105962893Y-97955477D01*
X105974421Y-97939834D01*
X105977237Y-97932875D01*
X105975623Y-97926607D01*
X105971159Y-97921683D01*
X105961493Y-97917911D01*
X105944270Y-97915097D01*
X105917135Y-97913051D01*
X105877735Y-97911579D01*
X105823716Y-97910488D01*
X105752723Y-97909586D01*
X105683952Y-97908889D01*
X105393612Y-97906069D01*
X105152139Y-98146709D01*
G36*
X96524895Y-98521994D02*
G01*
X96450440Y-98522570D01*
X96364062Y-98523609D01*
X96296496Y-98524816D01*
X96245383Y-98526348D01*
X96208369Y-98528363D01*
X96183097Y-98531018D01*
X96167211Y-98534471D01*
X96158354Y-98538880D01*
X96155255Y-98542327D01*
X96151921Y-98558831D01*
X96155508Y-98588888D01*
X96166400Y-98635041D01*
X96172937Y-98658744D01*
X96223581Y-98802064D01*
X96291554Y-98938721D01*
X96374522Y-99064459D01*
X96437432Y-99140584D01*
X96466623Y-99170447D01*
X96502935Y-99204194D01*
X96542656Y-99238777D01*
X96582070Y-99271152D01*
X96617463Y-99298272D01*
X96645120Y-99317090D01*
X96661328Y-99324562D01*
X96661805Y-99324583D01*
X96671740Y-99317556D01*
X96694930Y-99297693D01*
X96729365Y-99266824D01*
X96773039Y-99226776D01*
X96823940Y-99179379D01*
X96880061Y-99126462D01*
X96893908Y-99113310D01*
X96952803Y-99056667D01*
X97005329Y-99004927D01*
X97049696Y-98959943D01*
X97084114Y-98923568D01*
X97106791Y-98897656D01*
X97115939Y-98884060D01*
X97116042Y-98883366D01*
X97106167Y-98866831D01*
X97077385Y-98844924D01*
X97047522Y-98827410D01*
X96980288Y-98782825D01*
X96915132Y-98725236D01*
X96858231Y-98660804D01*
X96816471Y-98597030D01*
X96790693Y-98554580D01*
X96768190Y-98530234D01*
X96758262Y-98525269D01*
X96741769Y-98523866D01*
X96707149Y-98522811D01*
X96657439Y-98522130D01*
X96595675Y-98521848D01*
X96524895Y-98521994D01*
G37*
X96524895Y-98521994D02*
X96450440Y-98522570D01*
X96364062Y-98523609D01*
X96296496Y-98524816D01*
X96245383Y-98526348D01*
X96208369Y-98528363D01*
X96183097Y-98531018D01*
X96167211Y-98534471D01*
X96158354Y-98538880D01*
X96155255Y-98542327D01*
X96151921Y-98558831D01*
X96155508Y-98588888D01*
X96166400Y-98635041D01*
X96172937Y-98658744D01*
X96223581Y-98802064D01*
X96291554Y-98938721D01*
X96374522Y-99064459D01*
X96437432Y-99140584D01*
X96466623Y-99170447D01*
X96502935Y-99204194D01*
X96542656Y-99238777D01*
X96582070Y-99271152D01*
X96617463Y-99298272D01*
X96645120Y-99317090D01*
X96661328Y-99324562D01*
X96661805Y-99324583D01*
X96671740Y-99317556D01*
X96694930Y-99297693D01*
X96729365Y-99266824D01*
X96773039Y-99226776D01*
X96823940Y-99179379D01*
X96880061Y-99126462D01*
X96893908Y-99113310D01*
X96952803Y-99056667D01*
X97005329Y-99004927D01*
X97049696Y-98959943D01*
X97084114Y-98923568D01*
X97106791Y-98897656D01*
X97115939Y-98884060D01*
X97116042Y-98883366D01*
X97106167Y-98866831D01*
X97077385Y-98844924D01*
X97047522Y-98827410D01*
X96980288Y-98782825D01*
X96915132Y-98725236D01*
X96858231Y-98660804D01*
X96816471Y-98597030D01*
X96790693Y-98554580D01*
X96768190Y-98530234D01*
X96758262Y-98525269D01*
X96741769Y-98523866D01*
X96707149Y-98522811D01*
X96657439Y-98522130D01*
X96595675Y-98521848D01*
X96524895Y-98521994D01*
G36*
X106441478Y-98521994D02*
G01*
X106367023Y-98522570D01*
X106280646Y-98523609D01*
X106213079Y-98524816D01*
X106161967Y-98526348D01*
X106124953Y-98528363D01*
X106099680Y-98531018D01*
X106083794Y-98534471D01*
X106074937Y-98538880D01*
X106071838Y-98542327D01*
X106068504Y-98558831D01*
X106072091Y-98588888D01*
X106082984Y-98635041D01*
X106089520Y-98658744D01*
X106140164Y-98802064D01*
X106208137Y-98938721D01*
X106291105Y-99064459D01*
X106354015Y-99140584D01*
X106383206Y-99170447D01*
X106419519Y-99204194D01*
X106459239Y-99238777D01*
X106498653Y-99271152D01*
X106534046Y-99298272D01*
X106561704Y-99317090D01*
X106577911Y-99324562D01*
X106578389Y-99324583D01*
X106588323Y-99317556D01*
X106611513Y-99297693D01*
X106645949Y-99266824D01*
X106689622Y-99226776D01*
X106740523Y-99179379D01*
X106796644Y-99126462D01*
X106810492Y-99113310D01*
X106869386Y-99056667D01*
X106921912Y-99004927D01*
X106966279Y-98959943D01*
X107000697Y-98923568D01*
X107023375Y-98897656D01*
X107032522Y-98884060D01*
X107032625Y-98883366D01*
X107022750Y-98866831D01*
X106993969Y-98844924D01*
X106964105Y-98827410D01*
X106896872Y-98782825D01*
X106831716Y-98725236D01*
X106774815Y-98660804D01*
X106733054Y-98597030D01*
X106707277Y-98554580D01*
X106684773Y-98530234D01*
X106674846Y-98525269D01*
X106658353Y-98523866D01*
X106623733Y-98522811D01*
X106574022Y-98522130D01*
X106512259Y-98521848D01*
X106441478Y-98521994D01*
G37*
X106441478Y-98521994D02*
X106367023Y-98522570D01*
X106280646Y-98523609D01*
X106213079Y-98524816D01*
X106161967Y-98526348D01*
X106124953Y-98528363D01*
X106099680Y-98531018D01*
X106083794Y-98534471D01*
X106074937Y-98538880D01*
X106071838Y-98542327D01*
X106068504Y-98558831D01*
X106072091Y-98588888D01*
X106082984Y-98635041D01*
X106089520Y-98658744D01*
X106140164Y-98802064D01*
X106208137Y-98938721D01*
X106291105Y-99064459D01*
X106354015Y-99140584D01*
X106383206Y-99170447D01*
X106419519Y-99204194D01*
X106459239Y-99238777D01*
X106498653Y-99271152D01*
X106534046Y-99298272D01*
X106561704Y-99317090D01*
X106577911Y-99324562D01*
X106578389Y-99324583D01*
X106588323Y-99317556D01*
X106611513Y-99297693D01*
X106645949Y-99266824D01*
X106689622Y-99226776D01*
X106740523Y-99179379D01*
X106796644Y-99126462D01*
X106810492Y-99113310D01*
X106869386Y-99056667D01*
X106921912Y-99004927D01*
X106966279Y-98959943D01*
X107000697Y-98923568D01*
X107023375Y-98897656D01*
X107032522Y-98884060D01*
X107032625Y-98883366D01*
X107022750Y-98866831D01*
X106993969Y-98844924D01*
X106964105Y-98827410D01*
X106896872Y-98782825D01*
X106831716Y-98725236D01*
X106774815Y-98660804D01*
X106733054Y-98597030D01*
X106707277Y-98554580D01*
X106684773Y-98530234D01*
X106674846Y-98525269D01*
X106658353Y-98523866D01*
X106623733Y-98522811D01*
X106574022Y-98522130D01*
X106512259Y-98521848D01*
X106441478Y-98521994D01*
G36*
X102963615Y-97906471D02*
G01*
X102867758Y-97906686D01*
X102788946Y-97907137D01*
X102725117Y-97907898D01*
X102674211Y-97909045D01*
X102634166Y-97910653D01*
X102602922Y-97912799D01*
X102578417Y-97915557D01*
X102558590Y-97919003D01*
X102541381Y-97923211D01*
X102530380Y-97926467D01*
X102439878Y-97965451D01*
X102358594Y-98022136D01*
X102289774Y-98093914D01*
X102251469Y-98150501D01*
X102214283Y-98234965D01*
X102194552Y-98326555D01*
X102192132Y-98420962D01*
X102206880Y-98513879D01*
X102238653Y-98600996D01*
X102268153Y-98652157D01*
X102303783Y-98704689D01*
X102264400Y-98765622D01*
X102222888Y-98848092D01*
X102197956Y-98938642D01*
X102189952Y-99032610D01*
X102199224Y-99125331D01*
X102226119Y-99212141D01*
X102230420Y-99221669D01*
X102266033Y-99283135D01*
X102313189Y-99343794D01*
X102366200Y-99397196D01*
X102419378Y-99436894D01*
X102421169Y-99437953D01*
X102468636Y-99461359D01*
X102523745Y-99481869D01*
X102578523Y-99496987D01*
X102624997Y-99504216D01*
X102633664Y-99504500D01*
X102646856Y-99503599D01*
X102660133Y-99499714D01*
X102675654Y-99491068D01*
X102695579Y-99475885D01*
X102722067Y-99452390D01*
X102757278Y-99418807D01*
X102803371Y-99373359D01*
X102851200Y-99325594D01*
X102913449Y-99262564D01*
X102960936Y-99212842D01*
X102994518Y-99175451D01*
X103015053Y-99149415D01*
X103023400Y-99133759D01*
X103023394Y-99129802D01*
X103017639Y-99122650D01*
X103004575Y-99117799D01*
X102980786Y-99114835D01*
X102942856Y-99113345D01*
X102887372Y-99112917D01*
X102883765Y-99112917D01*
X102811465Y-99111531D01*
X102757690Y-99106634D01*
X102719934Y-99097117D01*
X102695693Y-99081869D01*
X102682460Y-99059783D01*
X102677732Y-99029747D01*
X102677584Y-99021612D01*
X102684883Y-98996236D01*
X102702551Y-98970590D01*
X102703561Y-98969560D01*
X102713028Y-98960630D01*
X102723093Y-98954023D01*
X102736882Y-98949392D01*
X102757520Y-98946384D01*
X102788133Y-98944649D01*
X102831847Y-98943837D01*
X102891788Y-98943598D01*
X102935262Y-98943583D01*
X103007698Y-98943808D01*
X103061650Y-98944615D01*
X103099795Y-98946205D01*
X103124813Y-98948779D01*
X103139381Y-98952539D01*
X103146179Y-98957683D01*
X103147078Y-98959458D01*
X103161553Y-98973025D01*
X103172388Y-98975333D01*
X103184994Y-98968024D01*
X103210317Y-98947312D01*
X103246368Y-98915019D01*
X103291160Y-98872964D01*
X103342705Y-98822971D01*
X103389679Y-98776262D01*
X103587750Y-98577191D01*
X103587750Y-98319167D01*
X103143250Y-98319167D01*
X103143250Y-98358408D01*
X103139360Y-98387706D01*
X103124990Y-98414100D01*
X103104061Y-98437783D01*
X103064871Y-98477917D01*
X102895722Y-98477917D01*
X102831928Y-98477749D01*
X102785771Y-98476966D01*
X102753724Y-98475148D01*
X102732259Y-98471877D01*
X102717848Y-98466733D01*
X102706964Y-98459297D01*
X102702078Y-98454905D01*
X102681728Y-98422783D01*
X102679281Y-98385788D01*
X102694825Y-98350476D01*
X102700595Y-98343661D01*
X102709125Y-98335305D01*
X102718822Y-98329104D01*
X102732740Y-98324737D01*
X102753935Y-98321882D01*
X102785460Y-98320220D01*
X102830368Y-98319427D01*
X102891715Y-98319183D01*
X102933429Y-98319167D01*
X103143250Y-98319167D01*
X103587750Y-98319167D01*
X103587750Y-98254504D01*
X103587499Y-98155016D01*
X103586707Y-98075188D01*
X103585317Y-98013518D01*
X103583272Y-97968506D01*
X103580516Y-97938648D01*
X103576992Y-97922445D01*
X103575050Y-97919116D01*
X103566211Y-97915915D01*
X103545764Y-97913243D01*
X103512381Y-97911066D01*
X103464737Y-97909351D01*
X103401504Y-97908063D01*
X103321355Y-97907168D01*
X103222964Y-97906632D01*
X103105004Y-97906422D01*
X103078577Y-97906416D01*
X102963615Y-97906471D01*
G37*
X102963615Y-97906471D02*
X102867758Y-97906686D01*
X102788946Y-97907137D01*
X102725117Y-97907898D01*
X102674211Y-97909045D01*
X102634166Y-97910653D01*
X102602922Y-97912799D01*
X102578417Y-97915557D01*
X102558590Y-97919003D01*
X102541381Y-97923211D01*
X102530380Y-97926467D01*
X102439878Y-97965451D01*
X102358594Y-98022136D01*
X102289774Y-98093914D01*
X102251469Y-98150501D01*
X102214283Y-98234965D01*
X102194552Y-98326555D01*
X102192132Y-98420962D01*
X102206880Y-98513879D01*
X102238653Y-98600996D01*
X102268153Y-98652157D01*
X102303783Y-98704689D01*
X102264400Y-98765622D01*
X102222888Y-98848092D01*
X102197956Y-98938642D01*
X102189952Y-99032610D01*
X102199224Y-99125331D01*
X102226119Y-99212141D01*
X102230420Y-99221669D01*
X102266033Y-99283135D01*
X102313189Y-99343794D01*
X102366200Y-99397196D01*
X102419378Y-99436894D01*
X102421169Y-99437953D01*
X102468636Y-99461359D01*
X102523745Y-99481869D01*
X102578523Y-99496987D01*
X102624997Y-99504216D01*
X102633664Y-99504500D01*
X102646856Y-99503599D01*
X102660133Y-99499714D01*
X102675654Y-99491068D01*
X102695579Y-99475885D01*
X102722067Y-99452390D01*
X102757278Y-99418807D01*
X102803371Y-99373359D01*
X102851200Y-99325594D01*
X102913449Y-99262564D01*
X102960936Y-99212842D01*
X102994518Y-99175451D01*
X103015053Y-99149415D01*
X103023400Y-99133759D01*
X103023394Y-99129802D01*
X103017639Y-99122650D01*
X103004575Y-99117799D01*
X102980786Y-99114835D01*
X102942856Y-99113345D01*
X102887372Y-99112917D01*
X102883765Y-99112917D01*
X102811465Y-99111531D01*
X102757690Y-99106634D01*
X102719934Y-99097117D01*
X102695693Y-99081869D01*
X102682460Y-99059783D01*
X102677732Y-99029747D01*
X102677584Y-99021612D01*
X102684883Y-98996236D01*
X102702551Y-98970590D01*
X102703561Y-98969560D01*
X102713028Y-98960630D01*
X102723093Y-98954023D01*
X102736882Y-98949392D01*
X102757520Y-98946384D01*
X102788133Y-98944649D01*
X102831847Y-98943837D01*
X102891788Y-98943598D01*
X102935262Y-98943583D01*
X103007698Y-98943808D01*
X103061650Y-98944615D01*
X103099795Y-98946205D01*
X103124813Y-98948779D01*
X103139381Y-98952539D01*
X103146179Y-98957683D01*
X103147078Y-98959458D01*
X103161553Y-98973025D01*
X103172388Y-98975333D01*
X103184994Y-98968024D01*
X103210317Y-98947312D01*
X103246368Y-98915019D01*
X103291160Y-98872964D01*
X103342705Y-98822971D01*
X103389679Y-98776262D01*
X103587750Y-98577191D01*
X103587750Y-98319167D01*
X103143250Y-98319167D01*
X103143250Y-98358408D01*
X103139360Y-98387706D01*
X103124990Y-98414100D01*
X103104061Y-98437783D01*
X103064871Y-98477917D01*
X102895722Y-98477917D01*
X102831928Y-98477749D01*
X102785771Y-98476966D01*
X102753724Y-98475148D01*
X102732259Y-98471877D01*
X102717848Y-98466733D01*
X102706964Y-98459297D01*
X102702078Y-98454905D01*
X102681728Y-98422783D01*
X102679281Y-98385788D01*
X102694825Y-98350476D01*
X102700595Y-98343661D01*
X102709125Y-98335305D01*
X102718822Y-98329104D01*
X102732740Y-98324737D01*
X102753935Y-98321882D01*
X102785460Y-98320220D01*
X102830368Y-98319427D01*
X102891715Y-98319183D01*
X102933429Y-98319167D01*
X103143250Y-98319167D01*
X103587750Y-98319167D01*
X103587750Y-98254504D01*
X103587499Y-98155016D01*
X103586707Y-98075188D01*
X103585317Y-98013518D01*
X103583272Y-97968506D01*
X103580516Y-97938648D01*
X103576992Y-97922445D01*
X103575050Y-97919116D01*
X103566211Y-97915915D01*
X103545764Y-97913243D01*
X103512381Y-97911066D01*
X103464737Y-97909351D01*
X103401504Y-97908063D01*
X103321355Y-97907168D01*
X103222964Y-97906632D01*
X103105004Y-97906422D01*
X103078577Y-97906416D01*
X102963615Y-97906471D01*
G36*
X92909752Y-98930764D02*
G01*
X92894029Y-98941134D01*
X92871536Y-98959773D01*
X92840566Y-98988160D01*
X92799413Y-99027769D01*
X92746368Y-99080079D01*
X92702821Y-99123471D01*
X92496417Y-99329671D01*
X92496417Y-99405746D01*
X92496591Y-99441403D01*
X92498849Y-99468325D01*
X92505797Y-99487737D01*
X92520041Y-99500867D01*
X92544187Y-99508940D01*
X92580840Y-99513184D01*
X92632606Y-99514825D01*
X92702092Y-99515089D01*
X92728711Y-99515083D01*
X92802252Y-99514751D01*
X92857171Y-99513637D01*
X92896003Y-99511568D01*
X92921284Y-99508368D01*
X92935549Y-99503864D01*
X92939803Y-99500551D01*
X92943858Y-99487479D01*
X92946815Y-99458603D01*
X92948712Y-99412742D01*
X92949586Y-99348717D01*
X92949476Y-99265346D01*
X92949036Y-99213302D01*
X92948056Y-99129634D01*
X92946936Y-99064654D01*
X92945491Y-99015884D01*
X92943535Y-98980844D01*
X92940883Y-98957057D01*
X92937348Y-98942044D01*
X92932745Y-98933326D01*
X92927717Y-98928928D01*
X92920412Y-98927188D01*
X92909752Y-98930764D01*
G37*
X92909752Y-98930764D02*
X92894029Y-98941134D01*
X92871536Y-98959773D01*
X92840566Y-98988160D01*
X92799413Y-99027769D01*
X92746368Y-99080079D01*
X92702821Y-99123471D01*
X92496417Y-99329671D01*
X92496417Y-99405746D01*
X92496591Y-99441403D01*
X92498849Y-99468325D01*
X92505797Y-99487737D01*
X92520041Y-99500867D01*
X92544187Y-99508940D01*
X92580840Y-99513184D01*
X92632606Y-99514825D01*
X92702092Y-99515089D01*
X92728711Y-99515083D01*
X92802252Y-99514751D01*
X92857171Y-99513637D01*
X92896003Y-99511568D01*
X92921284Y-99508368D01*
X92935549Y-99503864D01*
X92939803Y-99500551D01*
X92943858Y-99487479D01*
X92946815Y-99458603D01*
X92948712Y-99412742D01*
X92949586Y-99348717D01*
X92949476Y-99265346D01*
X92949036Y-99213302D01*
X92948056Y-99129634D01*
X92946936Y-99064654D01*
X92945491Y-99015884D01*
X92943535Y-98980844D01*
X92940883Y-98957057D01*
X92937348Y-98942044D01*
X92932745Y-98933326D01*
X92927717Y-98928928D01*
X92920412Y-98927188D01*
X92909752Y-98930764D01*
G36*
X94736602Y-98654462D02*
G01*
X94713280Y-98674788D01*
X94679286Y-98706260D01*
X94636709Y-98746910D01*
X94587638Y-98794772D01*
X94536250Y-98845789D01*
X94337917Y-99044328D01*
X94337917Y-99267006D01*
X94338348Y-99350173D01*
X94339697Y-99413711D01*
X94342044Y-99459139D01*
X94345473Y-99487979D01*
X94350065Y-99501750D01*
X94350617Y-99502383D01*
X94363730Y-99507404D01*
X94392605Y-99511093D01*
X94438691Y-99513537D01*
X94503441Y-99514824D01*
X94561528Y-99515083D01*
X94633108Y-99514828D01*
X94686442Y-99513913D01*
X94724448Y-99512111D01*
X94750043Y-99509197D01*
X94766143Y-99504946D01*
X94775665Y-99499131D01*
X94776370Y-99498452D01*
X94780688Y-99492014D01*
X94784202Y-99480856D01*
X94786992Y-99462967D01*
X94789137Y-99436338D01*
X94790718Y-99398960D01*
X94791814Y-99348823D01*
X94792506Y-99283917D01*
X94792874Y-99202232D01*
X94792998Y-99101758D01*
X94793000Y-99081166D01*
X94792913Y-98977035D01*
X94792595Y-98892060D01*
X94791968Y-98824231D01*
X94790952Y-98771540D01*
X94789466Y-98731976D01*
X94787431Y-98703529D01*
X94784765Y-98684190D01*
X94781390Y-98671950D01*
X94777224Y-98664798D01*
X94776370Y-98663881D01*
X94757736Y-98650440D01*
X94747161Y-98647250D01*
X94736602Y-98654462D01*
G37*
X94736602Y-98654462D02*
X94713280Y-98674788D01*
X94679286Y-98706260D01*
X94636709Y-98746910D01*
X94587638Y-98794772D01*
X94536250Y-98845789D01*
X94337917Y-99044328D01*
X94337917Y-99267006D01*
X94338348Y-99350173D01*
X94339697Y-99413711D01*
X94342044Y-99459139D01*
X94345473Y-99487979D01*
X94350065Y-99501750D01*
X94350617Y-99502383D01*
X94363730Y-99507404D01*
X94392605Y-99511093D01*
X94438691Y-99513537D01*
X94503441Y-99514824D01*
X94561528Y-99515083D01*
X94633108Y-99514828D01*
X94686442Y-99513913D01*
X94724448Y-99512111D01*
X94750043Y-99509197D01*
X94766143Y-99504946D01*
X94775665Y-99499131D01*
X94776370Y-99498452D01*
X94780688Y-99492014D01*
X94784202Y-99480856D01*
X94786992Y-99462967D01*
X94789137Y-99436338D01*
X94790718Y-99398960D01*
X94791814Y-99348823D01*
X94792506Y-99283917D01*
X94792874Y-99202232D01*
X94792998Y-99101758D01*
X94793000Y-99081166D01*
X94792913Y-98977035D01*
X94792595Y-98892060D01*
X94791968Y-98824231D01*
X94790952Y-98771540D01*
X94789466Y-98731976D01*
X94787431Y-98703529D01*
X94784765Y-98684190D01*
X94781390Y-98671950D01*
X94777224Y-98664798D01*
X94776370Y-98663881D01*
X94757736Y-98650440D01*
X94747161Y-98647250D01*
X94736602Y-98654462D01*
G36*
X96021231Y-98274265D02*
G01*
X96005810Y-98284346D01*
X95983755Y-98302604D01*
X95953355Y-98330523D01*
X95912900Y-98369590D01*
X95860677Y-98421290D01*
X95814121Y-98467879D01*
X95607917Y-98674799D01*
X95607917Y-99078310D01*
X95608004Y-99182838D01*
X95608318Y-99268202D01*
X95608939Y-99336404D01*
X95609945Y-99389447D01*
X95611416Y-99429333D01*
X95613431Y-99458063D01*
X95616069Y-99477641D01*
X95619410Y-99490068D01*
X95623532Y-99497347D01*
X95624548Y-99498452D01*
X95641060Y-99504601D01*
X95674336Y-99509518D01*
X95720256Y-99513182D01*
X95774701Y-99515571D01*
X95833551Y-99516665D01*
X95892688Y-99516442D01*
X95947992Y-99514880D01*
X95995345Y-99511958D01*
X96030626Y-99507656D01*
X96049717Y-99501950D01*
X96051209Y-99500664D01*
X96053966Y-99490524D01*
X96056248Y-99466682D01*
X96058072Y-99428165D01*
X96059452Y-99373999D01*
X96060402Y-99303212D01*
X96060937Y-99214831D01*
X96061071Y-99107884D01*
X96060819Y-98981396D01*
X96060443Y-98885336D01*
X96059826Y-98757069D01*
X96059198Y-98648325D01*
X96058501Y-98557461D01*
X96057677Y-98482834D01*
X96056671Y-98422799D01*
X96055423Y-98375714D01*
X96053876Y-98339935D01*
X96051973Y-98313818D01*
X96049657Y-98295721D01*
X96046870Y-98283999D01*
X96043554Y-98277010D01*
X96039652Y-98273111D01*
X96039017Y-98272693D01*
X96031730Y-98270876D01*
X96021231Y-98274265D01*
G37*
X96021231Y-98274265D02*
X96005810Y-98284346D01*
X95983755Y-98302604D01*
X95953355Y-98330523D01*
X95912900Y-98369590D01*
X95860677Y-98421290D01*
X95814121Y-98467879D01*
X95607917Y-98674799D01*
X95607917Y-99078310D01*
X95608004Y-99182838D01*
X95608318Y-99268202D01*
X95608939Y-99336404D01*
X95609945Y-99389447D01*
X95611416Y-99429333D01*
X95613431Y-99458063D01*
X95616069Y-99477641D01*
X95619410Y-99490068D01*
X95623532Y-99497347D01*
X95624548Y-99498452D01*
X95641060Y-99504601D01*
X95674336Y-99509518D01*
X95720256Y-99513182D01*
X95774701Y-99515571D01*
X95833551Y-99516665D01*
X95892688Y-99516442D01*
X95947992Y-99514880D01*
X95995345Y-99511958D01*
X96030626Y-99507656D01*
X96049717Y-99501950D01*
X96051209Y-99500664D01*
X96053966Y-99490524D01*
X96056248Y-99466682D01*
X96058072Y-99428165D01*
X96059452Y-99373999D01*
X96060402Y-99303212D01*
X96060937Y-99214831D01*
X96061071Y-99107884D01*
X96060819Y-98981396D01*
X96060443Y-98885336D01*
X96059826Y-98757069D01*
X96059198Y-98648325D01*
X96058501Y-98557461D01*
X96057677Y-98482834D01*
X96056671Y-98422799D01*
X96055423Y-98375714D01*
X96053876Y-98339935D01*
X96051973Y-98313818D01*
X96049657Y-98295721D01*
X96046870Y-98283999D01*
X96043554Y-98277010D01*
X96039652Y-98273111D01*
X96039017Y-98272693D01*
X96031730Y-98270876D01*
X96021231Y-98274265D01*
G36*
X98326445Y-97884053D02*
G01*
X98304608Y-97895085D01*
X98275560Y-97917212D01*
X98237659Y-97951210D01*
X98189266Y-97997852D01*
X98128739Y-98057915D01*
X98069440Y-98117186D01*
X97824436Y-98362023D01*
X97812649Y-98436881D01*
X97790245Y-98523123D01*
X97752049Y-98608569D01*
X97701829Y-98685772D01*
X97666145Y-98726395D01*
X97597171Y-98782744D01*
X97515829Y-98828544D01*
X97428183Y-98861229D01*
X97340299Y-98878232D01*
X97303002Y-98880083D01*
X97291454Y-98880982D01*
X97279266Y-98884711D01*
X97264623Y-98892824D01*
X97245711Y-98906871D01*
X97220714Y-98928404D01*
X97187819Y-98958974D01*
X97145211Y-99000134D01*
X97091076Y-99053434D01*
X97033811Y-99110271D01*
X96975913Y-99168094D01*
X96922676Y-99221746D01*
X96876023Y-99269250D01*
X96837878Y-99308629D01*
X96810165Y-99337908D01*
X96794807Y-99355109D01*
X96792528Y-99358212D01*
X96786800Y-99381598D01*
X96798701Y-99402126D01*
X96829717Y-99421809D01*
X96844279Y-99428412D01*
X96943138Y-99463060D01*
X97054969Y-99489550D01*
X97172844Y-99506929D01*
X97289831Y-99514244D01*
X97399003Y-99510544D01*
X97422959Y-99507950D01*
X97544458Y-99485005D01*
X97670337Y-99447041D01*
X97793189Y-99396623D01*
X97887566Y-99347144D01*
X97944761Y-99308703D01*
X98009083Y-99257420D01*
X98075650Y-99197888D01*
X98139584Y-99134696D01*
X98196002Y-99072435D01*
X98240025Y-99015696D01*
X98240197Y-99015447D01*
X98317567Y-98888969D01*
X98375636Y-98760817D01*
X98415417Y-98627681D01*
X98437925Y-98486253D01*
X98444250Y-98349301D01*
X98441179Y-98247390D01*
X98430992Y-98155396D01*
X98412229Y-98063945D01*
X98384870Y-97968209D01*
X98374484Y-97935385D01*
X98365089Y-97909783D01*
X98355045Y-97892177D01*
X98342710Y-97883342D01*
X98326445Y-97884053D01*
G37*
X98326445Y-97884053D02*
X98304608Y-97895085D01*
X98275560Y-97917212D01*
X98237659Y-97951210D01*
X98189266Y-97997852D01*
X98128739Y-98057915D01*
X98069440Y-98117186D01*
X97824436Y-98362023D01*
X97812649Y-98436881D01*
X97790245Y-98523123D01*
X97752049Y-98608569D01*
X97701829Y-98685772D01*
X97666145Y-98726395D01*
X97597171Y-98782744D01*
X97515829Y-98828544D01*
X97428183Y-98861229D01*
X97340299Y-98878232D01*
X97303002Y-98880083D01*
X97291454Y-98880982D01*
X97279266Y-98884711D01*
X97264623Y-98892824D01*
X97245711Y-98906871D01*
X97220714Y-98928404D01*
X97187819Y-98958974D01*
X97145211Y-99000134D01*
X97091076Y-99053434D01*
X97033811Y-99110271D01*
X96975913Y-99168094D01*
X96922676Y-99221746D01*
X96876023Y-99269250D01*
X96837878Y-99308629D01*
X96810165Y-99337908D01*
X96794807Y-99355109D01*
X96792528Y-99358212D01*
X96786800Y-99381598D01*
X96798701Y-99402126D01*
X96829717Y-99421809D01*
X96844279Y-99428412D01*
X96943138Y-99463060D01*
X97054969Y-99489550D01*
X97172844Y-99506929D01*
X97289831Y-99514244D01*
X97399003Y-99510544D01*
X97422959Y-99507950D01*
X97544458Y-99485005D01*
X97670337Y-99447041D01*
X97793189Y-99396623D01*
X97887566Y-99347144D01*
X97944761Y-99308703D01*
X98009083Y-99257420D01*
X98075650Y-99197888D01*
X98139584Y-99134696D01*
X98196002Y-99072435D01*
X98240025Y-99015696D01*
X98240197Y-99015447D01*
X98317567Y-98888969D01*
X98375636Y-98760817D01*
X98415417Y-98627681D01*
X98437925Y-98486253D01*
X98444250Y-98349301D01*
X98441179Y-98247390D01*
X98430992Y-98155396D01*
X98412229Y-98063945D01*
X98384870Y-97968209D01*
X98374484Y-97935385D01*
X98365089Y-97909783D01*
X98355045Y-97892177D01*
X98342710Y-97883342D01*
X98326445Y-97884053D01*
G36*
X100005338Y-97907404D02*
G01*
X99910117Y-97907819D01*
X99796222Y-97908445D01*
X99742913Y-97908755D01*
X99620504Y-97909491D01*
X99517347Y-97910207D01*
X99431530Y-97910985D01*
X99361138Y-97911910D01*
X99304257Y-97913063D01*
X99258975Y-97914529D01*
X99223377Y-97916389D01*
X99195550Y-97918726D01*
X99173580Y-97921625D01*
X99155553Y-97925167D01*
X99139555Y-97929436D01*
X99123674Y-97934515D01*
X99119949Y-97935768D01*
X99031052Y-97976394D01*
X98954341Y-98032825D01*
X98891090Y-98102729D01*
X98842575Y-98183775D01*
X98810069Y-98273631D01*
X98794848Y-98369965D01*
X98798186Y-98470444D01*
X98805110Y-98511791D01*
X98828239Y-98588184D01*
X98864456Y-98665450D01*
X98909522Y-98735588D01*
X98946507Y-98778630D01*
X98992440Y-98817794D01*
X99048180Y-98855158D01*
X99107186Y-98887071D01*
X99162915Y-98909881D01*
X99197390Y-98918628D01*
X99223172Y-98923635D01*
X99237166Y-98928074D01*
X99238000Y-98928987D01*
X99230740Y-98937045D01*
X99210076Y-98958272D01*
X99177690Y-98990985D01*
X99135260Y-99033501D01*
X99084466Y-99084136D01*
X99026987Y-99141209D01*
X98965480Y-99202071D01*
X98893457Y-99273393D01*
X98835306Y-99331463D01*
X98789695Y-99377753D01*
X98755291Y-99413738D01*
X98730763Y-99440890D01*
X98714777Y-99460683D01*
X98706002Y-99474591D01*
X98703106Y-99484088D01*
X98704690Y-99490541D01*
X98709388Y-99496103D01*
X98717491Y-99500525D01*
X98731328Y-99503967D01*
X98753224Y-99506587D01*
X98785506Y-99508545D01*
X98830500Y-99510000D01*
X98890532Y-99511111D01*
X98967928Y-99512037D01*
X99027085Y-99512601D01*
X99337748Y-99515410D01*
X99835562Y-99017942D01*
X100333375Y-98520475D01*
X100334886Y-98382667D01*
X99803413Y-98382667D01*
X99751525Y-98435347D01*
X99699636Y-98488028D01*
X99513797Y-98491170D01*
X99452320Y-98492317D01*
X99397571Y-98493540D01*
X99353327Y-98494740D01*
X99323363Y-98495815D01*
X99312084Y-98496536D01*
X99290285Y-98493807D01*
X99284564Y-98490984D01*
X99265626Y-98468689D01*
X99252221Y-98435696D01*
X99248584Y-98409821D01*
X99248584Y-98382667D01*
X99803413Y-98382667D01*
X100334886Y-98382667D01*
X100336505Y-98235096D01*
X100337383Y-98149921D01*
X100337824Y-98083371D01*
X100337669Y-98032905D01*
X100336764Y-97995981D01*
X100334950Y-97970059D01*
X100332071Y-97952598D01*
X100327971Y-97941058D01*
X100322493Y-97932898D01*
X100317542Y-97927625D01*
X100312292Y-97922742D01*
X100305963Y-97918649D01*
X100296796Y-97915288D01*
X100283030Y-97912602D01*
X100262906Y-97910531D01*
X100234666Y-97909020D01*
X100196548Y-97908009D01*
X100146794Y-97907441D01*
X100083644Y-97907259D01*
X100005338Y-97907404D01*
G37*
X100005338Y-97907404D02*
X99910117Y-97907819D01*
X99796222Y-97908445D01*
X99742913Y-97908755D01*
X99620504Y-97909491D01*
X99517347Y-97910207D01*
X99431530Y-97910985D01*
X99361138Y-97911910D01*
X99304257Y-97913063D01*
X99258975Y-97914529D01*
X99223377Y-97916389D01*
X99195550Y-97918726D01*
X99173580Y-97921625D01*
X99155553Y-97925167D01*
X99139555Y-97929436D01*
X99123674Y-97934515D01*
X99119949Y-97935768D01*
X99031052Y-97976394D01*
X98954341Y-98032825D01*
X98891090Y-98102729D01*
X98842575Y-98183775D01*
X98810069Y-98273631D01*
X98794848Y-98369965D01*
X98798186Y-98470444D01*
X98805110Y-98511791D01*
X98828239Y-98588184D01*
X98864456Y-98665450D01*
X98909522Y-98735588D01*
X98946507Y-98778630D01*
X98992440Y-98817794D01*
X99048180Y-98855158D01*
X99107186Y-98887071D01*
X99162915Y-98909881D01*
X99197390Y-98918628D01*
X99223172Y-98923635D01*
X99237166Y-98928074D01*
X99238000Y-98928987D01*
X99230740Y-98937045D01*
X99210076Y-98958272D01*
X99177690Y-98990985D01*
X99135260Y-99033501D01*
X99084466Y-99084136D01*
X99026987Y-99141209D01*
X98965480Y-99202071D01*
X98893457Y-99273393D01*
X98835306Y-99331463D01*
X98789695Y-99377753D01*
X98755291Y-99413738D01*
X98730763Y-99440890D01*
X98714777Y-99460683D01*
X98706002Y-99474591D01*
X98703106Y-99484088D01*
X98704690Y-99490541D01*
X98709388Y-99496103D01*
X98717491Y-99500525D01*
X98731328Y-99503967D01*
X98753224Y-99506587D01*
X98785506Y-99508545D01*
X98830500Y-99510000D01*
X98890532Y-99511111D01*
X98967928Y-99512037D01*
X99027085Y-99512601D01*
X99337748Y-99515410D01*
X99835562Y-99017942D01*
X100333375Y-98520475D01*
X100334886Y-98382667D01*
X99803413Y-98382667D01*
X99751525Y-98435347D01*
X99699636Y-98488028D01*
X99513797Y-98491170D01*
X99452320Y-98492317D01*
X99397571Y-98493540D01*
X99353327Y-98494740D01*
X99323363Y-98495815D01*
X99312084Y-98496536D01*
X99290285Y-98493807D01*
X99284564Y-98490984D01*
X99265626Y-98468689D01*
X99252221Y-98435696D01*
X99248584Y-98409821D01*
X99248584Y-98382667D01*
X99803413Y-98382667D01*
X100334886Y-98382667D01*
X100336505Y-98235096D01*
X100337383Y-98149921D01*
X100337824Y-98083371D01*
X100337669Y-98032905D01*
X100336764Y-97995981D01*
X100334950Y-97970059D01*
X100332071Y-97952598D01*
X100327971Y-97941058D01*
X100322493Y-97932898D01*
X100317542Y-97927625D01*
X100312292Y-97922742D01*
X100305963Y-97918649D01*
X100296796Y-97915288D01*
X100283030Y-97912602D01*
X100262906Y-97910531D01*
X100234666Y-97909020D01*
X100196548Y-97908009D01*
X100146794Y-97907441D01*
X100083644Y-97907259D01*
X100005338Y-97907404D01*
G36*
X101894582Y-98576696D02*
G01*
X101880456Y-98583759D01*
X101860857Y-98598125D01*
X101834018Y-98621336D01*
X101798173Y-98654935D01*
X101751555Y-98700465D01*
X101692397Y-98759469D01*
X101680105Y-98771817D01*
X101620551Y-98831786D01*
X101574286Y-98878846D01*
X101539633Y-98915056D01*
X101514914Y-98942476D01*
X101498454Y-98963166D01*
X101488577Y-98979187D01*
X101483605Y-98992598D01*
X101481863Y-99005459D01*
X101481667Y-99015654D01*
X101481667Y-99060000D01*
X101044576Y-99060000D01*
X100928648Y-99060168D01*
X100832508Y-99060699D01*
X100754781Y-99061631D01*
X100694091Y-99063003D01*
X100649062Y-99064855D01*
X100618318Y-99067224D01*
X100600483Y-99070150D01*
X100594784Y-99072700D01*
X100589763Y-99085813D01*
X100586074Y-99114688D01*
X100583630Y-99160774D01*
X100582343Y-99225523D01*
X100582084Y-99283611D01*
X100582339Y-99355190D01*
X100583254Y-99408525D01*
X100585056Y-99446531D01*
X100587970Y-99472125D01*
X100592221Y-99488225D01*
X100598036Y-99497747D01*
X100598715Y-99498452D01*
X100603964Y-99501902D01*
X100613321Y-99504847D01*
X100628349Y-99507325D01*
X100650610Y-99509376D01*
X100681669Y-99511038D01*
X100723088Y-99512351D01*
X100776429Y-99513354D01*
X100843257Y-99514086D01*
X100925133Y-99514586D01*
X101023620Y-99514892D01*
X101140283Y-99515045D01*
X101264169Y-99515083D01*
X101401052Y-99515014D01*
X101518220Y-99514786D01*
X101617127Y-99514367D01*
X101699224Y-99513726D01*
X101765963Y-99512830D01*
X101818797Y-99511648D01*
X101859177Y-99510148D01*
X101888557Y-99508299D01*
X101908387Y-99506068D01*
X101920120Y-99503424D01*
X101924986Y-99500631D01*
X101928144Y-99489664D01*
X101930668Y-99464438D01*
X101932579Y-99423880D01*
X101933898Y-99366915D01*
X101934647Y-99292471D01*
X101934846Y-99199473D01*
X101934517Y-99086848D01*
X101934219Y-99032319D01*
X101931459Y-98578458D01*
X101905000Y-98575391D01*
X101894582Y-98576696D01*
G37*
X101894582Y-98576696D02*
X101880456Y-98583759D01*
X101860857Y-98598125D01*
X101834018Y-98621336D01*
X101798173Y-98654935D01*
X101751555Y-98700465D01*
X101692397Y-98759469D01*
X101680105Y-98771817D01*
X101620551Y-98831786D01*
X101574286Y-98878846D01*
X101539633Y-98915056D01*
X101514914Y-98942476D01*
X101498454Y-98963166D01*
X101488577Y-98979187D01*
X101483605Y-98992598D01*
X101481863Y-99005459D01*
X101481667Y-99015654D01*
X101481667Y-99060000D01*
X101044576Y-99060000D01*
X100928648Y-99060168D01*
X100832508Y-99060699D01*
X100754781Y-99061631D01*
X100694091Y-99063003D01*
X100649062Y-99064855D01*
X100618318Y-99067224D01*
X100600483Y-99070150D01*
X100594784Y-99072700D01*
X100589763Y-99085813D01*
X100586074Y-99114688D01*
X100583630Y-99160774D01*
X100582343Y-99225523D01*
X100582084Y-99283611D01*
X100582339Y-99355190D01*
X100583254Y-99408525D01*
X100585056Y-99446531D01*
X100587970Y-99472125D01*
X100592221Y-99488225D01*
X100598036Y-99497747D01*
X100598715Y-99498452D01*
X100603964Y-99501902D01*
X100613321Y-99504847D01*
X100628349Y-99507325D01*
X100650610Y-99509376D01*
X100681669Y-99511038D01*
X100723088Y-99512351D01*
X100776429Y-99513354D01*
X100843257Y-99514086D01*
X100925133Y-99514586D01*
X101023620Y-99514892D01*
X101140283Y-99515045D01*
X101264169Y-99515083D01*
X101401052Y-99515014D01*
X101518220Y-99514786D01*
X101617127Y-99514367D01*
X101699224Y-99513726D01*
X101765963Y-99512830D01*
X101818797Y-99511648D01*
X101859177Y-99510148D01*
X101888557Y-99508299D01*
X101908387Y-99506068D01*
X101920120Y-99503424D01*
X101924986Y-99500631D01*
X101928144Y-99489664D01*
X101930668Y-99464438D01*
X101932579Y-99423880D01*
X101933898Y-99366915D01*
X101934647Y-99292471D01*
X101934846Y-99199473D01*
X101934517Y-99086848D01*
X101934219Y-99032319D01*
X101931459Y-98578458D01*
X101905000Y-98575391D01*
X101894582Y-98576696D01*
G36*
X103535841Y-98720564D02*
G01*
X103512916Y-98742001D01*
X103478643Y-98774984D01*
X103434782Y-98817755D01*
X103383094Y-98868556D01*
X103325339Y-98925628D01*
X103263278Y-98987213D01*
X103198670Y-99051551D01*
X103133278Y-99116884D01*
X103068860Y-99181453D01*
X103007178Y-99243500D01*
X102949991Y-99301266D01*
X102899062Y-99352993D01*
X102856149Y-99396921D01*
X102823013Y-99431292D01*
X102801416Y-99454348D01*
X102793236Y-99464077D01*
X102790765Y-99485135D01*
X102800069Y-99498473D01*
X102806753Y-99502963D01*
X102818290Y-99506574D01*
X102836785Y-99509394D01*
X102864342Y-99511514D01*
X102903067Y-99513023D01*
X102955064Y-99514009D01*
X103022438Y-99514564D01*
X103107294Y-99514775D01*
X103183694Y-99514761D01*
X103288915Y-99514353D01*
X103379336Y-99513350D01*
X103453720Y-99511788D01*
X103510828Y-99509701D01*
X103549419Y-99507127D01*
X103568257Y-99504100D01*
X103569230Y-99503652D01*
X103574113Y-99499504D01*
X103578059Y-99491942D01*
X103581166Y-99478885D01*
X103583533Y-99458249D01*
X103585259Y-99427951D01*
X103586444Y-99385907D01*
X103587185Y-99330036D01*
X103587583Y-99258253D01*
X103587735Y-99168475D01*
X103587750Y-99113686D01*
X103587639Y-99011884D01*
X103587252Y-98929254D01*
X103586510Y-98863806D01*
X103585335Y-98813547D01*
X103583648Y-98776484D01*
X103581370Y-98750626D01*
X103578422Y-98733979D01*
X103574725Y-98724553D01*
X103572231Y-98721628D01*
X103553978Y-98712470D01*
X103545657Y-98712434D01*
X103535841Y-98720564D01*
G37*
X103535841Y-98720564D02*
X103512916Y-98742001D01*
X103478643Y-98774984D01*
X103434782Y-98817755D01*
X103383094Y-98868556D01*
X103325339Y-98925628D01*
X103263278Y-98987213D01*
X103198670Y-99051551D01*
X103133278Y-99116884D01*
X103068860Y-99181453D01*
X103007178Y-99243500D01*
X102949991Y-99301266D01*
X102899062Y-99352993D01*
X102856149Y-99396921D01*
X102823013Y-99431292D01*
X102801416Y-99454348D01*
X102793236Y-99464077D01*
X102790765Y-99485135D01*
X102800069Y-99498473D01*
X102806753Y-99502963D01*
X102818290Y-99506574D01*
X102836785Y-99509394D01*
X102864342Y-99511514D01*
X102903067Y-99513023D01*
X102955064Y-99514009D01*
X103022438Y-99514564D01*
X103107294Y-99514775D01*
X103183694Y-99514761D01*
X103288915Y-99514353D01*
X103379336Y-99513350D01*
X103453720Y-99511788D01*
X103510828Y-99509701D01*
X103549419Y-99507127D01*
X103568257Y-99504100D01*
X103569230Y-99503652D01*
X103574113Y-99499504D01*
X103578059Y-99491942D01*
X103581166Y-99478885D01*
X103583533Y-99458249D01*
X103585259Y-99427951D01*
X103586444Y-99385907D01*
X103587185Y-99330036D01*
X103587583Y-99258253D01*
X103587735Y-99168475D01*
X103587750Y-99113686D01*
X103587639Y-99011884D01*
X103587252Y-98929254D01*
X103586510Y-98863806D01*
X103585335Y-98813547D01*
X103583648Y-98776484D01*
X103581370Y-98750626D01*
X103578422Y-98733979D01*
X103574725Y-98724553D01*
X103572231Y-98721628D01*
X103553978Y-98712470D01*
X103545657Y-98712434D01*
X103535841Y-98720564D01*
G36*
X105091143Y-98930434D02*
G01*
X105075716Y-98940521D01*
X105053654Y-98958787D01*
X105023245Y-98986716D01*
X104982778Y-99025795D01*
X104930542Y-99077507D01*
X104884038Y-99124045D01*
X104677834Y-99330966D01*
X104677834Y-99406394D01*
X104678015Y-99441839D01*
X104680295Y-99468600D01*
X104687279Y-99487897D01*
X104701575Y-99500949D01*
X104725787Y-99508974D01*
X104762522Y-99513193D01*
X104814386Y-99514825D01*
X104883984Y-99515089D01*
X104910127Y-99515083D01*
X104983669Y-99514751D01*
X105038588Y-99513637D01*
X105077420Y-99511568D01*
X105102701Y-99508368D01*
X105116966Y-99503864D01*
X105121219Y-99500551D01*
X105125275Y-99487479D01*
X105128232Y-99458603D01*
X105130129Y-99412742D01*
X105131003Y-99348717D01*
X105130893Y-99265346D01*
X105130453Y-99213302D01*
X105129476Y-99129697D01*
X105128366Y-99064774D01*
X105126934Y-99016051D01*
X105124993Y-98981045D01*
X105122354Y-98957271D01*
X105118830Y-98942247D01*
X105114233Y-98933489D01*
X105108934Y-98928855D01*
X105101645Y-98927040D01*
X105091143Y-98930434D01*
G37*
X105091143Y-98930434D02*
X105075716Y-98940521D01*
X105053654Y-98958787D01*
X105023245Y-98986716D01*
X104982778Y-99025795D01*
X104930542Y-99077507D01*
X104884038Y-99124045D01*
X104677834Y-99330966D01*
X104677834Y-99406394D01*
X104678015Y-99441839D01*
X104680295Y-99468600D01*
X104687279Y-99487897D01*
X104701575Y-99500949D01*
X104725787Y-99508974D01*
X104762522Y-99513193D01*
X104814386Y-99514825D01*
X104883984Y-99515089D01*
X104910127Y-99515083D01*
X104983669Y-99514751D01*
X105038588Y-99513637D01*
X105077420Y-99511568D01*
X105102701Y-99508368D01*
X105116966Y-99503864D01*
X105121219Y-99500551D01*
X105125275Y-99487479D01*
X105128232Y-99458603D01*
X105130129Y-99412742D01*
X105131003Y-99348717D01*
X105130893Y-99265346D01*
X105130453Y-99213302D01*
X105129476Y-99129697D01*
X105128366Y-99064774D01*
X105126934Y-99016051D01*
X105124993Y-98981045D01*
X105122354Y-98957271D01*
X105118830Y-98942247D01*
X105114233Y-98933489D01*
X105108934Y-98928855D01*
X105101645Y-98927040D01*
X105091143Y-98930434D01*
G36*
X108243028Y-97884053D02*
G01*
X108221192Y-97895085D01*
X108192143Y-97917212D01*
X108154242Y-97951210D01*
X108105849Y-97997852D01*
X108045322Y-98057915D01*
X107986023Y-98117186D01*
X107741020Y-98362023D01*
X107729232Y-98436881D01*
X107706829Y-98523123D01*
X107668633Y-98608569D01*
X107618412Y-98685772D01*
X107582729Y-98726395D01*
X107513755Y-98782744D01*
X107432412Y-98828544D01*
X107344766Y-98861229D01*
X107256882Y-98878232D01*
X107219585Y-98880083D01*
X107208038Y-98880982D01*
X107195850Y-98884711D01*
X107181207Y-98892824D01*
X107162294Y-98906871D01*
X107137297Y-98928404D01*
X107104403Y-98958974D01*
X107061795Y-99000134D01*
X107007659Y-99053434D01*
X106950394Y-99110271D01*
X106892496Y-99168094D01*
X106839259Y-99221746D01*
X106792606Y-99269250D01*
X106754462Y-99308629D01*
X106726749Y-99337908D01*
X106711391Y-99355109D01*
X106709111Y-99358212D01*
X106703383Y-99381598D01*
X106715285Y-99402126D01*
X106746300Y-99421809D01*
X106760862Y-99428412D01*
X106859721Y-99463060D01*
X106971553Y-99489550D01*
X107089427Y-99506929D01*
X107206415Y-99514244D01*
X107315586Y-99510544D01*
X107339542Y-99507950D01*
X107461042Y-99485005D01*
X107586920Y-99447041D01*
X107709773Y-99396623D01*
X107804149Y-99347144D01*
X107861345Y-99308703D01*
X107925666Y-99257420D01*
X107992234Y-99197888D01*
X108056167Y-99134696D01*
X108112585Y-99072435D01*
X108156608Y-99015696D01*
X108156780Y-99015447D01*
X108234150Y-98888969D01*
X108292219Y-98760817D01*
X108332001Y-98627681D01*
X108354508Y-98486253D01*
X108360834Y-98349301D01*
X108357763Y-98247390D01*
X108347576Y-98155396D01*
X108328812Y-98063945D01*
X108301453Y-97968209D01*
X108291067Y-97935385D01*
X108281673Y-97909783D01*
X108271628Y-97892177D01*
X108259293Y-97883342D01*
X108243028Y-97884053D01*
G37*
X108243028Y-97884053D02*
X108221192Y-97895085D01*
X108192143Y-97917212D01*
X108154242Y-97951210D01*
X108105849Y-97997852D01*
X108045322Y-98057915D01*
X107986023Y-98117186D01*
X107741020Y-98362023D01*
X107729232Y-98436881D01*
X107706829Y-98523123D01*
X107668633Y-98608569D01*
X107618412Y-98685772D01*
X107582729Y-98726395D01*
X107513755Y-98782744D01*
X107432412Y-98828544D01*
X107344766Y-98861229D01*
X107256882Y-98878232D01*
X107219585Y-98880083D01*
X107208038Y-98880982D01*
X107195850Y-98884711D01*
X107181207Y-98892824D01*
X107162294Y-98906871D01*
X107137297Y-98928404D01*
X107104403Y-98958974D01*
X107061795Y-99000134D01*
X107007659Y-99053434D01*
X106950394Y-99110271D01*
X106892496Y-99168094D01*
X106839259Y-99221746D01*
X106792606Y-99269250D01*
X106754462Y-99308629D01*
X106726749Y-99337908D01*
X106711391Y-99355109D01*
X106709111Y-99358212D01*
X106703383Y-99381598D01*
X106715285Y-99402126D01*
X106746300Y-99421809D01*
X106760862Y-99428412D01*
X106859721Y-99463060D01*
X106971553Y-99489550D01*
X107089427Y-99506929D01*
X107206415Y-99514244D01*
X107315586Y-99510544D01*
X107339542Y-99507950D01*
X107461042Y-99485005D01*
X107586920Y-99447041D01*
X107709773Y-99396623D01*
X107804149Y-99347144D01*
X107861345Y-99308703D01*
X107925666Y-99257420D01*
X107992234Y-99197888D01*
X108056167Y-99134696D01*
X108112585Y-99072435D01*
X108156608Y-99015696D01*
X108156780Y-99015447D01*
X108234150Y-98888969D01*
X108292219Y-98760817D01*
X108332001Y-98627681D01*
X108354508Y-98486253D01*
X108360834Y-98349301D01*
X108357763Y-98247390D01*
X108347576Y-98155396D01*
X108328812Y-98063945D01*
X108301453Y-97968209D01*
X108291067Y-97935385D01*
X108281673Y-97909783D01*
X108271628Y-97892177D01*
X108259293Y-97883342D01*
X108243028Y-97884053D01*
G36*
X100288532Y-98667011D02*
G01*
X100275295Y-98674221D01*
X100256589Y-98688556D01*
X100230601Y-98711548D01*
X100195522Y-98744728D01*
X100149541Y-98789627D01*
X100090845Y-98847778D01*
X100078300Y-98860257D01*
X99873000Y-99064578D01*
X99873000Y-99283783D01*
X99873217Y-99359262D01*
X99873996Y-99416343D01*
X99875534Y-99457791D01*
X99878024Y-99486374D01*
X99881663Y-99504855D01*
X99886644Y-99516001D01*
X99889631Y-99519619D01*
X99898655Y-99525603D01*
X99913963Y-99530002D01*
X99938474Y-99533039D01*
X99975103Y-99534942D01*
X100026768Y-99535937D01*
X100096386Y-99536248D01*
X100104473Y-99536250D01*
X100183351Y-99535731D01*
X100242537Y-99534118D01*
X100283481Y-99531321D01*
X100307634Y-99527255D01*
X100315384Y-99523550D01*
X100318831Y-99514226D01*
X100321663Y-99492860D01*
X100323921Y-99458054D01*
X100325645Y-99408406D01*
X100326878Y-99342519D01*
X100327662Y-99258991D01*
X100328036Y-99156425D01*
X100328084Y-99095297D01*
X100328061Y-98990659D01*
X100327922Y-98905181D01*
X100327562Y-98836857D01*
X100326878Y-98783679D01*
X100325765Y-98743641D01*
X100324118Y-98714736D01*
X100321833Y-98694958D01*
X100318806Y-98682300D01*
X100314932Y-98674755D01*
X100310106Y-98670316D01*
X100305842Y-98667841D01*
X100298111Y-98665395D01*
X100288532Y-98667011D01*
G37*
X100288532Y-98667011D02*
X100275295Y-98674221D01*
X100256589Y-98688556D01*
X100230601Y-98711548D01*
X100195522Y-98744728D01*
X100149541Y-98789627D01*
X100090845Y-98847778D01*
X100078300Y-98860257D01*
X99873000Y-99064578D01*
X99873000Y-99283783D01*
X99873217Y-99359262D01*
X99873996Y-99416343D01*
X99875534Y-99457791D01*
X99878024Y-99486374D01*
X99881663Y-99504855D01*
X99886644Y-99516001D01*
X99889631Y-99519619D01*
X99898655Y-99525603D01*
X99913963Y-99530002D01*
X99938474Y-99533039D01*
X99975103Y-99534942D01*
X100026768Y-99535937D01*
X100096386Y-99536248D01*
X100104473Y-99536250D01*
X100183351Y-99535731D01*
X100242537Y-99534118D01*
X100283481Y-99531321D01*
X100307634Y-99527255D01*
X100315384Y-99523550D01*
X100318831Y-99514226D01*
X100321663Y-99492860D01*
X100323921Y-99458054D01*
X100325645Y-99408406D01*
X100326878Y-99342519D01*
X100327662Y-99258991D01*
X100328036Y-99156425D01*
X100328084Y-99095297D01*
X100328061Y-98990659D01*
X100327922Y-98905181D01*
X100327562Y-98836857D01*
X100326878Y-98783679D01*
X100325765Y-98743641D01*
X100324118Y-98714736D01*
X100321833Y-98694958D01*
X100318806Y-98682300D01*
X100314932Y-98674755D01*
X100310106Y-98670316D01*
X100305842Y-98667841D01*
X100298111Y-98665395D01*
X100288532Y-98667011D01*
G36*
X105120806Y-99611283D02*
G01*
X104975992Y-99640368D01*
X104835571Y-99687458D01*
X104701928Y-99751558D01*
X104577449Y-99831676D01*
X104464520Y-99926817D01*
X104365526Y-100035987D01*
X104352051Y-100053478D01*
X104276562Y-100167436D01*
X104212639Y-100291928D01*
X104163314Y-100420430D01*
X104138109Y-100513749D01*
X104133196Y-100536335D01*
X104130786Y-100554270D01*
X104132954Y-100568091D01*
X104141770Y-100578332D01*
X104159306Y-100585529D01*
X104187634Y-100590216D01*
X104228827Y-100592931D01*
X104284956Y-100594206D01*
X104358093Y-100594579D01*
X104450310Y-100594583D01*
X104750763Y-100594583D01*
X104790493Y-100518976D01*
X104844043Y-100436588D01*
X104911671Y-100363623D01*
X104989533Y-100303168D01*
X105073784Y-100258308D01*
X105143500Y-100235652D01*
X105231943Y-100224133D01*
X105326401Y-100227210D01*
X105419713Y-100243960D01*
X105504717Y-100273459D01*
X105528860Y-100285369D01*
X105581781Y-100320886D01*
X105637188Y-100370086D01*
X105689406Y-100427124D01*
X105732761Y-100486151D01*
X105746934Y-100510078D01*
X105768933Y-100546181D01*
X105789184Y-100571753D01*
X105803818Y-100582275D01*
X105815739Y-100578023D01*
X105837808Y-100562001D01*
X105870891Y-100533428D01*
X105915856Y-100491528D01*
X105973569Y-100435521D01*
X106033822Y-100375716D01*
X106088416Y-100320549D01*
X106137740Y-100269610D01*
X106179878Y-100224963D01*
X106212917Y-100188676D01*
X106234941Y-100162816D01*
X106244034Y-100149447D01*
X106244167Y-100148722D01*
X106237329Y-100130445D01*
X106218713Y-100100537D01*
X106191163Y-100062670D01*
X106157524Y-100020514D01*
X106120642Y-99977742D01*
X106083362Y-99938024D01*
X106072613Y-99927339D01*
X105963161Y-99834682D01*
X105839352Y-99755094D01*
X105704668Y-99690246D01*
X105562586Y-99641808D01*
X105416588Y-99611453D01*
X105414070Y-99611100D01*
X105267627Y-99601195D01*
X105120806Y-99611283D01*
G37*
X105120806Y-99611283D02*
X104975992Y-99640368D01*
X104835571Y-99687458D01*
X104701928Y-99751558D01*
X104577449Y-99831676D01*
X104464520Y-99926817D01*
X104365526Y-100035987D01*
X104352051Y-100053478D01*
X104276562Y-100167436D01*
X104212639Y-100291928D01*
X104163314Y-100420430D01*
X104138109Y-100513749D01*
X104133196Y-100536335D01*
X104130786Y-100554270D01*
X104132954Y-100568091D01*
X104141770Y-100578332D01*
X104159306Y-100585529D01*
X104187634Y-100590216D01*
X104228827Y-100592931D01*
X104284956Y-100594206D01*
X104358093Y-100594579D01*
X104450310Y-100594583D01*
X104750763Y-100594583D01*
X104790493Y-100518976D01*
X104844043Y-100436588D01*
X104911671Y-100363623D01*
X104989533Y-100303168D01*
X105073784Y-100258308D01*
X105143500Y-100235652D01*
X105231943Y-100224133D01*
X105326401Y-100227210D01*
X105419713Y-100243960D01*
X105504717Y-100273459D01*
X105528860Y-100285369D01*
X105581781Y-100320886D01*
X105637188Y-100370086D01*
X105689406Y-100427124D01*
X105732761Y-100486151D01*
X105746934Y-100510078D01*
X105768933Y-100546181D01*
X105789184Y-100571753D01*
X105803818Y-100582275D01*
X105815739Y-100578023D01*
X105837808Y-100562001D01*
X105870891Y-100533428D01*
X105915856Y-100491528D01*
X105973569Y-100435521D01*
X106033822Y-100375716D01*
X106088416Y-100320549D01*
X106137740Y-100269610D01*
X106179878Y-100224963D01*
X106212917Y-100188676D01*
X106234941Y-100162816D01*
X106244034Y-100149447D01*
X106244167Y-100148722D01*
X106237329Y-100130445D01*
X106218713Y-100100537D01*
X106191163Y-100062670D01*
X106157524Y-100020514D01*
X106120642Y-99977742D01*
X106083362Y-99938024D01*
X106072613Y-99927339D01*
X105963161Y-99834682D01*
X105839352Y-99755094D01*
X105704668Y-99690246D01*
X105562586Y-99641808D01*
X105416588Y-99611453D01*
X105414070Y-99611100D01*
X105267627Y-99601195D01*
X105120806Y-99611283D01*
G36*
X99287251Y-100308959D02*
G01*
X99234775Y-100309521D01*
X99197609Y-100310799D01*
X99172825Y-100313072D01*
X99157493Y-100316619D01*
X99148687Y-100321719D01*
X99143478Y-100328651D01*
X99143123Y-100329304D01*
X99139583Y-100346707D01*
X99136650Y-100383396D01*
X99134394Y-100437497D01*
X99132887Y-100507136D01*
X99132202Y-100590438D01*
X99132167Y-100615750D01*
X99132431Y-100705173D01*
X99133413Y-100775624D01*
X99135396Y-100829296D01*
X99138664Y-100868378D01*
X99143501Y-100895062D01*
X99150190Y-100911540D01*
X99159016Y-100920001D01*
X99170262Y-100922637D01*
X99171918Y-100922667D01*
X99183908Y-100915437D01*
X99208562Y-100895064D01*
X99243731Y-100863520D01*
X99287264Y-100822780D01*
X99337011Y-100774816D01*
X99388504Y-100723920D01*
X99587250Y-100525173D01*
X99587250Y-100429703D01*
X99585756Y-100377022D01*
X99581477Y-100340159D01*
X99574717Y-100321704D01*
X99574550Y-100321533D01*
X99561652Y-100316588D01*
X99533212Y-100312934D01*
X99487759Y-100310484D01*
X99423818Y-100309152D01*
X99357965Y-100308833D01*
X99287251Y-100308959D01*
G37*
X99287251Y-100308959D02*
X99234775Y-100309521D01*
X99197609Y-100310799D01*
X99172825Y-100313072D01*
X99157493Y-100316619D01*
X99148687Y-100321719D01*
X99143478Y-100328651D01*
X99143123Y-100329304D01*
X99139583Y-100346707D01*
X99136650Y-100383396D01*
X99134394Y-100437497D01*
X99132887Y-100507136D01*
X99132202Y-100590438D01*
X99132167Y-100615750D01*
X99132431Y-100705173D01*
X99133413Y-100775624D01*
X99135396Y-100829296D01*
X99138664Y-100868378D01*
X99143501Y-100895062D01*
X99150190Y-100911540D01*
X99159016Y-100920001D01*
X99170262Y-100922637D01*
X99171918Y-100922667D01*
X99183908Y-100915437D01*
X99208562Y-100895064D01*
X99243731Y-100863520D01*
X99287264Y-100822780D01*
X99337011Y-100774816D01*
X99388504Y-100723920D01*
X99587250Y-100525173D01*
X99587250Y-100429703D01*
X99585756Y-100377022D01*
X99581477Y-100340159D01*
X99574717Y-100321704D01*
X99574550Y-100321533D01*
X99561652Y-100316588D01*
X99533212Y-100312934D01*
X99487759Y-100310484D01*
X99423818Y-100309152D01*
X99357965Y-100308833D01*
X99287251Y-100308959D01*
G36*
X97414233Y-100309352D02*
G01*
X97355048Y-100310965D01*
X97314104Y-100313762D01*
X97289951Y-100317828D01*
X97282201Y-100321533D01*
X97278095Y-100332283D01*
X97274871Y-100356418D01*
X97272463Y-100395467D01*
X97270808Y-100450959D01*
X97269842Y-100524421D01*
X97269503Y-100617383D01*
X97269500Y-100626333D01*
X97269641Y-100716722D01*
X97270254Y-100788161D01*
X97271626Y-100842867D01*
X97274044Y-100883056D01*
X97277796Y-100910946D01*
X97283168Y-100928751D01*
X97290448Y-100938688D01*
X97299922Y-100942975D01*
X97310619Y-100943833D01*
X97322220Y-100936650D01*
X97346469Y-100916463D01*
X97381126Y-100885318D01*
X97423955Y-100845259D01*
X97472716Y-100798332D01*
X97510412Y-100761271D01*
X97562472Y-100709092D01*
X97610076Y-100660345D01*
X97650933Y-100617458D01*
X97682756Y-100582857D01*
X97703256Y-100558969D01*
X97709535Y-100550130D01*
X97718170Y-100522474D01*
X97723395Y-100482952D01*
X97725255Y-100437738D01*
X97723792Y-100393009D01*
X97719050Y-100354941D01*
X97711073Y-100329711D01*
X97707953Y-100325464D01*
X97698930Y-100319480D01*
X97683621Y-100315081D01*
X97659111Y-100312044D01*
X97622481Y-100310141D01*
X97570816Y-100309146D01*
X97501198Y-100308835D01*
X97493111Y-100308833D01*
X97414233Y-100309352D01*
G37*
X97414233Y-100309352D02*
X97355048Y-100310965D01*
X97314104Y-100313762D01*
X97289951Y-100317828D01*
X97282201Y-100321533D01*
X97278095Y-100332283D01*
X97274871Y-100356418D01*
X97272463Y-100395467D01*
X97270808Y-100450959D01*
X97269842Y-100524421D01*
X97269503Y-100617383D01*
X97269500Y-100626333D01*
X97269641Y-100716722D01*
X97270254Y-100788161D01*
X97271626Y-100842867D01*
X97274044Y-100883056D01*
X97277796Y-100910946D01*
X97283168Y-100928751D01*
X97290448Y-100938688D01*
X97299922Y-100942975D01*
X97310619Y-100943833D01*
X97322220Y-100936650D01*
X97346469Y-100916463D01*
X97381126Y-100885318D01*
X97423955Y-100845259D01*
X97472716Y-100798332D01*
X97510412Y-100761271D01*
X97562472Y-100709092D01*
X97610076Y-100660345D01*
X97650933Y-100617458D01*
X97682756Y-100582857D01*
X97703256Y-100558969D01*
X97709535Y-100550130D01*
X97718170Y-100522474D01*
X97723395Y-100482952D01*
X97725255Y-100437738D01*
X97723792Y-100393009D01*
X97719050Y-100354941D01*
X97711073Y-100329711D01*
X97707953Y-100325464D01*
X97698930Y-100319480D01*
X97683621Y-100315081D01*
X97659111Y-100312044D01*
X97622481Y-100310141D01*
X97570816Y-100309146D01*
X97501198Y-100308835D01*
X97493111Y-100308833D01*
X97414233Y-100309352D01*
G36*
X103743067Y-100309352D02*
G01*
X103683881Y-100310965D01*
X103642937Y-100313762D01*
X103618784Y-100317828D01*
X103611034Y-100321533D01*
X103606929Y-100332283D01*
X103603704Y-100356418D01*
X103601296Y-100395467D01*
X103599641Y-100450959D01*
X103598676Y-100524421D01*
X103598336Y-100617383D01*
X103598334Y-100626333D01*
X103598474Y-100716722D01*
X103599087Y-100788161D01*
X103600459Y-100842867D01*
X103602878Y-100883056D01*
X103606629Y-100910946D01*
X103612002Y-100928751D01*
X103619281Y-100938688D01*
X103628756Y-100942975D01*
X103639452Y-100943833D01*
X103651054Y-100936650D01*
X103675302Y-100916463D01*
X103709960Y-100885318D01*
X103752788Y-100845259D01*
X103801549Y-100798332D01*
X103839246Y-100761271D01*
X103891306Y-100709092D01*
X103938909Y-100660345D01*
X103979766Y-100617458D01*
X104011589Y-100582857D01*
X104032089Y-100558969D01*
X104038369Y-100550130D01*
X104047003Y-100522474D01*
X104052229Y-100482952D01*
X104054088Y-100437738D01*
X104052625Y-100393009D01*
X104047884Y-100354941D01*
X104039907Y-100329711D01*
X104036786Y-100325464D01*
X104027763Y-100319480D01*
X104012455Y-100315081D01*
X103987944Y-100312044D01*
X103951315Y-100310141D01*
X103899649Y-100309146D01*
X103830031Y-100308835D01*
X103821945Y-100308833D01*
X103743067Y-100309352D01*
G37*
X103743067Y-100309352D02*
X103683881Y-100310965D01*
X103642937Y-100313762D01*
X103618784Y-100317828D01*
X103611034Y-100321533D01*
X103606929Y-100332283D01*
X103603704Y-100356418D01*
X103601296Y-100395467D01*
X103599641Y-100450959D01*
X103598676Y-100524421D01*
X103598336Y-100617383D01*
X103598334Y-100626333D01*
X103598474Y-100716722D01*
X103599087Y-100788161D01*
X103600459Y-100842867D01*
X103602878Y-100883056D01*
X103606629Y-100910946D01*
X103612002Y-100928751D01*
X103619281Y-100938688D01*
X103628756Y-100942975D01*
X103639452Y-100943833D01*
X103651054Y-100936650D01*
X103675302Y-100916463D01*
X103709960Y-100885318D01*
X103752788Y-100845259D01*
X103801549Y-100798332D01*
X103839246Y-100761271D01*
X103891306Y-100709092D01*
X103938909Y-100660345D01*
X103979766Y-100617458D01*
X104011589Y-100582857D01*
X104032089Y-100558969D01*
X104038369Y-100550130D01*
X104047003Y-100522474D01*
X104052229Y-100482952D01*
X104054088Y-100437738D01*
X104052625Y-100393009D01*
X104047884Y-100354941D01*
X104039907Y-100329711D01*
X104036786Y-100325464D01*
X104027763Y-100319480D01*
X104012455Y-100315081D01*
X103987944Y-100312044D01*
X103951315Y-100310141D01*
X103899649Y-100309146D01*
X103830031Y-100308835D01*
X103821945Y-100308833D01*
X103743067Y-100309352D01*
G36*
X100571228Y-100273093D02*
G01*
X100451178Y-100293391D01*
X100335693Y-100331090D01*
X100226956Y-100385351D01*
X100127147Y-100455337D01*
X100038448Y-100540211D01*
X99963042Y-100639136D01*
X99919801Y-100715351D01*
X99893719Y-100772279D01*
X99871641Y-100828712D01*
X99854646Y-100880925D01*
X99843813Y-100925198D01*
X99840220Y-100957807D01*
X99844640Y-100974739D01*
X99860062Y-100979210D01*
X99895797Y-100982613D01*
X99951013Y-100984905D01*
X100024880Y-100986043D01*
X100064222Y-100986167D01*
X100272377Y-100986167D01*
X100313441Y-100915951D01*
X100367551Y-100840293D01*
X100431196Y-100783114D01*
X100505971Y-100743272D01*
X100585421Y-100721049D01*
X100666783Y-100716344D01*
X100747214Y-100730850D01*
X100823196Y-100762772D01*
X100891206Y-100810314D01*
X100947727Y-100871680D01*
X100978392Y-100921547D01*
X100995403Y-100950911D01*
X101010854Y-100970536D01*
X101018962Y-100975583D01*
X101030118Y-100968396D01*
X101053645Y-100948332D01*
X101087106Y-100917640D01*
X101128064Y-100878567D01*
X101174082Y-100833362D01*
X101185267Y-100822191D01*
X101338386Y-100668800D01*
X101317422Y-100629812D01*
X101279925Y-100574987D01*
X101226432Y-100517261D01*
X101161160Y-100460012D01*
X101088326Y-100406620D01*
X101012148Y-100360464D01*
X100936959Y-100324968D01*
X100816300Y-100288044D01*
X100693663Y-100271031D01*
X100571228Y-100273093D01*
G37*
X100571228Y-100273093D02*
X100451178Y-100293391D01*
X100335693Y-100331090D01*
X100226956Y-100385351D01*
X100127147Y-100455337D01*
X100038448Y-100540211D01*
X99963042Y-100639136D01*
X99919801Y-100715351D01*
X99893719Y-100772279D01*
X99871641Y-100828712D01*
X99854646Y-100880925D01*
X99843813Y-100925198D01*
X99840220Y-100957807D01*
X99844640Y-100974739D01*
X99860062Y-100979210D01*
X99895797Y-100982613D01*
X99951013Y-100984905D01*
X100024880Y-100986043D01*
X100064222Y-100986167D01*
X100272377Y-100986167D01*
X100313441Y-100915951D01*
X100367551Y-100840293D01*
X100431196Y-100783114D01*
X100505971Y-100743272D01*
X100585421Y-100721049D01*
X100666783Y-100716344D01*
X100747214Y-100730850D01*
X100823196Y-100762772D01*
X100891206Y-100810314D01*
X100947727Y-100871680D01*
X100978392Y-100921547D01*
X100995403Y-100950911D01*
X101010854Y-100970536D01*
X101018962Y-100975583D01*
X101030118Y-100968396D01*
X101053645Y-100948332D01*
X101087106Y-100917640D01*
X101128064Y-100878567D01*
X101174082Y-100833362D01*
X101185267Y-100822191D01*
X101338386Y-100668800D01*
X101317422Y-100629812D01*
X101279925Y-100574987D01*
X101226432Y-100517261D01*
X101161160Y-100460012D01*
X101088326Y-100406620D01*
X101012148Y-100360464D01*
X100936959Y-100324968D01*
X100816300Y-100288044D01*
X100693663Y-100271031D01*
X100571228Y-100273093D01*
G36*
X96062225Y-100308917D02*
G01*
X95926702Y-100309180D01*
X95810157Y-100309641D01*
X95711497Y-100310316D01*
X95629627Y-100311224D01*
X95563453Y-100312382D01*
X95511883Y-100313807D01*
X95473821Y-100315518D01*
X95448173Y-100317532D01*
X95433847Y-100319866D01*
X95430117Y-100321533D01*
X95425361Y-100336686D01*
X95421641Y-100368828D01*
X95418956Y-100413807D01*
X95417307Y-100467470D01*
X95416695Y-100525667D01*
X95417118Y-100584244D01*
X95418576Y-100639050D01*
X95421071Y-100685931D01*
X95424601Y-100720737D01*
X95429168Y-100739315D01*
X95430117Y-100740633D01*
X95441108Y-100744841D01*
X95465721Y-100748123D01*
X95505491Y-100750545D01*
X95561958Y-100752176D01*
X95636658Y-100753082D01*
X95720983Y-100753333D01*
X95999149Y-100753333D01*
X96001971Y-101031146D01*
X96002880Y-101114952D01*
X96003837Y-101179999D01*
X96005047Y-101228695D01*
X96006716Y-101263447D01*
X96009049Y-101286663D01*
X96012252Y-101300748D01*
X96016531Y-101308112D01*
X96022091Y-101311161D01*
X96025959Y-101311897D01*
X96037976Y-101307866D01*
X96059099Y-101292958D01*
X96090409Y-101266208D01*
X96132986Y-101226652D01*
X96187909Y-101173329D01*
X96245563Y-101116004D01*
X96444000Y-100917171D01*
X96444000Y-100753333D01*
X96724086Y-100753333D01*
X96808449Y-100753261D01*
X96874110Y-100752930D01*
X96923535Y-100752165D01*
X96959190Y-100750794D01*
X96983541Y-100748644D01*
X96999051Y-100745540D01*
X97008188Y-100741310D01*
X97013416Y-100735779D01*
X97015128Y-100732862D01*
X97018998Y-100715082D01*
X97022194Y-100679445D01*
X97024539Y-100629256D01*
X97025858Y-100567820D01*
X97026084Y-100527243D01*
X97025798Y-100458170D01*
X97024775Y-100407234D01*
X97022766Y-100371413D01*
X97019520Y-100347683D01*
X97014790Y-100333020D01*
X97009453Y-100325464D01*
X97004565Y-100322290D01*
X96995743Y-100319542D01*
X96981561Y-100317189D01*
X96960594Y-100315202D01*
X96931416Y-100313551D01*
X96892601Y-100312205D01*
X96842722Y-100311136D01*
X96780354Y-100310312D01*
X96704071Y-100309704D01*
X96612447Y-100309283D01*
X96504056Y-100309017D01*
X96377472Y-100308877D01*
X96231270Y-100308833D01*
X96217820Y-100308833D01*
X96062225Y-100308917D01*
G37*
X96062225Y-100308917D02*
X95926702Y-100309180D01*
X95810157Y-100309641D01*
X95711497Y-100310316D01*
X95629627Y-100311224D01*
X95563453Y-100312382D01*
X95511883Y-100313807D01*
X95473821Y-100315518D01*
X95448173Y-100317532D01*
X95433847Y-100319866D01*
X95430117Y-100321533D01*
X95425361Y-100336686D01*
X95421641Y-100368828D01*
X95418956Y-100413807D01*
X95417307Y-100467470D01*
X95416695Y-100525667D01*
X95417118Y-100584244D01*
X95418576Y-100639050D01*
X95421071Y-100685931D01*
X95424601Y-100720737D01*
X95429168Y-100739315D01*
X95430117Y-100740633D01*
X95441108Y-100744841D01*
X95465721Y-100748123D01*
X95505491Y-100750545D01*
X95561958Y-100752176D01*
X95636658Y-100753082D01*
X95720983Y-100753333D01*
X95999149Y-100753333D01*
X96001971Y-101031146D01*
X96002880Y-101114952D01*
X96003837Y-101179999D01*
X96005047Y-101228695D01*
X96006716Y-101263447D01*
X96009049Y-101286663D01*
X96012252Y-101300748D01*
X96016531Y-101308112D01*
X96022091Y-101311161D01*
X96025959Y-101311897D01*
X96037976Y-101307866D01*
X96059099Y-101292958D01*
X96090409Y-101266208D01*
X96132986Y-101226652D01*
X96187909Y-101173329D01*
X96245563Y-101116004D01*
X96444000Y-100917171D01*
X96444000Y-100753333D01*
X96724086Y-100753333D01*
X96808449Y-100753261D01*
X96874110Y-100752930D01*
X96923535Y-100752165D01*
X96959190Y-100750794D01*
X96983541Y-100748644D01*
X96999051Y-100745540D01*
X97008188Y-100741310D01*
X97013416Y-100735779D01*
X97015128Y-100732862D01*
X97018998Y-100715082D01*
X97022194Y-100679445D01*
X97024539Y-100629256D01*
X97025858Y-100567820D01*
X97026084Y-100527243D01*
X97025798Y-100458170D01*
X97024775Y-100407234D01*
X97022766Y-100371413D01*
X97019520Y-100347683D01*
X97014790Y-100333020D01*
X97009453Y-100325464D01*
X97004565Y-100322290D01*
X96995743Y-100319542D01*
X96981561Y-100317189D01*
X96960594Y-100315202D01*
X96931416Y-100313551D01*
X96892601Y-100312205D01*
X96842722Y-100311136D01*
X96780354Y-100310312D01*
X96704071Y-100309704D01*
X96612447Y-100309283D01*
X96504056Y-100309017D01*
X96377472Y-100308877D01*
X96231270Y-100308833D01*
X96217820Y-100308833D01*
X96062225Y-100308917D01*
G36*
X104504728Y-100924411D02*
G01*
X104430273Y-100924986D01*
X104343896Y-100926026D01*
X104276329Y-100927233D01*
X104225217Y-100928765D01*
X104188203Y-100930779D01*
X104162930Y-100933434D01*
X104147044Y-100936888D01*
X104138187Y-100941297D01*
X104135088Y-100944744D01*
X104131754Y-100961247D01*
X104135341Y-100991305D01*
X104146234Y-101037458D01*
X104152770Y-101061160D01*
X104203414Y-101204481D01*
X104271387Y-101341138D01*
X104354355Y-101466876D01*
X104417265Y-101543001D01*
X104446456Y-101572864D01*
X104482769Y-101606610D01*
X104522489Y-101641194D01*
X104561903Y-101673568D01*
X104597296Y-101700688D01*
X104624954Y-101719507D01*
X104641161Y-101726979D01*
X104641639Y-101727000D01*
X104651573Y-101719973D01*
X104674763Y-101700110D01*
X104709199Y-101669241D01*
X104752872Y-101629193D01*
X104803773Y-101581796D01*
X104859894Y-101528878D01*
X104873742Y-101515726D01*
X104932636Y-101459084D01*
X104985162Y-101407344D01*
X105029529Y-101362360D01*
X105063947Y-101325985D01*
X105086625Y-101300073D01*
X105095772Y-101286477D01*
X105095875Y-101285783D01*
X105086000Y-101269248D01*
X105057219Y-101247341D01*
X105027355Y-101229827D01*
X104960122Y-101185242D01*
X104894966Y-101127653D01*
X104838065Y-101063220D01*
X104796304Y-100999447D01*
X104770527Y-100956997D01*
X104748023Y-100932651D01*
X104738096Y-100927685D01*
X104721603Y-100926283D01*
X104686983Y-100925228D01*
X104637272Y-100924546D01*
X104575509Y-100924265D01*
X104504728Y-100924411D01*
G37*
X104504728Y-100924411D02*
X104430273Y-100924986D01*
X104343896Y-100926026D01*
X104276329Y-100927233D01*
X104225217Y-100928765D01*
X104188203Y-100930779D01*
X104162930Y-100933434D01*
X104147044Y-100936888D01*
X104138187Y-100941297D01*
X104135088Y-100944744D01*
X104131754Y-100961247D01*
X104135341Y-100991305D01*
X104146234Y-101037458D01*
X104152770Y-101061160D01*
X104203414Y-101204481D01*
X104271387Y-101341138D01*
X104354355Y-101466876D01*
X104417265Y-101543001D01*
X104446456Y-101572864D01*
X104482769Y-101606610D01*
X104522489Y-101641194D01*
X104561903Y-101673568D01*
X104597296Y-101700688D01*
X104624954Y-101719507D01*
X104641161Y-101726979D01*
X104641639Y-101727000D01*
X104651573Y-101719973D01*
X104674763Y-101700110D01*
X104709199Y-101669241D01*
X104752872Y-101629193D01*
X104803773Y-101581796D01*
X104859894Y-101528878D01*
X104873742Y-101515726D01*
X104932636Y-101459084D01*
X104985162Y-101407344D01*
X105029529Y-101362360D01*
X105063947Y-101325985D01*
X105086625Y-101300073D01*
X105095772Y-101286477D01*
X105095875Y-101285783D01*
X105086000Y-101269248D01*
X105057219Y-101247341D01*
X105027355Y-101229827D01*
X104960122Y-101185242D01*
X104894966Y-101127653D01*
X104838065Y-101063220D01*
X104796304Y-100999447D01*
X104770527Y-100956997D01*
X104748023Y-100932651D01*
X104738096Y-100927685D01*
X104721603Y-100926283D01*
X104686983Y-100925228D01*
X104637272Y-100924546D01*
X104575509Y-100924265D01*
X104504728Y-100924411D01*
G36*
X98133872Y-100307752D02*
G01*
X98079051Y-100310191D01*
X98032884Y-100314154D01*
X97999625Y-100319636D01*
X97984022Y-100326073D01*
X97979837Y-100331918D01*
X97976419Y-100341548D01*
X97973710Y-100356864D01*
X97971656Y-100379768D01*
X97970199Y-100412162D01*
X97969285Y-100455947D01*
X97968855Y-100513027D01*
X97968856Y-100585303D01*
X97969229Y-100674676D01*
X97969920Y-100783049D01*
X97970037Y-100799677D01*
X97973292Y-101256042D01*
X98008314Y-101356583D01*
X98055015Y-101466707D01*
X98115144Y-101570673D01*
X98181382Y-101657645D01*
X98214221Y-101691862D01*
X98249458Y-101723640D01*
X98282613Y-101749411D01*
X98309203Y-101765606D01*
X98321626Y-101769333D01*
X98332431Y-101762159D01*
X98355565Y-101742173D01*
X98388541Y-101711681D01*
X98428871Y-101672988D01*
X98474069Y-101628398D01*
X98478788Y-101623675D01*
X98523850Y-101577662D01*
X98563229Y-101535799D01*
X98594609Y-101500686D01*
X98615673Y-101474920D01*
X98624107Y-101461101D01*
X98624167Y-101460535D01*
X98616141Y-101445434D01*
X98595275Y-101423783D01*
X98571025Y-101404042D01*
X98535398Y-101373848D01*
X98501729Y-101338773D01*
X98485930Y-101318591D01*
X98470868Y-101296301D01*
X98458429Y-101275789D01*
X98448360Y-101254841D01*
X98440412Y-101231242D01*
X98434333Y-101202778D01*
X98429873Y-101167234D01*
X98426782Y-101122395D01*
X98424809Y-101066046D01*
X98423702Y-100995974D01*
X98423212Y-100909963D01*
X98423087Y-100805800D01*
X98423084Y-100763342D01*
X98423002Y-100656382D01*
X98422706Y-100568631D01*
X98422122Y-100498132D01*
X98421176Y-100442926D01*
X98419794Y-100401056D01*
X98417900Y-100370565D01*
X98415421Y-100349495D01*
X98412282Y-100335888D01*
X98408409Y-100327788D01*
X98406453Y-100325464D01*
X98388991Y-100318630D01*
X98354672Y-100313357D01*
X98307749Y-100309639D01*
X98252474Y-100307469D01*
X98193097Y-100306842D01*
X98133872Y-100307752D01*
G37*
X98133872Y-100307752D02*
X98079051Y-100310191D01*
X98032884Y-100314154D01*
X97999625Y-100319636D01*
X97984022Y-100326073D01*
X97979837Y-100331918D01*
X97976419Y-100341548D01*
X97973710Y-100356864D01*
X97971656Y-100379768D01*
X97970199Y-100412162D01*
X97969285Y-100455947D01*
X97968855Y-100513027D01*
X97968856Y-100585303D01*
X97969229Y-100674676D01*
X97969920Y-100783049D01*
X97970037Y-100799677D01*
X97973292Y-101256042D01*
X98008314Y-101356583D01*
X98055015Y-101466707D01*
X98115144Y-101570673D01*
X98181382Y-101657645D01*
X98214221Y-101691862D01*
X98249458Y-101723640D01*
X98282613Y-101749411D01*
X98309203Y-101765606D01*
X98321626Y-101769333D01*
X98332431Y-101762159D01*
X98355565Y-101742173D01*
X98388541Y-101711681D01*
X98428871Y-101672988D01*
X98474069Y-101628398D01*
X98478788Y-101623675D01*
X98523850Y-101577662D01*
X98563229Y-101535799D01*
X98594609Y-101500686D01*
X98615673Y-101474920D01*
X98624107Y-101461101D01*
X98624167Y-101460535D01*
X98616141Y-101445434D01*
X98595275Y-101423783D01*
X98571025Y-101404042D01*
X98535398Y-101373848D01*
X98501729Y-101338773D01*
X98485930Y-101318591D01*
X98470868Y-101296301D01*
X98458429Y-101275789D01*
X98448360Y-101254841D01*
X98440412Y-101231242D01*
X98434333Y-101202778D01*
X98429873Y-101167234D01*
X98426782Y-101122395D01*
X98424809Y-101066046D01*
X98423702Y-100995974D01*
X98423212Y-100909963D01*
X98423087Y-100805800D01*
X98423084Y-100763342D01*
X98423002Y-100656382D01*
X98422706Y-100568631D01*
X98422122Y-100498132D01*
X98421176Y-100442926D01*
X98419794Y-100401056D01*
X98417900Y-100370565D01*
X98415421Y-100349495D01*
X98412282Y-100335888D01*
X98408409Y-100327788D01*
X98406453Y-100325464D01*
X98388991Y-100318630D01*
X98354672Y-100313357D01*
X98307749Y-100309639D01*
X98252474Y-100307469D01*
X98193097Y-100306842D01*
X98133872Y-100307752D01*
G36*
X100057034Y-101218879D02*
G01*
X99998596Y-101219808D01*
X99944248Y-101221388D01*
X99898024Y-101223573D01*
X99863955Y-101226318D01*
X99846072Y-101229577D01*
X99844659Y-101230408D01*
X99840310Y-101248053D01*
X99844034Y-101280858D01*
X99854687Y-101324928D01*
X99871127Y-101376368D01*
X99892209Y-101431284D01*
X99916790Y-101485780D01*
X99923643Y-101499458D01*
X99949039Y-101545852D01*
X99975431Y-101586090D01*
X100007123Y-101625805D01*
X100048416Y-101670634D01*
X100075170Y-101697896D01*
X100113631Y-101735541D01*
X100147690Y-101767009D01*
X100174206Y-101789535D01*
X100190040Y-101800352D01*
X100192114Y-101800907D01*
X100203672Y-101793795D01*
X100227878Y-101774014D01*
X100262285Y-101743735D01*
X100304447Y-101705128D01*
X100351917Y-101660361D01*
X100368126Y-101644803D01*
X100420834Y-101593130D01*
X100464068Y-101548988D01*
X100496310Y-101514028D01*
X100516045Y-101489900D01*
X100521752Y-101478253D01*
X100521584Y-101477944D01*
X100508679Y-101466755D01*
X100483636Y-101448852D01*
X100458288Y-101432220D01*
X100392102Y-101381280D01*
X100337598Y-101321105D01*
X100307826Y-101273699D01*
X100291012Y-101246591D01*
X100274277Y-101228449D01*
X100269461Y-101225597D01*
X100251051Y-101222586D01*
X100216571Y-101220455D01*
X100170054Y-101219157D01*
X100115530Y-101218647D01*
X100057034Y-101218879D01*
G37*
X100057034Y-101218879D02*
X99998596Y-101219808D01*
X99944248Y-101221388D01*
X99898024Y-101223573D01*
X99863955Y-101226318D01*
X99846072Y-101229577D01*
X99844659Y-101230408D01*
X99840310Y-101248053D01*
X99844034Y-101280858D01*
X99854687Y-101324928D01*
X99871127Y-101376368D01*
X99892209Y-101431284D01*
X99916790Y-101485780D01*
X99923643Y-101499458D01*
X99949039Y-101545852D01*
X99975431Y-101586090D01*
X100007123Y-101625805D01*
X100048416Y-101670634D01*
X100075170Y-101697896D01*
X100113631Y-101735541D01*
X100147690Y-101767009D01*
X100174206Y-101789535D01*
X100190040Y-101800352D01*
X100192114Y-101800907D01*
X100203672Y-101793795D01*
X100227878Y-101774014D01*
X100262285Y-101743735D01*
X100304447Y-101705128D01*
X100351917Y-101660361D01*
X100368126Y-101644803D01*
X100420834Y-101593130D01*
X100464068Y-101548988D01*
X100496310Y-101514028D01*
X100516045Y-101489900D01*
X100521752Y-101478253D01*
X100521584Y-101477944D01*
X100508679Y-101466755D01*
X100483636Y-101448852D01*
X100458288Y-101432220D01*
X100392102Y-101381280D01*
X100337598Y-101321105D01*
X100307826Y-101273699D01*
X100291012Y-101246591D01*
X100274277Y-101228449D01*
X100269461Y-101225597D01*
X100251051Y-101222586D01*
X100216571Y-101220455D01*
X100170054Y-101219157D01*
X100115530Y-101218647D01*
X100057034Y-101218879D01*
G36*
X93963205Y-100287791D02*
G01*
X93851924Y-100288183D01*
X93759295Y-100288871D01*
X93684059Y-100289882D01*
X93624961Y-100291245D01*
X93580742Y-100292987D01*
X93550145Y-100295138D01*
X93531914Y-100297724D01*
X93525117Y-100300367D01*
X93520172Y-100313265D01*
X93516518Y-100341705D01*
X93514068Y-100387158D01*
X93512736Y-100451099D01*
X93512417Y-100516952D01*
X93512543Y-100587666D01*
X93513105Y-100640142D01*
X93514383Y-100677308D01*
X93516656Y-100702092D01*
X93520203Y-100717424D01*
X93525303Y-100726230D01*
X93532235Y-100731439D01*
X93532888Y-100731794D01*
X93548983Y-100734586D01*
X93585834Y-100736982D01*
X93643035Y-100738973D01*
X93720179Y-100740554D01*
X93816859Y-100741714D01*
X93932668Y-100742446D01*
X94067200Y-100742743D01*
X94092164Y-100742750D01*
X94213036Y-100742784D01*
X94314505Y-100742928D01*
X94398334Y-100743243D01*
X94466287Y-100743790D01*
X94520129Y-100744631D01*
X94561622Y-100745826D01*
X94592530Y-100747438D01*
X94614617Y-100749528D01*
X94629646Y-100752157D01*
X94639382Y-100755386D01*
X94645587Y-100759277D01*
X94648485Y-100762104D01*
X94664389Y-100792328D01*
X94659487Y-100823392D01*
X94641506Y-100846738D01*
X94634211Y-100853087D01*
X94625774Y-100858145D01*
X94613879Y-100862060D01*
X94596209Y-100864978D01*
X94570448Y-100867046D01*
X94534278Y-100868409D01*
X94485384Y-100869215D01*
X94421450Y-100869609D01*
X94340158Y-100869738D01*
X94277496Y-100869750D01*
X94182123Y-100869847D01*
X94105284Y-100870227D01*
X94044346Y-100871027D01*
X93996677Y-100872382D01*
X93959644Y-100874428D01*
X93930615Y-100877301D01*
X93906958Y-100881137D01*
X93886041Y-100886070D01*
X93869956Y-100890760D01*
X93777540Y-100929642D01*
X93694427Y-100985172D01*
X93623863Y-101054624D01*
X93569094Y-101135267D01*
X93561518Y-101150034D01*
X93524712Y-101247465D01*
X93507779Y-101345945D01*
X93509717Y-101443191D01*
X93529523Y-101536921D01*
X93566192Y-101624853D01*
X93618722Y-101704704D01*
X93686110Y-101774192D01*
X93767351Y-101831033D01*
X93861443Y-101872946D01*
X93882153Y-101879466D01*
X93939681Y-101896360D01*
X94129003Y-101708492D01*
X94181336Y-101656250D01*
X94228904Y-101608172D01*
X94269548Y-101566487D01*
X94301110Y-101533425D01*
X94321429Y-101511218D01*
X94328100Y-101502839D01*
X94330567Y-101481777D01*
X94321265Y-101468443D01*
X94310967Y-101461756D01*
X94293464Y-101457069D01*
X94265458Y-101454067D01*
X94223653Y-101452434D01*
X94164753Y-101451852D01*
X94148301Y-101451833D01*
X94086601Y-101451564D01*
X94042551Y-101450496D01*
X94012643Y-101448239D01*
X93993363Y-101444401D01*
X93981201Y-101438592D01*
X93974432Y-101432479D01*
X93959220Y-101402353D01*
X93960073Y-101369257D01*
X93976271Y-101342348D01*
X93983430Y-101337563D01*
X93994664Y-101333726D01*
X94012158Y-101330734D01*
X94038098Y-101328486D01*
X94074666Y-101326880D01*
X94124049Y-101325814D01*
X94188430Y-101325186D01*
X94269995Y-101324894D01*
X94351583Y-101324833D01*
X94455373Y-101324739D01*
X94540574Y-101324172D01*
X94609764Y-101322705D01*
X94665521Y-101319912D01*
X94710421Y-101315366D01*
X94747044Y-101308641D01*
X94777965Y-101299309D01*
X94805764Y-101286944D01*
X94833017Y-101271120D01*
X94862303Y-101251409D01*
X94882823Y-101236899D01*
X94926550Y-101201364D01*
X94960680Y-101161904D01*
X94989327Y-101112753D01*
X95015571Y-101050887D01*
X95032088Y-101015443D01*
X95051169Y-100985927D01*
X95062403Y-100974064D01*
X95086036Y-100943140D01*
X95101367Y-100896832D01*
X95108522Y-100839171D01*
X95107629Y-100774190D01*
X95098813Y-100705920D01*
X95082202Y-100638394D01*
X95057921Y-100575643D01*
X95049366Y-100558733D01*
X95011031Y-100501896D01*
X94959037Y-100444684D01*
X94899820Y-100393374D01*
X94839815Y-100354243D01*
X94839626Y-100354142D01*
X94812943Y-100340190D01*
X94788402Y-100328340D01*
X94764076Y-100318422D01*
X94738041Y-100310263D01*
X94708370Y-100303692D01*
X94673139Y-100298536D01*
X94630423Y-100294625D01*
X94578295Y-100291786D01*
X94514830Y-100289848D01*
X94438104Y-100288639D01*
X94346190Y-100287986D01*
X94237164Y-100287720D01*
X94109099Y-100287667D01*
X94094394Y-100287667D01*
X93963205Y-100287791D01*
G37*
X93963205Y-100287791D02*
X93851924Y-100288183D01*
X93759295Y-100288871D01*
X93684059Y-100289882D01*
X93624961Y-100291245D01*
X93580742Y-100292987D01*
X93550145Y-100295138D01*
X93531914Y-100297724D01*
X93525117Y-100300367D01*
X93520172Y-100313265D01*
X93516518Y-100341705D01*
X93514068Y-100387158D01*
X93512736Y-100451099D01*
X93512417Y-100516952D01*
X93512543Y-100587666D01*
X93513105Y-100640142D01*
X93514383Y-100677308D01*
X93516656Y-100702092D01*
X93520203Y-100717424D01*
X93525303Y-100726230D01*
X93532235Y-100731439D01*
X93532888Y-100731794D01*
X93548983Y-100734586D01*
X93585834Y-100736982D01*
X93643035Y-100738973D01*
X93720179Y-100740554D01*
X93816859Y-100741714D01*
X93932668Y-100742446D01*
X94067200Y-100742743D01*
X94092164Y-100742750D01*
X94213036Y-100742784D01*
X94314505Y-100742928D01*
X94398334Y-100743243D01*
X94466287Y-100743790D01*
X94520129Y-100744631D01*
X94561622Y-100745826D01*
X94592530Y-100747438D01*
X94614617Y-100749528D01*
X94629646Y-100752157D01*
X94639382Y-100755386D01*
X94645587Y-100759277D01*
X94648485Y-100762104D01*
X94664389Y-100792328D01*
X94659487Y-100823392D01*
X94641506Y-100846738D01*
X94634211Y-100853087D01*
X94625774Y-100858145D01*
X94613879Y-100862060D01*
X94596209Y-100864978D01*
X94570448Y-100867046D01*
X94534278Y-100868409D01*
X94485384Y-100869215D01*
X94421450Y-100869609D01*
X94340158Y-100869738D01*
X94277496Y-100869750D01*
X94182123Y-100869847D01*
X94105284Y-100870227D01*
X94044346Y-100871027D01*
X93996677Y-100872382D01*
X93959644Y-100874428D01*
X93930615Y-100877301D01*
X93906958Y-100881137D01*
X93886041Y-100886070D01*
X93869956Y-100890760D01*
X93777540Y-100929642D01*
X93694427Y-100985172D01*
X93623863Y-101054624D01*
X93569094Y-101135267D01*
X93561518Y-101150034D01*
X93524712Y-101247465D01*
X93507779Y-101345945D01*
X93509717Y-101443191D01*
X93529523Y-101536921D01*
X93566192Y-101624853D01*
X93618722Y-101704704D01*
X93686110Y-101774192D01*
X93767351Y-101831033D01*
X93861443Y-101872946D01*
X93882153Y-101879466D01*
X93939681Y-101896360D01*
X94129003Y-101708492D01*
X94181336Y-101656250D01*
X94228904Y-101608172D01*
X94269548Y-101566487D01*
X94301110Y-101533425D01*
X94321429Y-101511218D01*
X94328100Y-101502839D01*
X94330567Y-101481777D01*
X94321265Y-101468443D01*
X94310967Y-101461756D01*
X94293464Y-101457069D01*
X94265458Y-101454067D01*
X94223653Y-101452434D01*
X94164753Y-101451852D01*
X94148301Y-101451833D01*
X94086601Y-101451564D01*
X94042551Y-101450496D01*
X94012643Y-101448239D01*
X93993363Y-101444401D01*
X93981201Y-101438592D01*
X93974432Y-101432479D01*
X93959220Y-101402353D01*
X93960073Y-101369257D01*
X93976271Y-101342348D01*
X93983430Y-101337563D01*
X93994664Y-101333726D01*
X94012158Y-101330734D01*
X94038098Y-101328486D01*
X94074666Y-101326880D01*
X94124049Y-101325814D01*
X94188430Y-101325186D01*
X94269995Y-101324894D01*
X94351583Y-101324833D01*
X94455373Y-101324739D01*
X94540574Y-101324172D01*
X94609764Y-101322705D01*
X94665521Y-101319912D01*
X94710421Y-101315366D01*
X94747044Y-101308641D01*
X94777965Y-101299309D01*
X94805764Y-101286944D01*
X94833017Y-101271120D01*
X94862303Y-101251409D01*
X94882823Y-101236899D01*
X94926550Y-101201364D01*
X94960680Y-101161904D01*
X94989327Y-101112753D01*
X95015571Y-101050887D01*
X95032088Y-101015443D01*
X95051169Y-100985927D01*
X95062403Y-100974064D01*
X95086036Y-100943140D01*
X95101367Y-100896832D01*
X95108522Y-100839171D01*
X95107629Y-100774190D01*
X95098813Y-100705920D01*
X95082202Y-100638394D01*
X95057921Y-100575643D01*
X95049366Y-100558733D01*
X95011031Y-100501896D01*
X94959037Y-100444684D01*
X94899820Y-100393374D01*
X94839815Y-100354243D01*
X94839626Y-100354142D01*
X94812943Y-100340190D01*
X94788402Y-100328340D01*
X94764076Y-100318422D01*
X94738041Y-100310263D01*
X94708370Y-100303692D01*
X94673139Y-100298536D01*
X94630423Y-100294625D01*
X94578295Y-100291786D01*
X94514830Y-100289848D01*
X94438104Y-100288639D01*
X94346190Y-100287986D01*
X94237164Y-100287720D01*
X94109099Y-100287667D01*
X94094394Y-100287667D01*
X93963205Y-100287791D01*
G36*
X96401832Y-101053196D02*
G01*
X96387706Y-101060259D01*
X96368107Y-101074625D01*
X96341268Y-101097836D01*
X96305423Y-101131435D01*
X96258805Y-101176965D01*
X96199647Y-101235969D01*
X96187355Y-101248317D01*
X95988917Y-101447809D01*
X95988917Y-101666023D01*
X95989135Y-101741322D01*
X95989920Y-101798229D01*
X95991469Y-101839517D01*
X95993977Y-101867959D01*
X95997640Y-101886326D01*
X96002657Y-101897391D01*
X96005548Y-101900869D01*
X96022071Y-101907027D01*
X96055358Y-101911948D01*
X96101287Y-101915614D01*
X96155740Y-101918001D01*
X96214597Y-101919089D01*
X96273739Y-101918859D01*
X96329046Y-101917287D01*
X96376398Y-101914354D01*
X96411675Y-101910039D01*
X96430760Y-101904320D01*
X96432245Y-101903037D01*
X96435537Y-101891780D01*
X96438135Y-101866061D01*
X96440063Y-101824780D01*
X96441344Y-101766835D01*
X96442003Y-101691125D01*
X96442062Y-101596547D01*
X96441545Y-101482001D01*
X96441479Y-101471766D01*
X96438709Y-101054958D01*
X96412250Y-101051891D01*
X96401832Y-101053196D01*
G37*
X96401832Y-101053196D02*
X96387706Y-101060259D01*
X96368107Y-101074625D01*
X96341268Y-101097836D01*
X96305423Y-101131435D01*
X96258805Y-101176965D01*
X96199647Y-101235969D01*
X96187355Y-101248317D01*
X95988917Y-101447809D01*
X95988917Y-101666023D01*
X95989135Y-101741322D01*
X95989920Y-101798229D01*
X95991469Y-101839517D01*
X95993977Y-101867959D01*
X95997640Y-101886326D01*
X96002657Y-101897391D01*
X96005548Y-101900869D01*
X96022071Y-101907027D01*
X96055358Y-101911948D01*
X96101287Y-101915614D01*
X96155740Y-101918001D01*
X96214597Y-101919089D01*
X96273739Y-101918859D01*
X96329046Y-101917287D01*
X96376398Y-101914354D01*
X96411675Y-101910039D01*
X96430760Y-101904320D01*
X96432245Y-101903037D01*
X96435537Y-101891780D01*
X96438135Y-101866061D01*
X96440063Y-101824780D01*
X96441344Y-101766835D01*
X96442003Y-101691125D01*
X96442062Y-101596547D01*
X96441545Y-101482001D01*
X96441479Y-101471766D01*
X96438709Y-101054958D01*
X96412250Y-101051891D01*
X96401832Y-101053196D01*
G36*
X97679644Y-100671437D02*
G01*
X97674456Y-100673073D01*
X97661961Y-100682019D01*
X97636867Y-100704002D01*
X97601388Y-100736938D01*
X97557735Y-100778741D01*
X97508121Y-100827326D01*
X97462282Y-100873035D01*
X97269500Y-101066842D01*
X97269500Y-101479471D01*
X97269682Y-101592053D01*
X97270253Y-101684875D01*
X97271257Y-101759338D01*
X97272735Y-101816846D01*
X97274729Y-101858800D01*
X97277281Y-101886604D01*
X97280433Y-101901660D01*
X97282200Y-101904800D01*
X97295314Y-101909821D01*
X97324188Y-101913509D01*
X97370275Y-101915954D01*
X97435024Y-101917241D01*
X97493111Y-101917500D01*
X97564691Y-101917245D01*
X97618026Y-101916329D01*
X97656032Y-101914528D01*
X97681626Y-101911614D01*
X97697726Y-101907362D01*
X97707248Y-101901547D01*
X97707953Y-101900869D01*
X97711543Y-101895434D01*
X97714585Y-101885799D01*
X97717121Y-101870331D01*
X97719198Y-101847396D01*
X97720859Y-101815361D01*
X97722149Y-101772592D01*
X97723111Y-101717456D01*
X97723791Y-101648320D01*
X97724232Y-101563550D01*
X97724479Y-101461513D01*
X97724577Y-101340575D01*
X97724584Y-101288331D01*
X97724569Y-101157078D01*
X97724442Y-101045449D01*
X97724076Y-100951901D01*
X97723346Y-100874891D01*
X97722126Y-100812876D01*
X97720290Y-100764313D01*
X97717713Y-100727660D01*
X97714269Y-100701373D01*
X97709833Y-100683910D01*
X97704277Y-100673728D01*
X97697478Y-100669283D01*
X97689309Y-100669034D01*
X97679644Y-100671437D01*
G37*
X97679644Y-100671437D02*
X97674456Y-100673073D01*
X97661961Y-100682019D01*
X97636867Y-100704002D01*
X97601388Y-100736938D01*
X97557735Y-100778741D01*
X97508121Y-100827326D01*
X97462282Y-100873035D01*
X97269500Y-101066842D01*
X97269500Y-101479471D01*
X97269682Y-101592053D01*
X97270253Y-101684875D01*
X97271257Y-101759338D01*
X97272735Y-101816846D01*
X97274729Y-101858800D01*
X97277281Y-101886604D01*
X97280433Y-101901660D01*
X97282200Y-101904800D01*
X97295314Y-101909821D01*
X97324188Y-101913509D01*
X97370275Y-101915954D01*
X97435024Y-101917241D01*
X97493111Y-101917500D01*
X97564691Y-101917245D01*
X97618026Y-101916329D01*
X97656032Y-101914528D01*
X97681626Y-101911614D01*
X97697726Y-101907362D01*
X97707248Y-101901547D01*
X97707953Y-101900869D01*
X97711543Y-101895434D01*
X97714585Y-101885799D01*
X97717121Y-101870331D01*
X97719198Y-101847396D01*
X97720859Y-101815361D01*
X97722149Y-101772592D01*
X97723111Y-101717456D01*
X97723791Y-101648320D01*
X97724232Y-101563550D01*
X97724479Y-101461513D01*
X97724577Y-101340575D01*
X97724584Y-101288331D01*
X97724569Y-101157078D01*
X97724442Y-101045449D01*
X97724076Y-100951901D01*
X97723346Y-100874891D01*
X97722126Y-100812876D01*
X97720290Y-100764313D01*
X97717713Y-100727660D01*
X97714269Y-100701373D01*
X97709833Y-100683910D01*
X97704277Y-100673728D01*
X97697478Y-100669283D01*
X97689309Y-100669034D01*
X97679644Y-100671437D01*
G36*
X99511019Y-100673143D02*
G01*
X99473961Y-100704462D01*
X99425213Y-100751563D01*
X99363185Y-100813827D01*
X99326674Y-100850471D01*
X99121584Y-101055561D01*
X99121575Y-101124051D01*
X99111543Y-101202840D01*
X99083088Y-101275527D01*
X99038642Y-101339626D01*
X98980636Y-101392654D01*
X98911503Y-101432125D01*
X98833674Y-101455556D01*
X98792259Y-101460480D01*
X98722226Y-101464646D01*
X98560923Y-101626202D01*
X98503468Y-101684025D01*
X98460267Y-101729047D01*
X98430569Y-101763394D01*
X98413624Y-101789193D01*
X98408680Y-101808573D01*
X98414986Y-101823660D01*
X98431793Y-101836581D01*
X98458348Y-101849465D01*
X98479034Y-101858223D01*
X98584137Y-101892428D01*
X98697718Y-101912324D01*
X98812991Y-101917278D01*
X98923169Y-101906655D01*
X98946959Y-101901967D01*
X99068565Y-101864913D01*
X99181421Y-101809589D01*
X99283773Y-101737703D01*
X99373866Y-101650963D01*
X99449945Y-101551075D01*
X99510255Y-101439749D01*
X99553042Y-101318691D01*
X99555332Y-101309911D01*
X99561970Y-101281653D01*
X99567094Y-101253269D01*
X99570891Y-101221536D01*
X99573553Y-101183236D01*
X99575270Y-101135147D01*
X99576230Y-101074050D01*
X99576623Y-100996723D01*
X99576667Y-100947804D01*
X99576918Y-100851316D01*
X99576609Y-100774943D01*
X99574150Y-100718066D01*
X99567952Y-100680067D01*
X99556424Y-100660326D01*
X99537977Y-100658225D01*
X99511019Y-100673143D01*
G37*
X99511019Y-100673143D02*
X99473961Y-100704462D01*
X99425213Y-100751563D01*
X99363185Y-100813827D01*
X99326674Y-100850471D01*
X99121584Y-101055561D01*
X99121575Y-101124051D01*
X99111543Y-101202840D01*
X99083088Y-101275527D01*
X99038642Y-101339626D01*
X98980636Y-101392654D01*
X98911503Y-101432125D01*
X98833674Y-101455556D01*
X98792259Y-101460480D01*
X98722226Y-101464646D01*
X98560923Y-101626202D01*
X98503468Y-101684025D01*
X98460267Y-101729047D01*
X98430569Y-101763394D01*
X98413624Y-101789193D01*
X98408680Y-101808573D01*
X98414986Y-101823660D01*
X98431793Y-101836581D01*
X98458348Y-101849465D01*
X98479034Y-101858223D01*
X98584137Y-101892428D01*
X98697718Y-101912324D01*
X98812991Y-101917278D01*
X98923169Y-101906655D01*
X98946959Y-101901967D01*
X99068565Y-101864913D01*
X99181421Y-101809589D01*
X99283773Y-101737703D01*
X99373866Y-101650963D01*
X99449945Y-101551075D01*
X99510255Y-101439749D01*
X99553042Y-101318691D01*
X99555332Y-101309911D01*
X99561970Y-101281653D01*
X99567094Y-101253269D01*
X99570891Y-101221536D01*
X99573553Y-101183236D01*
X99575270Y-101135147D01*
X99576230Y-101074050D01*
X99576623Y-100996723D01*
X99576667Y-100947804D01*
X99576918Y-100851316D01*
X99576609Y-100774943D01*
X99574150Y-100718066D01*
X99567952Y-100680067D01*
X99556424Y-100660326D01*
X99537977Y-100658225D01*
X99511019Y-100673143D01*
G36*
X102631146Y-100309039D02*
G01*
X102540772Y-100309600D01*
X102456464Y-100310468D01*
X102380696Y-100311646D01*
X102315944Y-100313136D01*
X102264684Y-100314940D01*
X102229390Y-100317061D01*
X102215652Y-100318708D01*
X102114583Y-100347590D01*
X102024677Y-100393116D01*
X101947610Y-100453963D01*
X101885058Y-100528811D01*
X101838935Y-100615750D01*
X101824940Y-100666403D01*
X101816635Y-100730776D01*
X101814021Y-100802203D01*
X101817101Y-100874015D01*
X101825875Y-100939546D01*
X101838877Y-100988288D01*
X101879651Y-101073345D01*
X101934787Y-101150486D01*
X102001126Y-101216903D01*
X102075513Y-101269789D01*
X102154792Y-101306339D01*
X102212997Y-101320942D01*
X102256350Y-101327874D01*
X101982842Y-101601534D01*
X101910680Y-101673923D01*
X101852338Y-101732956D01*
X101806513Y-101780088D01*
X101771902Y-101816772D01*
X101747203Y-101844463D01*
X101731112Y-101864613D01*
X101722327Y-101878678D01*
X101719544Y-101888111D01*
X101721003Y-101893701D01*
X101725963Y-101899101D01*
X101734824Y-101903392D01*
X101749920Y-101906733D01*
X101773584Y-101909279D01*
X101808150Y-101911187D01*
X101855950Y-101912614D01*
X101919318Y-101913716D01*
X102000587Y-101914649D01*
X102038578Y-101915010D01*
X102344484Y-101917812D01*
X103345308Y-100927958D01*
X103345075Y-100785083D01*
X102819663Y-100785083D01*
X102767775Y-100837764D01*
X102715886Y-100890445D01*
X102530047Y-100893587D01*
X102468514Y-100894743D01*
X102413654Y-100895991D01*
X102369260Y-100897229D01*
X102339126Y-100898351D01*
X102327711Y-100899114D01*
X102306106Y-100895195D01*
X102292613Y-100887899D01*
X102279446Y-100869136D01*
X102269650Y-100839138D01*
X102268030Y-100829691D01*
X102262047Y-100785083D01*
X102819663Y-100785083D01*
X103345075Y-100785083D01*
X103344821Y-100629351D01*
X103344613Y-100541946D01*
X103344200Y-100473324D01*
X103343422Y-100421105D01*
X103342116Y-100382907D01*
X103340121Y-100356346D01*
X103337277Y-100339041D01*
X103333421Y-100328611D01*
X103328393Y-100322672D01*
X103323863Y-100319789D01*
X103308988Y-100317411D01*
X103275424Y-100315317D01*
X103225645Y-100313508D01*
X103162129Y-100311987D01*
X103087349Y-100310756D01*
X103003782Y-100309818D01*
X102913902Y-100309174D01*
X102820186Y-100308828D01*
X102725109Y-100308783D01*
X102631146Y-100309039D01*
G37*
X102631146Y-100309039D02*
X102540772Y-100309600D01*
X102456464Y-100310468D01*
X102380696Y-100311646D01*
X102315944Y-100313136D01*
X102264684Y-100314940D01*
X102229390Y-100317061D01*
X102215652Y-100318708D01*
X102114583Y-100347590D01*
X102024677Y-100393116D01*
X101947610Y-100453963D01*
X101885058Y-100528811D01*
X101838935Y-100615750D01*
X101824940Y-100666403D01*
X101816635Y-100730776D01*
X101814021Y-100802203D01*
X101817101Y-100874015D01*
X101825875Y-100939546D01*
X101838877Y-100988288D01*
X101879651Y-101073345D01*
X101934787Y-101150486D01*
X102001126Y-101216903D01*
X102075513Y-101269789D01*
X102154792Y-101306339D01*
X102212997Y-101320942D01*
X102256350Y-101327874D01*
X101982842Y-101601534D01*
X101910680Y-101673923D01*
X101852338Y-101732956D01*
X101806513Y-101780088D01*
X101771902Y-101816772D01*
X101747203Y-101844463D01*
X101731112Y-101864613D01*
X101722327Y-101878678D01*
X101719544Y-101888111D01*
X101721003Y-101893701D01*
X101725963Y-101899101D01*
X101734824Y-101903392D01*
X101749920Y-101906733D01*
X101773584Y-101909279D01*
X101808150Y-101911187D01*
X101855950Y-101912614D01*
X101919318Y-101913716D01*
X102000587Y-101914649D01*
X102038578Y-101915010D01*
X102344484Y-101917812D01*
X103345308Y-100927958D01*
X103345075Y-100785083D01*
X102819663Y-100785083D01*
X102767775Y-100837764D01*
X102715886Y-100890445D01*
X102530047Y-100893587D01*
X102468514Y-100894743D01*
X102413654Y-100895991D01*
X102369260Y-100897229D01*
X102339126Y-100898351D01*
X102327711Y-100899114D01*
X102306106Y-100895195D01*
X102292613Y-100887899D01*
X102279446Y-100869136D01*
X102269650Y-100839138D01*
X102268030Y-100829691D01*
X102262047Y-100785083D01*
X102819663Y-100785083D01*
X103345075Y-100785083D01*
X103344821Y-100629351D01*
X103344613Y-100541946D01*
X103344200Y-100473324D01*
X103343422Y-100421105D01*
X103342116Y-100382907D01*
X103340121Y-100356346D01*
X103337277Y-100339041D01*
X103333421Y-100328611D01*
X103328393Y-100322672D01*
X103323863Y-100319789D01*
X103308988Y-100317411D01*
X103275424Y-100315317D01*
X103225645Y-100313508D01*
X103162129Y-100311987D01*
X103087349Y-100310756D01*
X103003782Y-100309818D01*
X102913902Y-100309174D01*
X102820186Y-100308828D01*
X102725109Y-100308783D01*
X102631146Y-100309039D01*
G36*
X104000799Y-100675870D02*
G01*
X103976613Y-100696169D01*
X103941820Y-100727599D01*
X103898553Y-100768192D01*
X103848944Y-100815983D01*
X103797405Y-100866738D01*
X103598334Y-101064810D01*
X103598334Y-101478455D01*
X103598514Y-101591178D01*
X103599084Y-101684139D01*
X103600085Y-101758740D01*
X103601558Y-101816381D01*
X103603546Y-101858464D01*
X103606090Y-101886392D01*
X103609232Y-101901565D01*
X103611034Y-101904800D01*
X103624147Y-101909821D01*
X103653022Y-101913509D01*
X103699108Y-101915954D01*
X103763857Y-101917241D01*
X103821945Y-101917500D01*
X103893524Y-101917245D01*
X103946859Y-101916329D01*
X103984865Y-101914528D01*
X104010459Y-101911614D01*
X104026559Y-101907362D01*
X104036081Y-101901547D01*
X104036786Y-101900869D01*
X104040379Y-101895431D01*
X104043422Y-101885791D01*
X104045960Y-101870316D01*
X104048037Y-101847370D01*
X104049698Y-101815318D01*
X104050987Y-101772527D01*
X104051948Y-101717362D01*
X104052627Y-101648187D01*
X104053068Y-101563369D01*
X104053314Y-101461273D01*
X104053410Y-101340263D01*
X104053417Y-101289152D01*
X104053391Y-101159101D01*
X104053241Y-101048621D01*
X104052863Y-100956116D01*
X104052150Y-100879991D01*
X104050996Y-100818650D01*
X104049295Y-100770497D01*
X104046942Y-100733937D01*
X104043830Y-100707375D01*
X104039854Y-100689213D01*
X104034908Y-100677857D01*
X104028886Y-100671712D01*
X104021682Y-100669181D01*
X104013191Y-100668668D01*
X104012247Y-100668667D01*
X104000799Y-100675870D01*
G37*
X104000799Y-100675870D02*
X103976613Y-100696169D01*
X103941820Y-100727599D01*
X103898553Y-100768192D01*
X103848944Y-100815983D01*
X103797405Y-100866738D01*
X103598334Y-101064810D01*
X103598334Y-101478455D01*
X103598514Y-101591178D01*
X103599084Y-101684139D01*
X103600085Y-101758740D01*
X103601558Y-101816381D01*
X103603546Y-101858464D01*
X103606090Y-101886392D01*
X103609232Y-101901565D01*
X103611034Y-101904800D01*
X103624147Y-101909821D01*
X103653022Y-101913509D01*
X103699108Y-101915954D01*
X103763857Y-101917241D01*
X103821945Y-101917500D01*
X103893524Y-101917245D01*
X103946859Y-101916329D01*
X103984865Y-101914528D01*
X104010459Y-101911614D01*
X104026559Y-101907362D01*
X104036081Y-101901547D01*
X104036786Y-101900869D01*
X104040379Y-101895431D01*
X104043422Y-101885791D01*
X104045960Y-101870316D01*
X104048037Y-101847370D01*
X104049698Y-101815318D01*
X104050987Y-101772527D01*
X104051948Y-101717362D01*
X104052627Y-101648187D01*
X104053068Y-101563369D01*
X104053314Y-101461273D01*
X104053410Y-101340263D01*
X104053417Y-101289152D01*
X104053391Y-101159101D01*
X104053241Y-101048621D01*
X104052863Y-100956116D01*
X104052150Y-100879991D01*
X104050996Y-100818650D01*
X104049295Y-100770497D01*
X104046942Y-100733937D01*
X104043830Y-100707375D01*
X104039854Y-100689213D01*
X104034908Y-100677857D01*
X104028886Y-100671712D01*
X104021682Y-100669181D01*
X104013191Y-100668668D01*
X104012247Y-100668667D01*
X104000799Y-100675870D01*
G36*
X106306278Y-100286470D02*
G01*
X106284442Y-100297502D01*
X106255393Y-100319629D01*
X106217492Y-100353626D01*
X106169099Y-100400269D01*
X106108572Y-100460331D01*
X106049273Y-100519603D01*
X105804270Y-100764440D01*
X105792482Y-100839298D01*
X105770079Y-100925540D01*
X105731883Y-101010986D01*
X105681662Y-101088189D01*
X105645979Y-101128811D01*
X105577005Y-101185161D01*
X105495662Y-101230961D01*
X105408016Y-101263646D01*
X105320132Y-101280648D01*
X105282835Y-101282500D01*
X105271288Y-101283398D01*
X105259100Y-101287128D01*
X105244457Y-101295240D01*
X105225544Y-101309287D01*
X105200547Y-101330820D01*
X105167653Y-101361391D01*
X105125045Y-101402550D01*
X105070909Y-101455851D01*
X105013644Y-101512687D01*
X104955746Y-101570510D01*
X104902509Y-101624162D01*
X104855856Y-101671666D01*
X104817712Y-101711046D01*
X104789999Y-101740325D01*
X104774641Y-101757525D01*
X104772361Y-101760629D01*
X104766633Y-101784015D01*
X104778535Y-101804542D01*
X104809550Y-101824226D01*
X104824112Y-101830828D01*
X104922971Y-101865477D01*
X105034803Y-101891967D01*
X105152677Y-101909346D01*
X105269665Y-101916661D01*
X105378836Y-101912960D01*
X105402792Y-101910366D01*
X105524292Y-101887421D01*
X105650170Y-101849458D01*
X105773023Y-101799039D01*
X105867399Y-101749561D01*
X105924595Y-101711119D01*
X105988916Y-101659837D01*
X106055484Y-101600304D01*
X106119417Y-101537112D01*
X106175835Y-101474852D01*
X106219858Y-101418113D01*
X106220030Y-101417863D01*
X106297400Y-101291386D01*
X106355469Y-101163233D01*
X106395251Y-101030098D01*
X106417758Y-100888670D01*
X106424084Y-100751718D01*
X106421013Y-100649807D01*
X106410826Y-100557813D01*
X106392062Y-100466361D01*
X106364703Y-100370626D01*
X106354317Y-100337802D01*
X106344923Y-100312200D01*
X106334878Y-100294594D01*
X106322543Y-100285759D01*
X106306278Y-100286470D01*
G37*
X106306278Y-100286470D02*
X106284442Y-100297502D01*
X106255393Y-100319629D01*
X106217492Y-100353626D01*
X106169099Y-100400269D01*
X106108572Y-100460331D01*
X106049273Y-100519603D01*
X105804270Y-100764440D01*
X105792482Y-100839298D01*
X105770079Y-100925540D01*
X105731883Y-101010986D01*
X105681662Y-101088189D01*
X105645979Y-101128811D01*
X105577005Y-101185161D01*
X105495662Y-101230961D01*
X105408016Y-101263646D01*
X105320132Y-101280648D01*
X105282835Y-101282500D01*
X105271288Y-101283398D01*
X105259100Y-101287128D01*
X105244457Y-101295240D01*
X105225544Y-101309287D01*
X105200547Y-101330820D01*
X105167653Y-101361391D01*
X105125045Y-101402550D01*
X105070909Y-101455851D01*
X105013644Y-101512687D01*
X104955746Y-101570510D01*
X104902509Y-101624162D01*
X104855856Y-101671666D01*
X104817712Y-101711046D01*
X104789999Y-101740325D01*
X104774641Y-101757525D01*
X104772361Y-101760629D01*
X104766633Y-101784015D01*
X104778535Y-101804542D01*
X104809550Y-101824226D01*
X104824112Y-101830828D01*
X104922971Y-101865477D01*
X105034803Y-101891967D01*
X105152677Y-101909346D01*
X105269665Y-101916661D01*
X105378836Y-101912960D01*
X105402792Y-101910366D01*
X105524292Y-101887421D01*
X105650170Y-101849458D01*
X105773023Y-101799039D01*
X105867399Y-101749561D01*
X105924595Y-101711119D01*
X105988916Y-101659837D01*
X106055484Y-101600304D01*
X106119417Y-101537112D01*
X106175835Y-101474852D01*
X106219858Y-101418113D01*
X106220030Y-101417863D01*
X106297400Y-101291386D01*
X106355469Y-101163233D01*
X106395251Y-101030098D01*
X106417758Y-100888670D01*
X106424084Y-100751718D01*
X106421013Y-100649807D01*
X106410826Y-100557813D01*
X106392062Y-100466361D01*
X106364703Y-100370626D01*
X106354317Y-100337802D01*
X106344923Y-100312200D01*
X106334878Y-100294594D01*
X106322543Y-100285759D01*
X106306278Y-100286470D01*
G36*
X94211463Y-101679204D02*
G01*
X94149600Y-101741102D01*
X94101454Y-101789982D01*
X94065540Y-101827557D01*
X94040373Y-101855538D01*
X94024467Y-101875635D01*
X94016338Y-101889560D01*
X94014499Y-101899024D01*
X94016277Y-101904100D01*
X94020142Y-101908419D01*
X94027042Y-101912040D01*
X94038768Y-101915038D01*
X94057116Y-101917487D01*
X94083877Y-101919460D01*
X94120846Y-101921032D01*
X94169814Y-101922277D01*
X94232577Y-101923268D01*
X94310926Y-101924080D01*
X94406656Y-101924786D01*
X94521558Y-101925461D01*
X94535642Y-101925538D01*
X94637335Y-101925942D01*
X94732524Y-101926040D01*
X94819126Y-101925848D01*
X94895055Y-101925386D01*
X94958229Y-101924669D01*
X95006561Y-101923718D01*
X95037967Y-101922548D01*
X95050365Y-101921179D01*
X95050428Y-101921128D01*
X95052621Y-101908808D01*
X95054543Y-101878652D01*
X95056082Y-101833992D01*
X95057130Y-101778159D01*
X95057576Y-101714483D01*
X95057584Y-101704442D01*
X95057464Y-101632642D01*
X95056927Y-101579123D01*
X95055705Y-101541002D01*
X95053529Y-101515392D01*
X95050133Y-101499409D01*
X95045247Y-101490168D01*
X95038605Y-101484785D01*
X95037113Y-101483956D01*
X95019894Y-101480536D01*
X94983038Y-101477690D01*
X94928069Y-101475470D01*
X94856511Y-101473928D01*
X94769887Y-101473116D01*
X94717513Y-101473000D01*
X94418383Y-101473000D01*
X94211463Y-101679204D01*
G37*
X94211463Y-101679204D02*
X94149600Y-101741102D01*
X94101454Y-101789982D01*
X94065540Y-101827557D01*
X94040373Y-101855538D01*
X94024467Y-101875635D01*
X94016338Y-101889560D01*
X94014499Y-101899024D01*
X94016277Y-101904100D01*
X94020142Y-101908419D01*
X94027042Y-101912040D01*
X94038768Y-101915038D01*
X94057116Y-101917487D01*
X94083877Y-101919460D01*
X94120846Y-101921032D01*
X94169814Y-101922277D01*
X94232577Y-101923268D01*
X94310926Y-101924080D01*
X94406656Y-101924786D01*
X94521558Y-101925461D01*
X94535642Y-101925538D01*
X94637335Y-101925942D01*
X94732524Y-101926040D01*
X94819126Y-101925848D01*
X94895055Y-101925386D01*
X94958229Y-101924669D01*
X95006561Y-101923718D01*
X95037967Y-101922548D01*
X95050365Y-101921179D01*
X95050428Y-101921128D01*
X95052621Y-101908808D01*
X95054543Y-101878652D01*
X95056082Y-101833992D01*
X95057130Y-101778159D01*
X95057576Y-101714483D01*
X95057584Y-101704442D01*
X95057464Y-101632642D01*
X95056927Y-101579123D01*
X95055705Y-101541002D01*
X95053529Y-101515392D01*
X95050133Y-101499409D01*
X95045247Y-101490168D01*
X95038605Y-101484785D01*
X95037113Y-101483956D01*
X95019894Y-101480536D01*
X94983038Y-101477690D01*
X94928069Y-101475470D01*
X94856511Y-101473928D01*
X94769887Y-101473116D01*
X94717513Y-101473000D01*
X94418383Y-101473000D01*
X94211463Y-101679204D01*
G36*
X101369034Y-100760390D02*
G01*
X101343955Y-100779608D01*
X101306657Y-100813252D01*
X101256581Y-100861825D01*
X101193170Y-100925833D01*
X101190963Y-100928092D01*
X101135888Y-100984659D01*
X101093849Y-101028528D01*
X101062990Y-101062048D01*
X101041460Y-101087568D01*
X101027404Y-101107437D01*
X101018971Y-101124004D01*
X101014308Y-101139617D01*
X101011738Y-101155272D01*
X100992995Y-101226032D01*
X100957779Y-101295577D01*
X100909892Y-101358774D01*
X100853132Y-101410488D01*
X100799393Y-101442185D01*
X100762678Y-101454985D01*
X100717149Y-101466282D01*
X100687722Y-101471422D01*
X100621752Y-101480444D01*
X100453751Y-101649359D01*
X100394668Y-101709733D01*
X100347352Y-101760133D01*
X100312786Y-101799447D01*
X100291951Y-101826562D01*
X100285750Y-101839619D01*
X100295843Y-101858122D01*
X100324485Y-101878016D01*
X100369226Y-101898054D01*
X100427614Y-101916990D01*
X100449370Y-101922762D01*
X100496470Y-101930790D01*
X100557888Y-101935828D01*
X100627151Y-101937884D01*
X100697787Y-101936967D01*
X100763322Y-101933088D01*
X100817285Y-101926254D01*
X100836084Y-101922214D01*
X100869843Y-101911125D01*
X100915645Y-101892910D01*
X100966823Y-101870336D01*
X101005417Y-101851868D01*
X101055550Y-101825925D01*
X101095523Y-101802087D01*
X101131302Y-101775967D01*
X101168854Y-101743176D01*
X101214144Y-101699329D01*
X101217844Y-101695646D01*
X101287648Y-101619874D01*
X101342187Y-101545108D01*
X101385212Y-101464958D01*
X101420472Y-101373036D01*
X101434827Y-101326053D01*
X101445882Y-101285856D01*
X101453380Y-101252218D01*
X101457832Y-101219588D01*
X101459745Y-101182414D01*
X101459627Y-101135143D01*
X101458012Y-101072984D01*
X101455310Y-101004857D01*
X101451501Y-100952443D01*
X101445874Y-100910292D01*
X101437716Y-100872954D01*
X101427329Y-100838061D01*
X101410148Y-100791558D01*
X101395073Y-100764387D01*
X101382451Y-100755094D01*
X101369034Y-100760390D01*
G37*
X101369034Y-100760390D02*
X101343955Y-100779608D01*
X101306657Y-100813252D01*
X101256581Y-100861825D01*
X101193170Y-100925833D01*
X101190963Y-100928092D01*
X101135888Y-100984659D01*
X101093849Y-101028528D01*
X101062990Y-101062048D01*
X101041460Y-101087568D01*
X101027404Y-101107437D01*
X101018971Y-101124004D01*
X101014308Y-101139617D01*
X101011738Y-101155272D01*
X100992995Y-101226032D01*
X100957779Y-101295577D01*
X100909892Y-101358774D01*
X100853132Y-101410488D01*
X100799393Y-101442185D01*
X100762678Y-101454985D01*
X100717149Y-101466282D01*
X100687722Y-101471422D01*
X100621752Y-101480444D01*
X100453751Y-101649359D01*
X100394668Y-101709733D01*
X100347352Y-101760133D01*
X100312786Y-101799447D01*
X100291951Y-101826562D01*
X100285750Y-101839619D01*
X100295843Y-101858122D01*
X100324485Y-101878016D01*
X100369226Y-101898054D01*
X100427614Y-101916990D01*
X100449370Y-101922762D01*
X100496470Y-101930790D01*
X100557888Y-101935828D01*
X100627151Y-101937884D01*
X100697787Y-101936967D01*
X100763322Y-101933088D01*
X100817285Y-101926254D01*
X100836084Y-101922214D01*
X100869843Y-101911125D01*
X100915645Y-101892910D01*
X100966823Y-101870336D01*
X101005417Y-101851868D01*
X101055550Y-101825925D01*
X101095523Y-101802087D01*
X101131302Y-101775967D01*
X101168854Y-101743176D01*
X101214144Y-101699329D01*
X101217844Y-101695646D01*
X101287648Y-101619874D01*
X101342187Y-101545108D01*
X101385212Y-101464958D01*
X101420472Y-101373036D01*
X101434827Y-101326053D01*
X101445882Y-101285856D01*
X101453380Y-101252218D01*
X101457832Y-101219588D01*
X101459745Y-101182414D01*
X101459627Y-101135143D01*
X101458012Y-101072984D01*
X101455310Y-101004857D01*
X101451501Y-100952443D01*
X101445874Y-100910292D01*
X101437716Y-100872954D01*
X101427329Y-100838061D01*
X101410148Y-100791558D01*
X101395073Y-100764387D01*
X101382451Y-100755094D01*
X101369034Y-100760390D01*
G36*
X103295578Y-101067421D02*
G01*
X103273694Y-101087653D01*
X103240855Y-101119018D01*
X103199056Y-101159592D01*
X103150296Y-101207450D01*
X103096569Y-101260666D01*
X103093598Y-101263622D01*
X102889250Y-101466994D01*
X102889250Y-101690130D01*
X102889680Y-101773377D01*
X102891025Y-101836995D01*
X102893365Y-101882505D01*
X102896783Y-101911428D01*
X102901362Y-101925286D01*
X102901950Y-101925967D01*
X102915064Y-101930987D01*
X102943938Y-101934676D01*
X102990025Y-101937120D01*
X103054774Y-101938407D01*
X103112861Y-101938667D01*
X103184441Y-101938412D01*
X103237776Y-101937496D01*
X103275782Y-101935694D01*
X103301376Y-101932781D01*
X103317476Y-101928529D01*
X103326998Y-101922714D01*
X103327703Y-101922036D01*
X103331995Y-101915635D01*
X103335493Y-101904533D01*
X103338275Y-101886736D01*
X103340420Y-101860246D01*
X103342005Y-101823069D01*
X103343111Y-101773207D01*
X103343814Y-101708666D01*
X103344194Y-101627449D01*
X103344329Y-101527560D01*
X103344334Y-101499458D01*
X103344247Y-101394593D01*
X103343936Y-101308899D01*
X103343321Y-101240379D01*
X103342323Y-101187037D01*
X103340865Y-101146878D01*
X103338868Y-101117905D01*
X103336252Y-101098124D01*
X103332941Y-101085537D01*
X103328854Y-101078148D01*
X103327703Y-101076881D01*
X103311830Y-101063621D01*
X103304508Y-101060250D01*
X103295578Y-101067421D01*
G37*
X103295578Y-101067421D02*
X103273694Y-101087653D01*
X103240855Y-101119018D01*
X103199056Y-101159592D01*
X103150296Y-101207450D01*
X103096569Y-101260666D01*
X103093598Y-101263622D01*
X102889250Y-101466994D01*
X102889250Y-101690130D01*
X102889680Y-101773377D01*
X102891025Y-101836995D01*
X102893365Y-101882505D01*
X102896783Y-101911428D01*
X102901362Y-101925286D01*
X102901950Y-101925967D01*
X102915064Y-101930987D01*
X102943938Y-101934676D01*
X102990025Y-101937120D01*
X103054774Y-101938407D01*
X103112861Y-101938667D01*
X103184441Y-101938412D01*
X103237776Y-101937496D01*
X103275782Y-101935694D01*
X103301376Y-101932781D01*
X103317476Y-101928529D01*
X103326998Y-101922714D01*
X103327703Y-101922036D01*
X103331995Y-101915635D01*
X103335493Y-101904533D01*
X103338275Y-101886736D01*
X103340420Y-101860246D01*
X103342005Y-101823069D01*
X103343111Y-101773207D01*
X103343814Y-101708666D01*
X103344194Y-101627449D01*
X103344329Y-101527560D01*
X103344334Y-101499458D01*
X103344247Y-101394593D01*
X103343936Y-101308899D01*
X103343321Y-101240379D01*
X103342323Y-101187037D01*
X103340865Y-101146878D01*
X103338868Y-101117905D01*
X103336252Y-101098124D01*
X103332941Y-101085537D01*
X103328854Y-101078148D01*
X103327703Y-101076881D01*
X103311830Y-101063621D01*
X103304508Y-101060250D01*
X103295578Y-101067421D01*
D10*
X114974666Y-91384380D02*
X115308000Y-90908190D01*
X115546095Y-91384380D02*
X115546095Y-90384380D01*
X115165142Y-90384380D01*
X115069904Y-90432000D01*
X115022285Y-90479619D01*
X114974666Y-90574857D01*
X114974666Y-90717714D01*
X115022285Y-90812952D01*
X115069904Y-90860571D01*
X115165142Y-90908190D01*
X115546095Y-90908190D01*
X114022285Y-91384380D02*
X114593714Y-91384380D01*
X114308000Y-91384380D02*
X114308000Y-90384380D01*
X114403238Y-90527238D01*
X114498476Y-90622476D01*
X114593714Y-90670095D01*
X115621969Y-113213732D02*
X116194389Y-113112717D01*
X116026030Y-113617793D02*
X116733137Y-112910687D01*
X116463763Y-112641312D01*
X116362748Y-112607641D01*
X116295404Y-112607641D01*
X116194389Y-112641312D01*
X116093374Y-112742328D01*
X116059702Y-112843343D01*
X116059702Y-112910687D01*
X116093374Y-113011702D01*
X116362748Y-113281076D01*
X115992358Y-112304595D02*
X115992358Y-112237251D01*
X115958687Y-112136236D01*
X115790328Y-111967877D01*
X115689312Y-111934206D01*
X115621969Y-111934206D01*
X115520954Y-111967877D01*
X115453610Y-112035221D01*
X115386267Y-112169908D01*
X115386267Y-112978030D01*
X114948534Y-112540297D01*
X81986380Y-110831333D02*
X81510190Y-110498000D01*
X81986380Y-110259904D02*
X80986380Y-110259904D01*
X80986380Y-110640857D01*
X81034000Y-110736095D01*
X81081619Y-110783714D01*
X81176857Y-110831333D01*
X81319714Y-110831333D01*
X81414952Y-110783714D01*
X81462571Y-110736095D01*
X81510190Y-110640857D01*
X81510190Y-110259904D01*
X80986380Y-111164666D02*
X80986380Y-111783714D01*
X81367333Y-111450380D01*
X81367333Y-111593238D01*
X81414952Y-111688476D01*
X81462571Y-111736095D01*
X81557809Y-111783714D01*
X81795904Y-111783714D01*
X81891142Y-111736095D01*
X81938761Y-111688476D01*
X81986380Y-111593238D01*
X81986380Y-111307523D01*
X81938761Y-111212285D01*
X81891142Y-111164666D01*
%LPC*%
D12*
X115000000Y-88828950D03*
X116464466Y-110635566D03*
X83000000Y-109171100D03*
D13*
X100000000Y-87615000D03*
D14*
X100000000Y-90155000D03*
D13*
X105755749Y-89033750D03*
D15*
G36*
X104974996Y-92566724D02*
G01*
X103290977Y-91682595D01*
X104175106Y-89998576D01*
X105859125Y-90882705D01*
X104974996Y-92566724D01*
G37*
G36*
X107859334Y-95729984D02*
G01*
X106779295Y-94164379D01*
X108344900Y-93084340D01*
X109424939Y-94649945D01*
X107859334Y-95729984D01*
G37*
D13*
X110192883Y-92964838D03*
D15*
G36*
X108943336Y-99871136D02*
G01*
X108714836Y-97982912D01*
X110603060Y-97754412D01*
X110831560Y-99642636D01*
X108943336Y-99871136D01*
G37*
D13*
X112294802Y-98507626D03*
D15*
G36*
X107978745Y-104041726D02*
G01*
X108654159Y-102263688D01*
X110432197Y-102939102D01*
X109756783Y-104717140D01*
X107978745Y-104041726D01*
G37*
D13*
X111579929Y-104392386D03*
X108212127Y-109270874D03*
D15*
G36*
X105186664Y-107286421D02*
G01*
X106611178Y-106026117D01*
X107871482Y-107450631D01*
X106446968Y-108710935D01*
X105186664Y-107286421D01*
G37*
D13*
X102965090Y-112024810D03*
D15*
G36*
X101203302Y-108864495D02*
G01*
X103049605Y-108407582D01*
X103506518Y-110253885D01*
X101660215Y-110710798D01*
X101203302Y-108864495D01*
G37*
D13*
X97037063Y-112025341D03*
D15*
G36*
X96946234Y-108408265D02*
G01*
X98793331Y-108861956D01*
X98339640Y-110709053D01*
X96492543Y-110255362D01*
X96946234Y-108408265D01*
G37*
G36*
X93388822Y-106036117D02*
G01*
X94813336Y-107296421D01*
X93553032Y-108720935D01*
X92128518Y-107460631D01*
X93388822Y-106036117D01*
G37*
D13*
X91787873Y-109280874D03*
D15*
G36*
X91345841Y-102263688D02*
G01*
X92021255Y-104041726D01*
X90243217Y-104717140D01*
X89567803Y-102939102D01*
X91345841Y-102263688D01*
G37*
D13*
X88420071Y-104392386D03*
D15*
G36*
X91317433Y-98105216D02*
G01*
X90990423Y-99978894D01*
X89116745Y-99651884D01*
X89443755Y-97778206D01*
X91317433Y-98105216D01*
G37*
D13*
X87714911Y-98441850D03*
X89807117Y-92964838D03*
D15*
G36*
X93220705Y-94164379D02*
G01*
X92140666Y-95729984D01*
X90575061Y-94649945D01*
X91655100Y-93084340D01*
X93220705Y-94164379D01*
G37*
D13*
X94244251Y-89033750D03*
D15*
G36*
X96709023Y-91682595D02*
G01*
X95025004Y-92566724D01*
X94140875Y-90882705D01*
X95824894Y-89998576D01*
X96709023Y-91682595D01*
G37*
M02*
