M48
; DRILL file {KiCad (5.1.5)-3} date 5/18/2020 11:05:05 PM
; FORMAT={-:-/ absolute / inch / decimal}
; #@! TF.CreationDate,2020-05-18T23:05:05-04:00
; #@! TF.GenerationSoftware,Kicad,Pcbnew,(5.1.5)-3
; #@! TF.FileFunction,Plated,1,2,PTH
FMAT,2
INCH
T1C0.0197
T2C0.0315
T3C0.0354
%
G90
G05
T1
X3.937Y-3.937
T2
X3.2677Y-4.2981
X4.5852Y-4.3557
X4.5276Y-3.4972
T3
X4.2994Y-4.0744
X4.3929Y-4.1099
X3.937Y-3.4494
X3.937Y-3.5494
X4.3218Y-3.8903
X4.4211Y-3.8783
X4.0297Y-4.3134
X4.0537Y-4.4104
X3.7104Y-3.5053
X3.7569Y-3.5938
X4.256Y-3.7168
X4.3383Y-3.66
X4.1171Y-3.5938
X4.1636Y-3.5053
X3.4533Y-3.8757
X3.5519Y-3.8929
X3.6137Y-4.3024
X3.68Y-4.2275
X4.1941Y-4.2271
X4.2603Y-4.302
X3.5357Y-3.66
X3.618Y-3.7168
X3.4811Y-4.1099
X3.5746Y-4.0744
X3.8204Y-4.4104
X3.8442Y-4.3133
T0
M30
