G04 #@! TF.GenerationSoftware,KiCad,Pcbnew,(5.1.5)-3*
G04 #@! TF.CreationDate,2020-05-18T23:05:03-04:00*
G04 #@! TF.ProjectId,Union_Circle,556e696f-6e5f-4436-9972-636c652e6b69,rev?*
G04 #@! TF.SameCoordinates,Original*
G04 #@! TF.FileFunction,Copper,L1,Top*
G04 #@! TF.FilePolarity,Positive*
%FSLAX46Y46*%
G04 Gerber Fmt 4.6, Leading zero omitted, Abs format (unit mm)*
G04 Created by KiCad (PCBNEW (5.1.5)-3) date 2020-05-18 23:05:03*
%MOMM*%
%LPD*%
G04 APERTURE LIST*
%ADD10C,0.400000*%
%ADD11C,1.600000*%
%ADD12C,1.800000*%
%ADD13R,1.800000X1.800000*%
%ADD14C,0.100000*%
%ADD15C,0.800000*%
%ADD16C,0.250000*%
%ADD17C,0.254000*%
G04 APERTURE END LIST*
D10*
X112400000Y-100000000D02*
G75*
G03X112400000Y-100000000I-12400000J0D01*
G01*
D11*
X115000000Y-88828950D03*
X116464466Y-110635566D03*
X83000000Y-109171100D03*
D12*
X100000000Y-87615000D03*
D13*
X100000000Y-90155000D03*
D12*
X105755749Y-89033750D03*
G04 #@! TA.AperFunction,ComponentPad*
D14*
G36*
X104953547Y-92497862D02*
G01*
X103359839Y-91661146D01*
X104196555Y-90067438D01*
X105790263Y-90904154D01*
X104953547Y-92497862D01*
G37*
G04 #@! TD.AperFunction*
G04 #@! TA.AperFunction,ComponentPad*
G36*
X107872354Y-95659044D02*
G01*
X106850235Y-94177399D01*
X108331880Y-93155280D01*
X109353999Y-94636925D01*
X107872354Y-95659044D01*
G37*
G04 #@! TD.AperFunction*
D12*
X110192883Y-92964838D03*
G04 #@! TA.AperFunction,ComponentPad*
D14*
G36*
X108987840Y-99814379D02*
G01*
X108771593Y-98027416D01*
X110558556Y-97811169D01*
X110774803Y-99598132D01*
X108987840Y-99814379D01*
G37*
G04 #@! TD.AperFunction*
D12*
X112294802Y-98507626D03*
G04 #@! TA.AperFunction,ComponentPad*
D14*
G36*
X108044532Y-104012161D02*
G01*
X108683724Y-102329475D01*
X110366410Y-102968667D01*
X109727218Y-104651353D01*
X108044532Y-104012161D01*
G37*
G04 #@! TD.AperFunction*
D12*
X111579929Y-104392386D03*
X108212127Y-109270874D03*
G04 #@! TA.AperFunction,ComponentPad*
D14*
G36*
X105258655Y-107290824D02*
G01*
X106606775Y-106098108D01*
X107799491Y-107446228D01*
X106451371Y-108638944D01*
X105258655Y-107290824D01*
G37*
G04 #@! TD.AperFunction*
D12*
X102965090Y-112024810D03*
G04 #@! TA.AperFunction,ComponentPad*
D14*
G36*
X101265060Y-108901750D02*
G01*
X103012350Y-108469340D01*
X103444760Y-110216630D01*
X101697470Y-110649040D01*
X101265060Y-108901750D01*
G37*
G04 #@! TD.AperFunction*
D12*
X97037063Y-112025341D03*
G04 #@! TA.AperFunction,ComponentPad*
D14*
G36*
X96983596Y-108469958D02*
G01*
X98731638Y-108899318D01*
X98302278Y-110647360D01*
X96554236Y-110218000D01*
X96983596Y-108469958D01*
G37*
G04 #@! TD.AperFunction*
G04 #@! TA.AperFunction,ComponentPad*
G36*
X93393225Y-106108108D02*
G01*
X94741345Y-107300824D01*
X93548629Y-108648944D01*
X92200509Y-107456228D01*
X93393225Y-106108108D01*
G37*
G04 #@! TD.AperFunction*
D12*
X91787873Y-109280874D03*
G04 #@! TA.AperFunction,ComponentPad*
D14*
G36*
X91316276Y-102329475D02*
G01*
X91955468Y-104012161D01*
X90272782Y-104651353D01*
X89633590Y-102968667D01*
X91316276Y-102329475D01*
G37*
G04 #@! TD.AperFunction*
D12*
X88420071Y-104392386D03*
G04 #@! TA.AperFunction,ComponentPad*
D14*
G36*
X91258424Y-98146688D02*
G01*
X90948951Y-99919885D01*
X89175754Y-99610412D01*
X89485227Y-97837215D01*
X91258424Y-98146688D01*
G37*
G04 #@! TD.AperFunction*
D12*
X87714911Y-98441850D03*
X89807117Y-92964838D03*
G04 #@! TA.AperFunction,ComponentPad*
D14*
G36*
X93149765Y-94177399D02*
G01*
X92127646Y-95659044D01*
X90646001Y-94636925D01*
X91668120Y-93155280D01*
X93149765Y-94177399D01*
G37*
G04 #@! TD.AperFunction*
D12*
X94244251Y-89033750D03*
G04 #@! TA.AperFunction,ComponentPad*
D14*
G36*
X96640161Y-91661146D02*
G01*
X95046453Y-92497862D01*
X94209737Y-90904154D01*
X95803445Y-90067438D01*
X96640161Y-91661146D01*
G37*
G04 #@! TD.AperFunction*
D15*
X100000000Y-100000000D03*
D10*
X116464466Y-110622466D02*
X116586000Y-110500932D01*
D16*
X116464466Y-110635566D02*
X116464466Y-110622466D01*
D10*
X114328771Y-88828950D02*
X115000000Y-88828950D01*
X110192883Y-92964838D02*
X114328771Y-88828950D01*
X105960549Y-88828950D02*
X105755749Y-89033750D01*
X115000000Y-88828950D02*
X105960549Y-88828950D01*
X111579929Y-105751029D02*
X116464466Y-110635566D01*
X111579929Y-104392386D02*
X111579929Y-105751029D01*
X115099774Y-109270874D02*
X116464466Y-110635566D01*
X108212127Y-109270874D02*
X115099774Y-109270874D01*
D17*
G36*
X98807688Y-88593505D02*
G01*
X98874127Y-88659944D01*
X98855820Y-88665498D01*
X98745506Y-88724463D01*
X98648815Y-88803815D01*
X98569463Y-88900506D01*
X98510498Y-89010820D01*
X98474188Y-89130518D01*
X98461928Y-89255000D01*
X98465000Y-89869250D01*
X98623750Y-90028000D01*
X99873000Y-90028000D01*
X99873000Y-90008000D01*
X100127000Y-90008000D01*
X100127000Y-90028000D01*
X101376250Y-90028000D01*
X101535000Y-89869250D01*
X101538072Y-89255000D01*
X101525812Y-89130518D01*
X101489502Y-89010820D01*
X101430537Y-88900506D01*
X101351185Y-88803815D01*
X101254494Y-88724463D01*
X101144180Y-88665498D01*
X101125873Y-88659944D01*
X101192312Y-88593505D01*
X101242705Y-88518087D01*
X101645871Y-88552715D01*
X102940035Y-88814947D01*
X104195871Y-89222993D01*
X104231561Y-89239292D01*
X104270505Y-89435073D01*
X104254384Y-89431991D01*
X104129304Y-89432920D01*
X104006808Y-89458232D01*
X103891604Y-89506955D01*
X103788118Y-89577217D01*
X103700329Y-89666319D01*
X103631610Y-89770835D01*
X103348800Y-90316116D01*
X103415563Y-90530466D01*
X104521641Y-91111170D01*
X104530938Y-91093462D01*
X104755828Y-91211532D01*
X104746531Y-91229240D01*
X105852609Y-91809944D01*
X106066959Y-91743181D01*
X106355208Y-91200756D01*
X106402218Y-91084842D01*
X106425710Y-90961983D01*
X106424781Y-90836903D01*
X106399469Y-90714407D01*
X106350746Y-90599203D01*
X106280484Y-90495717D01*
X106267731Y-90483152D01*
X106451123Y-90407188D01*
X106527786Y-90453418D01*
X107573464Y-91259756D01*
X108520411Y-92180037D01*
X108743485Y-92452845D01*
X108716872Y-92517095D01*
X108694029Y-92631933D01*
X108678465Y-92619541D01*
X108567287Y-92562221D01*
X108447065Y-92527691D01*
X108322415Y-92517278D01*
X108198129Y-92531383D01*
X108078983Y-92569465D01*
X107969555Y-92630060D01*
X107465688Y-92981386D01*
X107425160Y-93202204D01*
X108134539Y-94230508D01*
X108151002Y-94219151D01*
X108295234Y-94428227D01*
X108278771Y-94439584D01*
X108988150Y-95467887D01*
X109208968Y-95508415D01*
X109716324Y-95162146D01*
X109811828Y-95081368D01*
X109889738Y-94983510D01*
X109947058Y-94872332D01*
X109981588Y-94752110D01*
X109992001Y-94627460D01*
X109977896Y-94503174D01*
X109972426Y-94486059D01*
X110041699Y-94499838D01*
X110161987Y-94499838D01*
X110652795Y-95498091D01*
X111096536Y-96741763D01*
X111246208Y-97385403D01*
X111120332Y-97511279D01*
X111114454Y-97497937D01*
X111042663Y-97395506D01*
X110952270Y-97309048D01*
X110846746Y-97241887D01*
X110730147Y-97196602D01*
X110606954Y-97174935D01*
X110481900Y-97177719D01*
X109872468Y-97254562D01*
X109733940Y-97431234D01*
X109884021Y-98671436D01*
X109903876Y-98669033D01*
X109934391Y-98921194D01*
X109914536Y-98923597D01*
X110064617Y-100163799D01*
X110241288Y-100302327D01*
X110851459Y-100231583D01*
X110973566Y-100204457D01*
X111088035Y-100154030D01*
X111190466Y-100082239D01*
X111276924Y-99991846D01*
X111344085Y-99886322D01*
X111389370Y-99769723D01*
X111392669Y-99750968D01*
X111546139Y-99853514D01*
X111546139Y-100660232D01*
X111395617Y-101972089D01*
X111178159Y-102907230D01*
X111132186Y-102916375D01*
X111002814Y-102969963D01*
X111004202Y-102949738D01*
X110988253Y-102825674D01*
X110948409Y-102707107D01*
X110886198Y-102598591D01*
X110804012Y-102504296D01*
X110705010Y-102427846D01*
X110592994Y-102372181D01*
X110017687Y-102156928D01*
X109812910Y-102248959D01*
X109369292Y-103416790D01*
X109387989Y-103423892D01*
X109297792Y-103661337D01*
X109279095Y-103654235D01*
X108835478Y-104822066D01*
X108927508Y-105026843D01*
X109500634Y-105247839D01*
X109621357Y-105280583D01*
X109746147Y-105289145D01*
X109870211Y-105273196D01*
X109988778Y-105233352D01*
X110097294Y-105171141D01*
X110191589Y-105088955D01*
X110201610Y-105075978D01*
X110219630Y-105119481D01*
X110294248Y-105231155D01*
X110070178Y-105686891D01*
X109356282Y-106797736D01*
X108557574Y-107774515D01*
X108366481Y-107736505D01*
X108372987Y-107725940D01*
X108416536Y-107608682D01*
X108436373Y-107485181D01*
X108431735Y-107360184D01*
X108402801Y-107238492D01*
X108350681Y-107124784D01*
X108277379Y-107023429D01*
X107868064Y-106565418D01*
X107643976Y-106551713D01*
X106708343Y-107379491D01*
X106721595Y-107394470D01*
X106531361Y-107562775D01*
X106518108Y-107547796D01*
X105582475Y-108375574D01*
X105568770Y-108599662D01*
X105973483Y-109061743D01*
X106065150Y-109146851D01*
X106171659Y-109212440D01*
X106288917Y-109255989D01*
X106412418Y-109275826D01*
X106537415Y-109271188D01*
X106659107Y-109242254D01*
X106677127Y-109233994D01*
X106677127Y-109422058D01*
X106678742Y-109430178D01*
X106527786Y-109546582D01*
X105397008Y-110228467D01*
X104195871Y-110777007D01*
X103963580Y-110852483D01*
X103943595Y-110832498D01*
X103806012Y-110740568D01*
X103823405Y-110730210D01*
X103916323Y-110646471D01*
X103991120Y-110546215D01*
X104044920Y-110433293D01*
X104075658Y-110312044D01*
X104082150Y-110187129D01*
X104064147Y-110063347D01*
X103913605Y-109467822D01*
X103721368Y-109351857D01*
X102508700Y-109651962D01*
X102513505Y-109671376D01*
X102266943Y-109732395D01*
X102262138Y-109712980D01*
X101049470Y-110013085D01*
X100933505Y-110205322D01*
X101078083Y-110802323D01*
X101119888Y-110920214D01*
X101183890Y-111027685D01*
X101267629Y-111120603D01*
X101367885Y-111195400D01*
X101480807Y-111249200D01*
X101602056Y-111279938D01*
X101616179Y-111280672D01*
X101604791Y-111297715D01*
X101539036Y-111456461D01*
X100330251Y-111560284D01*
X99010325Y-111522576D01*
X98457351Y-111443071D01*
X98397362Y-111298246D01*
X98384411Y-111278864D01*
X98398793Y-111278091D01*
X98519988Y-111247141D01*
X98632816Y-111193144D01*
X98732942Y-111118172D01*
X98816518Y-111025107D01*
X98880332Y-110917526D01*
X98921931Y-110799561D01*
X99065467Y-110202309D01*
X98949167Y-110010275D01*
X97735977Y-109712287D01*
X97731206Y-109731709D01*
X97484538Y-109671122D01*
X97489309Y-109651699D01*
X96731728Y-109465619D01*
X97796565Y-109465619D01*
X99009754Y-109763607D01*
X99201789Y-109647306D01*
X99351292Y-109051520D01*
X99368569Y-108931251D01*
X100627670Y-108931251D01*
X100645673Y-109055033D01*
X100796215Y-109650558D01*
X100988452Y-109766523D01*
X102201120Y-109466418D01*
X101901015Y-108253750D01*
X101799865Y-108192732D01*
X102147577Y-108192732D01*
X102447682Y-109405400D01*
X103660350Y-109105295D01*
X103776315Y-108913058D01*
X103631737Y-108316057D01*
X103589932Y-108198166D01*
X103525930Y-108090695D01*
X103442191Y-107997777D01*
X103341935Y-107922980D01*
X103229013Y-107869180D01*
X103107764Y-107838442D01*
X102982849Y-107831950D01*
X102859067Y-107849953D01*
X102263542Y-108000495D01*
X102147577Y-108192732D01*
X101799865Y-108192732D01*
X101708778Y-108137785D01*
X101111777Y-108282363D01*
X100993886Y-108324168D01*
X100886415Y-108388170D01*
X100793497Y-108471909D01*
X100718700Y-108572165D01*
X100664900Y-108685087D01*
X100634162Y-108806336D01*
X100627670Y-108931251D01*
X99368569Y-108931251D01*
X99369079Y-108927707D01*
X99362369Y-108802803D01*
X99331419Y-108681608D01*
X99277422Y-108568780D01*
X99202450Y-108468654D01*
X99109385Y-108385078D01*
X99001804Y-108321264D01*
X98883839Y-108279665D01*
X98286587Y-108136129D01*
X98094553Y-108252429D01*
X97796565Y-109465619D01*
X96731728Y-109465619D01*
X96276120Y-109353711D01*
X96084085Y-109470012D01*
X95934582Y-110065798D01*
X95916795Y-110189611D01*
X95923505Y-110314515D01*
X95954455Y-110435710D01*
X96008452Y-110548538D01*
X96083424Y-110648664D01*
X96176489Y-110732240D01*
X96193923Y-110742581D01*
X96058558Y-110833029D01*
X96042150Y-110849437D01*
X95195725Y-110519894D01*
X94027863Y-109903677D01*
X93322873Y-109421617D01*
X93322873Y-109243994D01*
X93340893Y-109252254D01*
X93462585Y-109281188D01*
X93587582Y-109285826D01*
X93711083Y-109265989D01*
X93828341Y-109222440D01*
X93934850Y-109156851D01*
X94026517Y-109071743D01*
X94163792Y-108915009D01*
X96220407Y-108915009D01*
X96336707Y-109107043D01*
X97549897Y-109405031D01*
X97847885Y-108191842D01*
X97731584Y-107999807D01*
X97135798Y-107850304D01*
X97011985Y-107832517D01*
X96887081Y-107839227D01*
X96765886Y-107870177D01*
X96653058Y-107924174D01*
X96552932Y-107999146D01*
X96469356Y-108092211D01*
X96405542Y-108199792D01*
X96363943Y-108317757D01*
X96220407Y-108915009D01*
X94163792Y-108915009D01*
X94431230Y-108609662D01*
X94417525Y-108385574D01*
X93481892Y-107557796D01*
X93468639Y-107572775D01*
X93278405Y-107404470D01*
X93291657Y-107389491D01*
X93266870Y-107367561D01*
X93650197Y-107367561D01*
X94585830Y-108195339D01*
X94809918Y-108181634D01*
X95219233Y-107723623D01*
X95292535Y-107622268D01*
X95344655Y-107508560D01*
X95373589Y-107386868D01*
X95378227Y-107261871D01*
X95376621Y-107251871D01*
X104621773Y-107251871D01*
X104626411Y-107376868D01*
X104655345Y-107498560D01*
X104707465Y-107612268D01*
X104780767Y-107713623D01*
X105190082Y-108171634D01*
X105414170Y-108185339D01*
X106349803Y-107357561D01*
X105522025Y-106421928D01*
X105297937Y-106408223D01*
X104835856Y-106812936D01*
X104750748Y-106904603D01*
X104685159Y-107011112D01*
X104641610Y-107128370D01*
X104621773Y-107251871D01*
X95376621Y-107251871D01*
X95358390Y-107138370D01*
X95314841Y-107021112D01*
X95249252Y-106914603D01*
X95164144Y-106822936D01*
X94702063Y-106418223D01*
X94477975Y-106431928D01*
X93650197Y-107367561D01*
X93266870Y-107367561D01*
X92356024Y-106561713D01*
X92131936Y-106575418D01*
X91722621Y-107033429D01*
X91649319Y-107134784D01*
X91597199Y-107248492D01*
X91568265Y-107370184D01*
X91563627Y-107495181D01*
X91583464Y-107618682D01*
X91627013Y-107735940D01*
X91633519Y-107746505D01*
X91467989Y-107779430D01*
X91047052Y-107320789D01*
X90270903Y-106252511D01*
X90211539Y-106147390D01*
X92510624Y-106147390D01*
X92524329Y-106371478D01*
X93459962Y-107199256D01*
X94287740Y-106263623D01*
X94287129Y-106253623D01*
X105712260Y-106253623D01*
X106540038Y-107189256D01*
X107475671Y-106361478D01*
X107489376Y-106137390D01*
X107084663Y-105675309D01*
X106992996Y-105590201D01*
X106886487Y-105524612D01*
X106769229Y-105481063D01*
X106645728Y-105461226D01*
X106520731Y-105465864D01*
X106399039Y-105494798D01*
X106285331Y-105546918D01*
X106183976Y-105620220D01*
X105725965Y-106029535D01*
X105712260Y-106253623D01*
X94287129Y-106253623D01*
X94274035Y-106039535D01*
X93816024Y-105630220D01*
X93714669Y-105556918D01*
X93600961Y-105504798D01*
X93479269Y-105475864D01*
X93354272Y-105471226D01*
X93230771Y-105491063D01*
X93113513Y-105534612D01*
X93007004Y-105600201D01*
X92915337Y-105685309D01*
X92510624Y-106147390D01*
X90211539Y-106147390D01*
X89699446Y-105240592D01*
X89780370Y-105119481D01*
X89798390Y-105075978D01*
X89808411Y-105088955D01*
X89902706Y-105171141D01*
X90011222Y-105233352D01*
X90129789Y-105273196D01*
X90253853Y-105289145D01*
X90378643Y-105280583D01*
X90499366Y-105247839D01*
X91072492Y-105026843D01*
X91164522Y-104822066D01*
X90720905Y-103654235D01*
X90702208Y-103661337D01*
X90665248Y-103564038D01*
X90958350Y-103564038D01*
X91401968Y-104731869D01*
X91606745Y-104823900D01*
X92182052Y-104608647D01*
X92294068Y-104552982D01*
X92393070Y-104476532D01*
X92475256Y-104382237D01*
X92537467Y-104273721D01*
X92577311Y-104155154D01*
X92593260Y-104031090D01*
X107406740Y-104031090D01*
X107422689Y-104155154D01*
X107462533Y-104273721D01*
X107524744Y-104382237D01*
X107606930Y-104476532D01*
X107705932Y-104552982D01*
X107817948Y-104608647D01*
X108393255Y-104823900D01*
X108598032Y-104731869D01*
X109041650Y-103564038D01*
X107873819Y-103120421D01*
X107669042Y-103212451D01*
X107448046Y-103785577D01*
X107415302Y-103906300D01*
X107406740Y-104031090D01*
X92593260Y-104031090D01*
X92584698Y-103906300D01*
X92551954Y-103785577D01*
X92330958Y-103212451D01*
X92126181Y-103120421D01*
X90958350Y-103564038D01*
X90665248Y-103564038D01*
X90612011Y-103423892D01*
X90630708Y-103416790D01*
X90187090Y-102248959D01*
X89986394Y-102158762D01*
X90424536Y-102158762D01*
X90868153Y-103326593D01*
X92035984Y-102882975D01*
X92128015Y-102678198D01*
X107871985Y-102678198D01*
X107964016Y-102882975D01*
X109131847Y-103326593D01*
X109575464Y-102158762D01*
X109483434Y-101953985D01*
X108910308Y-101732989D01*
X108789585Y-101700245D01*
X108664795Y-101691683D01*
X108540731Y-101707632D01*
X108422164Y-101747476D01*
X108313648Y-101809687D01*
X108219353Y-101891873D01*
X108142903Y-101990875D01*
X108087238Y-102102891D01*
X107871985Y-102678198D01*
X92128015Y-102678198D01*
X91912762Y-102102891D01*
X91857097Y-101990875D01*
X91780647Y-101891873D01*
X91686352Y-101809687D01*
X91577836Y-101747476D01*
X91459269Y-101707632D01*
X91335205Y-101691683D01*
X91210415Y-101700245D01*
X91089692Y-101732989D01*
X90516566Y-101953985D01*
X90424536Y-102158762D01*
X89986394Y-102158762D01*
X89982313Y-102156928D01*
X89407006Y-102372181D01*
X89294990Y-102427846D01*
X89195988Y-102504296D01*
X89113802Y-102598591D01*
X89051591Y-102707107D01*
X89011747Y-102825674D01*
X88995798Y-102949738D01*
X88997186Y-102969963D01*
X88867814Y-102916375D01*
X88819946Y-102906853D01*
X88735552Y-102619435D01*
X88510384Y-101318311D01*
X88435000Y-100000000D01*
X88446485Y-99799156D01*
X88550600Y-99729589D01*
X88553049Y-99749604D01*
X88592170Y-99868413D01*
X88653716Y-99977307D01*
X88735324Y-100072101D01*
X88833858Y-100149154D01*
X88945531Y-100205503D01*
X89066051Y-100238983D01*
X89671683Y-100341564D01*
X89793226Y-100256142D01*
X90105580Y-100256142D01*
X90234673Y-100439822D01*
X90839248Y-100548455D01*
X90963984Y-100557780D01*
X91088143Y-100542590D01*
X91206952Y-100503469D01*
X91315846Y-100441923D01*
X91410640Y-100360315D01*
X91487693Y-100261781D01*
X91544042Y-100150108D01*
X91577522Y-100029588D01*
X91680103Y-99423956D01*
X91579537Y-99280864D01*
X108283645Y-99280864D01*
X108354389Y-99891035D01*
X108381515Y-100013142D01*
X108431942Y-100127611D01*
X108503733Y-100230042D01*
X108594126Y-100316500D01*
X108699650Y-100383661D01*
X108816249Y-100428946D01*
X108939442Y-100450613D01*
X109064496Y-100447829D01*
X109673928Y-100370986D01*
X109812456Y-100194314D01*
X109662375Y-98954112D01*
X108422173Y-99104193D01*
X108283645Y-99280864D01*
X91579537Y-99280864D01*
X91551011Y-99240276D01*
X90320363Y-99025494D01*
X90105580Y-100256142D01*
X89793226Y-100256142D01*
X89855363Y-100212472D01*
X90070145Y-98981824D01*
X90050443Y-98978385D01*
X90085891Y-98775276D01*
X90364033Y-98775276D01*
X91594681Y-98990059D01*
X91778361Y-98860966D01*
X91886994Y-98256391D01*
X91896319Y-98131655D01*
X91881129Y-98007496D01*
X91871752Y-97979018D01*
X108135359Y-97979018D01*
X108138143Y-98104072D01*
X108214986Y-98713504D01*
X108391658Y-98852032D01*
X109631860Y-98701951D01*
X109481779Y-97461749D01*
X109305108Y-97323221D01*
X108694937Y-97393965D01*
X108572830Y-97421091D01*
X108458361Y-97471518D01*
X108355930Y-97543309D01*
X108269472Y-97633702D01*
X108202311Y-97739226D01*
X108157026Y-97855825D01*
X108135359Y-97979018D01*
X91871752Y-97979018D01*
X91842008Y-97888687D01*
X91780462Y-97779793D01*
X91698854Y-97684999D01*
X91600320Y-97607946D01*
X91488647Y-97551597D01*
X91368127Y-97518117D01*
X90762495Y-97415536D01*
X90578815Y-97544628D01*
X90364033Y-98775276D01*
X90085891Y-98775276D01*
X90094113Y-98728167D01*
X90113815Y-98731606D01*
X90328598Y-97500958D01*
X90199505Y-97317278D01*
X89594930Y-97208645D01*
X89470194Y-97199320D01*
X89346035Y-97214510D01*
X89227226Y-97253631D01*
X89118332Y-97315177D01*
X89023538Y-97396785D01*
X88946485Y-97495319D01*
X88938784Y-97510580D01*
X88907223Y-97463345D01*
X88755728Y-97311850D01*
X89107570Y-96113589D01*
X89319492Y-95612120D01*
X91220926Y-95612120D01*
X91261454Y-95832938D01*
X91765321Y-96184264D01*
X91874749Y-96244859D01*
X91993895Y-96282941D01*
X92118181Y-96297046D01*
X92242831Y-96286633D01*
X92363053Y-96252103D01*
X92474231Y-96194783D01*
X92572089Y-96116873D01*
X92652867Y-96021369D01*
X92999136Y-95514013D01*
X107000864Y-95514013D01*
X107347133Y-96021369D01*
X107427911Y-96116873D01*
X107525769Y-96194783D01*
X107636947Y-96252103D01*
X107757169Y-96286633D01*
X107881819Y-96297046D01*
X108006105Y-96282941D01*
X108125251Y-96244859D01*
X108234679Y-96184264D01*
X108738546Y-95832938D01*
X108779074Y-95612120D01*
X108069695Y-94583816D01*
X107041392Y-95293195D01*
X107000864Y-95514013D01*
X92999136Y-95514013D01*
X92958608Y-95293195D01*
X91930305Y-94583816D01*
X91220926Y-95612120D01*
X89319492Y-95612120D01*
X89621587Y-94897278D01*
X89846032Y-94499838D01*
X89958301Y-94499838D01*
X90027574Y-94486059D01*
X90022104Y-94503174D01*
X90007999Y-94627460D01*
X90018412Y-94752110D01*
X90052942Y-94872332D01*
X90110262Y-94983510D01*
X90188172Y-95081368D01*
X90283676Y-95162146D01*
X90791032Y-95508415D01*
X91011850Y-95467887D01*
X91721229Y-94439584D01*
X91704766Y-94428227D01*
X91741664Y-94374740D01*
X92074537Y-94374740D01*
X93102841Y-95084119D01*
X93323659Y-95043591D01*
X93674985Y-94539724D01*
X93735580Y-94430296D01*
X93773662Y-94311150D01*
X93787767Y-94186864D01*
X106212233Y-94186864D01*
X106226338Y-94311150D01*
X106264420Y-94430296D01*
X106325015Y-94539724D01*
X106676341Y-95043591D01*
X106897159Y-95084119D01*
X107925463Y-94374740D01*
X107216084Y-93346437D01*
X106995266Y-93305909D01*
X106487910Y-93652178D01*
X106392406Y-93732956D01*
X106314496Y-93830814D01*
X106257176Y-93941992D01*
X106222646Y-94062214D01*
X106212233Y-94186864D01*
X93787767Y-94186864D01*
X93777354Y-94062214D01*
X93742824Y-93941992D01*
X93685504Y-93830814D01*
X93607594Y-93732956D01*
X93512090Y-93652178D01*
X93004734Y-93305909D01*
X92783916Y-93346437D01*
X92074537Y-94374740D01*
X91741664Y-94374740D01*
X91848998Y-94219151D01*
X91865461Y-94230508D01*
X92574840Y-93202204D01*
X92534312Y-92981386D01*
X92030445Y-92630060D01*
X91921017Y-92569465D01*
X91801871Y-92531383D01*
X91677585Y-92517278D01*
X91552935Y-92527691D01*
X91432713Y-92562221D01*
X91321535Y-92619541D01*
X91305971Y-92631933D01*
X91283128Y-92517095D01*
X91255984Y-92451564D01*
X91441726Y-92249184D01*
X94198698Y-92249184D01*
X94481508Y-92794465D01*
X94550227Y-92898981D01*
X94638016Y-92988083D01*
X94741502Y-93058345D01*
X94856706Y-93107068D01*
X94979202Y-93132380D01*
X95104282Y-93133309D01*
X95227141Y-93109817D01*
X95343055Y-93062807D01*
X95885480Y-92774558D01*
X95952243Y-92560208D01*
X104047757Y-92560208D01*
X104114520Y-92774558D01*
X104656945Y-93062807D01*
X104772859Y-93109817D01*
X104895718Y-93133309D01*
X105020798Y-93132380D01*
X105143294Y-93107068D01*
X105258498Y-93058345D01*
X105361984Y-92988083D01*
X105449773Y-92898981D01*
X105518492Y-92794465D01*
X105801302Y-92249184D01*
X105734539Y-92034834D01*
X104628461Y-91454130D01*
X104047757Y-92560208D01*
X95952243Y-92560208D01*
X95371539Y-91454130D01*
X94265461Y-92034834D01*
X94198698Y-92249184D01*
X91441726Y-92249184D01*
X91939917Y-91706371D01*
X92937857Y-90841651D01*
X93564048Y-90413472D01*
X93732269Y-90483152D01*
X93719516Y-90495717D01*
X93649254Y-90599203D01*
X93600531Y-90714407D01*
X93575219Y-90836903D01*
X93574290Y-90961983D01*
X93597782Y-91084842D01*
X93644792Y-91200756D01*
X93933041Y-91743181D01*
X94147391Y-91809944D01*
X95050006Y-91336060D01*
X95596429Y-91336060D01*
X96177133Y-92442138D01*
X96391483Y-92508901D01*
X96936764Y-92226091D01*
X97041280Y-92157372D01*
X97130382Y-92069583D01*
X97200644Y-91966097D01*
X97249367Y-91850893D01*
X97274679Y-91728397D01*
X97275608Y-91603317D01*
X97252116Y-91480458D01*
X97205106Y-91364544D01*
X97040612Y-91055000D01*
X98461928Y-91055000D01*
X98474188Y-91179482D01*
X98510498Y-91299180D01*
X98569463Y-91409494D01*
X98648815Y-91506185D01*
X98745506Y-91585537D01*
X98855820Y-91644502D01*
X98975518Y-91680812D01*
X99100000Y-91693072D01*
X99714250Y-91690000D01*
X99873000Y-91531250D01*
X99873000Y-90282000D01*
X100127000Y-90282000D01*
X100127000Y-91531250D01*
X100285750Y-91690000D01*
X100900000Y-91693072D01*
X101024482Y-91680812D01*
X101144180Y-91644502D01*
X101221230Y-91603317D01*
X102724392Y-91603317D01*
X102725321Y-91728397D01*
X102750633Y-91850893D01*
X102799356Y-91966097D01*
X102869618Y-92069583D01*
X102958720Y-92157372D01*
X103063236Y-92226091D01*
X103608517Y-92508901D01*
X103822867Y-92442138D01*
X104403571Y-91336060D01*
X103297493Y-90755356D01*
X103083143Y-90822119D01*
X102794894Y-91364544D01*
X102747884Y-91480458D01*
X102724392Y-91603317D01*
X101221230Y-91603317D01*
X101254494Y-91585537D01*
X101351185Y-91506185D01*
X101430537Y-91409494D01*
X101489502Y-91299180D01*
X101525812Y-91179482D01*
X101538072Y-91055000D01*
X101535000Y-90440750D01*
X101376250Y-90282000D01*
X100127000Y-90282000D01*
X99873000Y-90282000D01*
X98623750Y-90282000D01*
X98465000Y-90440750D01*
X98461928Y-91055000D01*
X97040612Y-91055000D01*
X96916857Y-90822119D01*
X96702507Y-90755356D01*
X95596429Y-91336060D01*
X95050006Y-91336060D01*
X95253469Y-91229240D01*
X95244172Y-91211532D01*
X95469062Y-91093462D01*
X95478359Y-91111170D01*
X96584437Y-90530466D01*
X96651200Y-90316116D01*
X96368390Y-89770835D01*
X96299671Y-89666319D01*
X96211882Y-89577217D01*
X96108396Y-89506955D01*
X95993192Y-89458232D01*
X95870696Y-89432920D01*
X95745616Y-89431991D01*
X95729495Y-89435073D01*
X95764593Y-89258625D01*
X96426218Y-89001031D01*
X97703301Y-88665345D01*
X98754684Y-88514179D01*
X98807688Y-88593505D01*
G37*
X98807688Y-88593505D02*
X98874127Y-88659944D01*
X98855820Y-88665498D01*
X98745506Y-88724463D01*
X98648815Y-88803815D01*
X98569463Y-88900506D01*
X98510498Y-89010820D01*
X98474188Y-89130518D01*
X98461928Y-89255000D01*
X98465000Y-89869250D01*
X98623750Y-90028000D01*
X99873000Y-90028000D01*
X99873000Y-90008000D01*
X100127000Y-90008000D01*
X100127000Y-90028000D01*
X101376250Y-90028000D01*
X101535000Y-89869250D01*
X101538072Y-89255000D01*
X101525812Y-89130518D01*
X101489502Y-89010820D01*
X101430537Y-88900506D01*
X101351185Y-88803815D01*
X101254494Y-88724463D01*
X101144180Y-88665498D01*
X101125873Y-88659944D01*
X101192312Y-88593505D01*
X101242705Y-88518087D01*
X101645871Y-88552715D01*
X102940035Y-88814947D01*
X104195871Y-89222993D01*
X104231561Y-89239292D01*
X104270505Y-89435073D01*
X104254384Y-89431991D01*
X104129304Y-89432920D01*
X104006808Y-89458232D01*
X103891604Y-89506955D01*
X103788118Y-89577217D01*
X103700329Y-89666319D01*
X103631610Y-89770835D01*
X103348800Y-90316116D01*
X103415563Y-90530466D01*
X104521641Y-91111170D01*
X104530938Y-91093462D01*
X104755828Y-91211532D01*
X104746531Y-91229240D01*
X105852609Y-91809944D01*
X106066959Y-91743181D01*
X106355208Y-91200756D01*
X106402218Y-91084842D01*
X106425710Y-90961983D01*
X106424781Y-90836903D01*
X106399469Y-90714407D01*
X106350746Y-90599203D01*
X106280484Y-90495717D01*
X106267731Y-90483152D01*
X106451123Y-90407188D01*
X106527786Y-90453418D01*
X107573464Y-91259756D01*
X108520411Y-92180037D01*
X108743485Y-92452845D01*
X108716872Y-92517095D01*
X108694029Y-92631933D01*
X108678465Y-92619541D01*
X108567287Y-92562221D01*
X108447065Y-92527691D01*
X108322415Y-92517278D01*
X108198129Y-92531383D01*
X108078983Y-92569465D01*
X107969555Y-92630060D01*
X107465688Y-92981386D01*
X107425160Y-93202204D01*
X108134539Y-94230508D01*
X108151002Y-94219151D01*
X108295234Y-94428227D01*
X108278771Y-94439584D01*
X108988150Y-95467887D01*
X109208968Y-95508415D01*
X109716324Y-95162146D01*
X109811828Y-95081368D01*
X109889738Y-94983510D01*
X109947058Y-94872332D01*
X109981588Y-94752110D01*
X109992001Y-94627460D01*
X109977896Y-94503174D01*
X109972426Y-94486059D01*
X110041699Y-94499838D01*
X110161987Y-94499838D01*
X110652795Y-95498091D01*
X111096536Y-96741763D01*
X111246208Y-97385403D01*
X111120332Y-97511279D01*
X111114454Y-97497937D01*
X111042663Y-97395506D01*
X110952270Y-97309048D01*
X110846746Y-97241887D01*
X110730147Y-97196602D01*
X110606954Y-97174935D01*
X110481900Y-97177719D01*
X109872468Y-97254562D01*
X109733940Y-97431234D01*
X109884021Y-98671436D01*
X109903876Y-98669033D01*
X109934391Y-98921194D01*
X109914536Y-98923597D01*
X110064617Y-100163799D01*
X110241288Y-100302327D01*
X110851459Y-100231583D01*
X110973566Y-100204457D01*
X111088035Y-100154030D01*
X111190466Y-100082239D01*
X111276924Y-99991846D01*
X111344085Y-99886322D01*
X111389370Y-99769723D01*
X111392669Y-99750968D01*
X111546139Y-99853514D01*
X111546139Y-100660232D01*
X111395617Y-101972089D01*
X111178159Y-102907230D01*
X111132186Y-102916375D01*
X111002814Y-102969963D01*
X111004202Y-102949738D01*
X110988253Y-102825674D01*
X110948409Y-102707107D01*
X110886198Y-102598591D01*
X110804012Y-102504296D01*
X110705010Y-102427846D01*
X110592994Y-102372181D01*
X110017687Y-102156928D01*
X109812910Y-102248959D01*
X109369292Y-103416790D01*
X109387989Y-103423892D01*
X109297792Y-103661337D01*
X109279095Y-103654235D01*
X108835478Y-104822066D01*
X108927508Y-105026843D01*
X109500634Y-105247839D01*
X109621357Y-105280583D01*
X109746147Y-105289145D01*
X109870211Y-105273196D01*
X109988778Y-105233352D01*
X110097294Y-105171141D01*
X110191589Y-105088955D01*
X110201610Y-105075978D01*
X110219630Y-105119481D01*
X110294248Y-105231155D01*
X110070178Y-105686891D01*
X109356282Y-106797736D01*
X108557574Y-107774515D01*
X108366481Y-107736505D01*
X108372987Y-107725940D01*
X108416536Y-107608682D01*
X108436373Y-107485181D01*
X108431735Y-107360184D01*
X108402801Y-107238492D01*
X108350681Y-107124784D01*
X108277379Y-107023429D01*
X107868064Y-106565418D01*
X107643976Y-106551713D01*
X106708343Y-107379491D01*
X106721595Y-107394470D01*
X106531361Y-107562775D01*
X106518108Y-107547796D01*
X105582475Y-108375574D01*
X105568770Y-108599662D01*
X105973483Y-109061743D01*
X106065150Y-109146851D01*
X106171659Y-109212440D01*
X106288917Y-109255989D01*
X106412418Y-109275826D01*
X106537415Y-109271188D01*
X106659107Y-109242254D01*
X106677127Y-109233994D01*
X106677127Y-109422058D01*
X106678742Y-109430178D01*
X106527786Y-109546582D01*
X105397008Y-110228467D01*
X104195871Y-110777007D01*
X103963580Y-110852483D01*
X103943595Y-110832498D01*
X103806012Y-110740568D01*
X103823405Y-110730210D01*
X103916323Y-110646471D01*
X103991120Y-110546215D01*
X104044920Y-110433293D01*
X104075658Y-110312044D01*
X104082150Y-110187129D01*
X104064147Y-110063347D01*
X103913605Y-109467822D01*
X103721368Y-109351857D01*
X102508700Y-109651962D01*
X102513505Y-109671376D01*
X102266943Y-109732395D01*
X102262138Y-109712980D01*
X101049470Y-110013085D01*
X100933505Y-110205322D01*
X101078083Y-110802323D01*
X101119888Y-110920214D01*
X101183890Y-111027685D01*
X101267629Y-111120603D01*
X101367885Y-111195400D01*
X101480807Y-111249200D01*
X101602056Y-111279938D01*
X101616179Y-111280672D01*
X101604791Y-111297715D01*
X101539036Y-111456461D01*
X100330251Y-111560284D01*
X99010325Y-111522576D01*
X98457351Y-111443071D01*
X98397362Y-111298246D01*
X98384411Y-111278864D01*
X98398793Y-111278091D01*
X98519988Y-111247141D01*
X98632816Y-111193144D01*
X98732942Y-111118172D01*
X98816518Y-111025107D01*
X98880332Y-110917526D01*
X98921931Y-110799561D01*
X99065467Y-110202309D01*
X98949167Y-110010275D01*
X97735977Y-109712287D01*
X97731206Y-109731709D01*
X97484538Y-109671122D01*
X97489309Y-109651699D01*
X96731728Y-109465619D01*
X97796565Y-109465619D01*
X99009754Y-109763607D01*
X99201789Y-109647306D01*
X99351292Y-109051520D01*
X99368569Y-108931251D01*
X100627670Y-108931251D01*
X100645673Y-109055033D01*
X100796215Y-109650558D01*
X100988452Y-109766523D01*
X102201120Y-109466418D01*
X101901015Y-108253750D01*
X101799865Y-108192732D01*
X102147577Y-108192732D01*
X102447682Y-109405400D01*
X103660350Y-109105295D01*
X103776315Y-108913058D01*
X103631737Y-108316057D01*
X103589932Y-108198166D01*
X103525930Y-108090695D01*
X103442191Y-107997777D01*
X103341935Y-107922980D01*
X103229013Y-107869180D01*
X103107764Y-107838442D01*
X102982849Y-107831950D01*
X102859067Y-107849953D01*
X102263542Y-108000495D01*
X102147577Y-108192732D01*
X101799865Y-108192732D01*
X101708778Y-108137785D01*
X101111777Y-108282363D01*
X100993886Y-108324168D01*
X100886415Y-108388170D01*
X100793497Y-108471909D01*
X100718700Y-108572165D01*
X100664900Y-108685087D01*
X100634162Y-108806336D01*
X100627670Y-108931251D01*
X99368569Y-108931251D01*
X99369079Y-108927707D01*
X99362369Y-108802803D01*
X99331419Y-108681608D01*
X99277422Y-108568780D01*
X99202450Y-108468654D01*
X99109385Y-108385078D01*
X99001804Y-108321264D01*
X98883839Y-108279665D01*
X98286587Y-108136129D01*
X98094553Y-108252429D01*
X97796565Y-109465619D01*
X96731728Y-109465619D01*
X96276120Y-109353711D01*
X96084085Y-109470012D01*
X95934582Y-110065798D01*
X95916795Y-110189611D01*
X95923505Y-110314515D01*
X95954455Y-110435710D01*
X96008452Y-110548538D01*
X96083424Y-110648664D01*
X96176489Y-110732240D01*
X96193923Y-110742581D01*
X96058558Y-110833029D01*
X96042150Y-110849437D01*
X95195725Y-110519894D01*
X94027863Y-109903677D01*
X93322873Y-109421617D01*
X93322873Y-109243994D01*
X93340893Y-109252254D01*
X93462585Y-109281188D01*
X93587582Y-109285826D01*
X93711083Y-109265989D01*
X93828341Y-109222440D01*
X93934850Y-109156851D01*
X94026517Y-109071743D01*
X94163792Y-108915009D01*
X96220407Y-108915009D01*
X96336707Y-109107043D01*
X97549897Y-109405031D01*
X97847885Y-108191842D01*
X97731584Y-107999807D01*
X97135798Y-107850304D01*
X97011985Y-107832517D01*
X96887081Y-107839227D01*
X96765886Y-107870177D01*
X96653058Y-107924174D01*
X96552932Y-107999146D01*
X96469356Y-108092211D01*
X96405542Y-108199792D01*
X96363943Y-108317757D01*
X96220407Y-108915009D01*
X94163792Y-108915009D01*
X94431230Y-108609662D01*
X94417525Y-108385574D01*
X93481892Y-107557796D01*
X93468639Y-107572775D01*
X93278405Y-107404470D01*
X93291657Y-107389491D01*
X93266870Y-107367561D01*
X93650197Y-107367561D01*
X94585830Y-108195339D01*
X94809918Y-108181634D01*
X95219233Y-107723623D01*
X95292535Y-107622268D01*
X95344655Y-107508560D01*
X95373589Y-107386868D01*
X95378227Y-107261871D01*
X95376621Y-107251871D01*
X104621773Y-107251871D01*
X104626411Y-107376868D01*
X104655345Y-107498560D01*
X104707465Y-107612268D01*
X104780767Y-107713623D01*
X105190082Y-108171634D01*
X105414170Y-108185339D01*
X106349803Y-107357561D01*
X105522025Y-106421928D01*
X105297937Y-106408223D01*
X104835856Y-106812936D01*
X104750748Y-106904603D01*
X104685159Y-107011112D01*
X104641610Y-107128370D01*
X104621773Y-107251871D01*
X95376621Y-107251871D01*
X95358390Y-107138370D01*
X95314841Y-107021112D01*
X95249252Y-106914603D01*
X95164144Y-106822936D01*
X94702063Y-106418223D01*
X94477975Y-106431928D01*
X93650197Y-107367561D01*
X93266870Y-107367561D01*
X92356024Y-106561713D01*
X92131936Y-106575418D01*
X91722621Y-107033429D01*
X91649319Y-107134784D01*
X91597199Y-107248492D01*
X91568265Y-107370184D01*
X91563627Y-107495181D01*
X91583464Y-107618682D01*
X91627013Y-107735940D01*
X91633519Y-107746505D01*
X91467989Y-107779430D01*
X91047052Y-107320789D01*
X90270903Y-106252511D01*
X90211539Y-106147390D01*
X92510624Y-106147390D01*
X92524329Y-106371478D01*
X93459962Y-107199256D01*
X94287740Y-106263623D01*
X94287129Y-106253623D01*
X105712260Y-106253623D01*
X106540038Y-107189256D01*
X107475671Y-106361478D01*
X107489376Y-106137390D01*
X107084663Y-105675309D01*
X106992996Y-105590201D01*
X106886487Y-105524612D01*
X106769229Y-105481063D01*
X106645728Y-105461226D01*
X106520731Y-105465864D01*
X106399039Y-105494798D01*
X106285331Y-105546918D01*
X106183976Y-105620220D01*
X105725965Y-106029535D01*
X105712260Y-106253623D01*
X94287129Y-106253623D01*
X94274035Y-106039535D01*
X93816024Y-105630220D01*
X93714669Y-105556918D01*
X93600961Y-105504798D01*
X93479269Y-105475864D01*
X93354272Y-105471226D01*
X93230771Y-105491063D01*
X93113513Y-105534612D01*
X93007004Y-105600201D01*
X92915337Y-105685309D01*
X92510624Y-106147390D01*
X90211539Y-106147390D01*
X89699446Y-105240592D01*
X89780370Y-105119481D01*
X89798390Y-105075978D01*
X89808411Y-105088955D01*
X89902706Y-105171141D01*
X90011222Y-105233352D01*
X90129789Y-105273196D01*
X90253853Y-105289145D01*
X90378643Y-105280583D01*
X90499366Y-105247839D01*
X91072492Y-105026843D01*
X91164522Y-104822066D01*
X90720905Y-103654235D01*
X90702208Y-103661337D01*
X90665248Y-103564038D01*
X90958350Y-103564038D01*
X91401968Y-104731869D01*
X91606745Y-104823900D01*
X92182052Y-104608647D01*
X92294068Y-104552982D01*
X92393070Y-104476532D01*
X92475256Y-104382237D01*
X92537467Y-104273721D01*
X92577311Y-104155154D01*
X92593260Y-104031090D01*
X107406740Y-104031090D01*
X107422689Y-104155154D01*
X107462533Y-104273721D01*
X107524744Y-104382237D01*
X107606930Y-104476532D01*
X107705932Y-104552982D01*
X107817948Y-104608647D01*
X108393255Y-104823900D01*
X108598032Y-104731869D01*
X109041650Y-103564038D01*
X107873819Y-103120421D01*
X107669042Y-103212451D01*
X107448046Y-103785577D01*
X107415302Y-103906300D01*
X107406740Y-104031090D01*
X92593260Y-104031090D01*
X92584698Y-103906300D01*
X92551954Y-103785577D01*
X92330958Y-103212451D01*
X92126181Y-103120421D01*
X90958350Y-103564038D01*
X90665248Y-103564038D01*
X90612011Y-103423892D01*
X90630708Y-103416790D01*
X90187090Y-102248959D01*
X89986394Y-102158762D01*
X90424536Y-102158762D01*
X90868153Y-103326593D01*
X92035984Y-102882975D01*
X92128015Y-102678198D01*
X107871985Y-102678198D01*
X107964016Y-102882975D01*
X109131847Y-103326593D01*
X109575464Y-102158762D01*
X109483434Y-101953985D01*
X108910308Y-101732989D01*
X108789585Y-101700245D01*
X108664795Y-101691683D01*
X108540731Y-101707632D01*
X108422164Y-101747476D01*
X108313648Y-101809687D01*
X108219353Y-101891873D01*
X108142903Y-101990875D01*
X108087238Y-102102891D01*
X107871985Y-102678198D01*
X92128015Y-102678198D01*
X91912762Y-102102891D01*
X91857097Y-101990875D01*
X91780647Y-101891873D01*
X91686352Y-101809687D01*
X91577836Y-101747476D01*
X91459269Y-101707632D01*
X91335205Y-101691683D01*
X91210415Y-101700245D01*
X91089692Y-101732989D01*
X90516566Y-101953985D01*
X90424536Y-102158762D01*
X89986394Y-102158762D01*
X89982313Y-102156928D01*
X89407006Y-102372181D01*
X89294990Y-102427846D01*
X89195988Y-102504296D01*
X89113802Y-102598591D01*
X89051591Y-102707107D01*
X89011747Y-102825674D01*
X88995798Y-102949738D01*
X88997186Y-102969963D01*
X88867814Y-102916375D01*
X88819946Y-102906853D01*
X88735552Y-102619435D01*
X88510384Y-101318311D01*
X88435000Y-100000000D01*
X88446485Y-99799156D01*
X88550600Y-99729589D01*
X88553049Y-99749604D01*
X88592170Y-99868413D01*
X88653716Y-99977307D01*
X88735324Y-100072101D01*
X88833858Y-100149154D01*
X88945531Y-100205503D01*
X89066051Y-100238983D01*
X89671683Y-100341564D01*
X89793226Y-100256142D01*
X90105580Y-100256142D01*
X90234673Y-100439822D01*
X90839248Y-100548455D01*
X90963984Y-100557780D01*
X91088143Y-100542590D01*
X91206952Y-100503469D01*
X91315846Y-100441923D01*
X91410640Y-100360315D01*
X91487693Y-100261781D01*
X91544042Y-100150108D01*
X91577522Y-100029588D01*
X91680103Y-99423956D01*
X91579537Y-99280864D01*
X108283645Y-99280864D01*
X108354389Y-99891035D01*
X108381515Y-100013142D01*
X108431942Y-100127611D01*
X108503733Y-100230042D01*
X108594126Y-100316500D01*
X108699650Y-100383661D01*
X108816249Y-100428946D01*
X108939442Y-100450613D01*
X109064496Y-100447829D01*
X109673928Y-100370986D01*
X109812456Y-100194314D01*
X109662375Y-98954112D01*
X108422173Y-99104193D01*
X108283645Y-99280864D01*
X91579537Y-99280864D01*
X91551011Y-99240276D01*
X90320363Y-99025494D01*
X90105580Y-100256142D01*
X89793226Y-100256142D01*
X89855363Y-100212472D01*
X90070145Y-98981824D01*
X90050443Y-98978385D01*
X90085891Y-98775276D01*
X90364033Y-98775276D01*
X91594681Y-98990059D01*
X91778361Y-98860966D01*
X91886994Y-98256391D01*
X91896319Y-98131655D01*
X91881129Y-98007496D01*
X91871752Y-97979018D01*
X108135359Y-97979018D01*
X108138143Y-98104072D01*
X108214986Y-98713504D01*
X108391658Y-98852032D01*
X109631860Y-98701951D01*
X109481779Y-97461749D01*
X109305108Y-97323221D01*
X108694937Y-97393965D01*
X108572830Y-97421091D01*
X108458361Y-97471518D01*
X108355930Y-97543309D01*
X108269472Y-97633702D01*
X108202311Y-97739226D01*
X108157026Y-97855825D01*
X108135359Y-97979018D01*
X91871752Y-97979018D01*
X91842008Y-97888687D01*
X91780462Y-97779793D01*
X91698854Y-97684999D01*
X91600320Y-97607946D01*
X91488647Y-97551597D01*
X91368127Y-97518117D01*
X90762495Y-97415536D01*
X90578815Y-97544628D01*
X90364033Y-98775276D01*
X90085891Y-98775276D01*
X90094113Y-98728167D01*
X90113815Y-98731606D01*
X90328598Y-97500958D01*
X90199505Y-97317278D01*
X89594930Y-97208645D01*
X89470194Y-97199320D01*
X89346035Y-97214510D01*
X89227226Y-97253631D01*
X89118332Y-97315177D01*
X89023538Y-97396785D01*
X88946485Y-97495319D01*
X88938784Y-97510580D01*
X88907223Y-97463345D01*
X88755728Y-97311850D01*
X89107570Y-96113589D01*
X89319492Y-95612120D01*
X91220926Y-95612120D01*
X91261454Y-95832938D01*
X91765321Y-96184264D01*
X91874749Y-96244859D01*
X91993895Y-96282941D01*
X92118181Y-96297046D01*
X92242831Y-96286633D01*
X92363053Y-96252103D01*
X92474231Y-96194783D01*
X92572089Y-96116873D01*
X92652867Y-96021369D01*
X92999136Y-95514013D01*
X107000864Y-95514013D01*
X107347133Y-96021369D01*
X107427911Y-96116873D01*
X107525769Y-96194783D01*
X107636947Y-96252103D01*
X107757169Y-96286633D01*
X107881819Y-96297046D01*
X108006105Y-96282941D01*
X108125251Y-96244859D01*
X108234679Y-96184264D01*
X108738546Y-95832938D01*
X108779074Y-95612120D01*
X108069695Y-94583816D01*
X107041392Y-95293195D01*
X107000864Y-95514013D01*
X92999136Y-95514013D01*
X92958608Y-95293195D01*
X91930305Y-94583816D01*
X91220926Y-95612120D01*
X89319492Y-95612120D01*
X89621587Y-94897278D01*
X89846032Y-94499838D01*
X89958301Y-94499838D01*
X90027574Y-94486059D01*
X90022104Y-94503174D01*
X90007999Y-94627460D01*
X90018412Y-94752110D01*
X90052942Y-94872332D01*
X90110262Y-94983510D01*
X90188172Y-95081368D01*
X90283676Y-95162146D01*
X90791032Y-95508415D01*
X91011850Y-95467887D01*
X91721229Y-94439584D01*
X91704766Y-94428227D01*
X91741664Y-94374740D01*
X92074537Y-94374740D01*
X93102841Y-95084119D01*
X93323659Y-95043591D01*
X93674985Y-94539724D01*
X93735580Y-94430296D01*
X93773662Y-94311150D01*
X93787767Y-94186864D01*
X106212233Y-94186864D01*
X106226338Y-94311150D01*
X106264420Y-94430296D01*
X106325015Y-94539724D01*
X106676341Y-95043591D01*
X106897159Y-95084119D01*
X107925463Y-94374740D01*
X107216084Y-93346437D01*
X106995266Y-93305909D01*
X106487910Y-93652178D01*
X106392406Y-93732956D01*
X106314496Y-93830814D01*
X106257176Y-93941992D01*
X106222646Y-94062214D01*
X106212233Y-94186864D01*
X93787767Y-94186864D01*
X93777354Y-94062214D01*
X93742824Y-93941992D01*
X93685504Y-93830814D01*
X93607594Y-93732956D01*
X93512090Y-93652178D01*
X93004734Y-93305909D01*
X92783916Y-93346437D01*
X92074537Y-94374740D01*
X91741664Y-94374740D01*
X91848998Y-94219151D01*
X91865461Y-94230508D01*
X92574840Y-93202204D01*
X92534312Y-92981386D01*
X92030445Y-92630060D01*
X91921017Y-92569465D01*
X91801871Y-92531383D01*
X91677585Y-92517278D01*
X91552935Y-92527691D01*
X91432713Y-92562221D01*
X91321535Y-92619541D01*
X91305971Y-92631933D01*
X91283128Y-92517095D01*
X91255984Y-92451564D01*
X91441726Y-92249184D01*
X94198698Y-92249184D01*
X94481508Y-92794465D01*
X94550227Y-92898981D01*
X94638016Y-92988083D01*
X94741502Y-93058345D01*
X94856706Y-93107068D01*
X94979202Y-93132380D01*
X95104282Y-93133309D01*
X95227141Y-93109817D01*
X95343055Y-93062807D01*
X95885480Y-92774558D01*
X95952243Y-92560208D01*
X104047757Y-92560208D01*
X104114520Y-92774558D01*
X104656945Y-93062807D01*
X104772859Y-93109817D01*
X104895718Y-93133309D01*
X105020798Y-93132380D01*
X105143294Y-93107068D01*
X105258498Y-93058345D01*
X105361984Y-92988083D01*
X105449773Y-92898981D01*
X105518492Y-92794465D01*
X105801302Y-92249184D01*
X105734539Y-92034834D01*
X104628461Y-91454130D01*
X104047757Y-92560208D01*
X95952243Y-92560208D01*
X95371539Y-91454130D01*
X94265461Y-92034834D01*
X94198698Y-92249184D01*
X91441726Y-92249184D01*
X91939917Y-91706371D01*
X92937857Y-90841651D01*
X93564048Y-90413472D01*
X93732269Y-90483152D01*
X93719516Y-90495717D01*
X93649254Y-90599203D01*
X93600531Y-90714407D01*
X93575219Y-90836903D01*
X93574290Y-90961983D01*
X93597782Y-91084842D01*
X93644792Y-91200756D01*
X93933041Y-91743181D01*
X94147391Y-91809944D01*
X95050006Y-91336060D01*
X95596429Y-91336060D01*
X96177133Y-92442138D01*
X96391483Y-92508901D01*
X96936764Y-92226091D01*
X97041280Y-92157372D01*
X97130382Y-92069583D01*
X97200644Y-91966097D01*
X97249367Y-91850893D01*
X97274679Y-91728397D01*
X97275608Y-91603317D01*
X97252116Y-91480458D01*
X97205106Y-91364544D01*
X97040612Y-91055000D01*
X98461928Y-91055000D01*
X98474188Y-91179482D01*
X98510498Y-91299180D01*
X98569463Y-91409494D01*
X98648815Y-91506185D01*
X98745506Y-91585537D01*
X98855820Y-91644502D01*
X98975518Y-91680812D01*
X99100000Y-91693072D01*
X99714250Y-91690000D01*
X99873000Y-91531250D01*
X99873000Y-90282000D01*
X100127000Y-90282000D01*
X100127000Y-91531250D01*
X100285750Y-91690000D01*
X100900000Y-91693072D01*
X101024482Y-91680812D01*
X101144180Y-91644502D01*
X101221230Y-91603317D01*
X102724392Y-91603317D01*
X102725321Y-91728397D01*
X102750633Y-91850893D01*
X102799356Y-91966097D01*
X102869618Y-92069583D01*
X102958720Y-92157372D01*
X103063236Y-92226091D01*
X103608517Y-92508901D01*
X103822867Y-92442138D01*
X104403571Y-91336060D01*
X103297493Y-90755356D01*
X103083143Y-90822119D01*
X102794894Y-91364544D01*
X102747884Y-91480458D01*
X102724392Y-91603317D01*
X101221230Y-91603317D01*
X101254494Y-91585537D01*
X101351185Y-91506185D01*
X101430537Y-91409494D01*
X101489502Y-91299180D01*
X101525812Y-91179482D01*
X101538072Y-91055000D01*
X101535000Y-90440750D01*
X101376250Y-90282000D01*
X100127000Y-90282000D01*
X99873000Y-90282000D01*
X98623750Y-90282000D01*
X98465000Y-90440750D01*
X98461928Y-91055000D01*
X97040612Y-91055000D01*
X96916857Y-90822119D01*
X96702507Y-90755356D01*
X95596429Y-91336060D01*
X95050006Y-91336060D01*
X95253469Y-91229240D01*
X95244172Y-91211532D01*
X95469062Y-91093462D01*
X95478359Y-91111170D01*
X96584437Y-90530466D01*
X96651200Y-90316116D01*
X96368390Y-89770835D01*
X96299671Y-89666319D01*
X96211882Y-89577217D01*
X96108396Y-89506955D01*
X95993192Y-89458232D01*
X95870696Y-89432920D01*
X95745616Y-89431991D01*
X95729495Y-89435073D01*
X95764593Y-89258625D01*
X96426218Y-89001031D01*
X97703301Y-88665345D01*
X98754684Y-88514179D01*
X98807688Y-88593505D01*
M02*
